<?xml version="1.0" encoding="UTF-8" standalone="no"?>
<svg
   width="177.91141pt"
   height="87.742722pt"
   viewBox="0 0 177.91141 87.742723"
   version="1.1"
   id="svg131"
   sodipodi:docname="directionality.svg"
   xmlns:inkscape="http://www.inkscape.org/namespaces/inkscape"
   xmlns:sodipodi="http://sodipodi.sourceforge.net/DTD/sodipodi-0.dtd"
   xmlns:xlink="http://www.w3.org/1999/xlink"
   xmlns="http://www.w3.org/2000/svg"
   xmlns:svg="http://www.w3.org/2000/svg"
   xmlns:rdf="http://www.w3.org/1999/02/22-rdf-syntax-ns#"
   xmlns:cc="http://creativecommons.org/ns#"
   xmlns:dc="http://purl.org/dc/elements/1.1/">
  <sodipodi:namedview
     id="namedview133"
     pagecolor="#ffffff"
     bordercolor="#999999"
     borderopacity="1"
     inkscape:pageshadow="0"
     inkscape:pageopacity="0"
     inkscape:pagecheckerboard="0"
     inkscape:document-units="pt" />
  <metadata
     id="metadata2">
    <rdf:RDF>
      <cc:Work>
        <dc:type
           rdf:resource="http://purl.org/dc/dcmitype/StillImage" />
        <dc:date>2023-05-03T16:10:23.579481</dc:date>
        <dc:format>image/svg+xml</dc:format>
        <dc:creator>
          <cc:Agent>
            <dc:title>Matplotlib v3.6.2, https://matplotlib.org/</dc:title>
          </cc:Agent>
        </dc:creator>
      </cc:Work>
    </rdf:RDF>
  </metadata>
  <defs
     id="defs6">
    <style
       type="text/css"
       id="style4">*{stroke-linejoin: round; stroke-linecap: butt}</style>
  </defs>
  <g
     id="figure_1"
     transform="translate(-152.43145,-115.53809)">
    <g
       id="axes_1">
      <g
         id="patch_2">
        <path
           d="m 169.2,169.2 c 0,0 0,0 0,0 0,0 0,0 0,0 l 158.55322,-28.77317 c 0.86104,4.7447 1.50866,9.52566 1.94092,14.32844 0.43226,4.80277 0.64872,9.62254 0.64872,14.44473 z"
           clip-path="url(#p32761aea54)"
           style="fill:#1f77b4"
           id="path8" />
      </g>
      <g
         id="patch_3">
        <path
           d="m 169.2,169.2 c 0,0 0,0 0,0 0,0 0,0 0,0 l 131.32434,-49.28685 c 1.47491,3.92987 2.77267,7.92397 3.88937,11.97024 1.1167,4.04626 2.05121,8.14061 2.80071,12.27069 z"
           clip-path="url(#p32761aea54)"
           style="fill:#1f77b4"
           id="path11" />
      </g>
      <g
         id="patch_4">
        <path
           d="m 169.2,169.2 c 0,0 0,0 0,0 0,0 0,0 0,0 l 89.8149,-53.66191 c 1.60584,2.68771 3.09021,5.44614 4.44865,8.26698 1.35844,2.82083 2.58958,5.70122 3.6897,8.63246 z"
           clip-path="url(#p32761aea54)"
           style="fill:#1f77b4"
           id="path14" />
      </g>
      <g
         id="patch_5">
        <path
           d="m 169.2,169.2 c 0,0 0,0 0,0 0,0 0,0 0,0 l 49.62645,-43.35732 c 1.29746,1.48507 2.52761,3.02763 3.68674,4.62302 1.15912,1.5954 2.24604,3.24202 3.25749,4.93489 z"
           clip-path="url(#p32761aea54)"
           style="fill:#1f77b4"
           id="path17" />
      </g>
      <g
         id="patch_6">
        <path
           d="m 169.2,169.2 c 0,0 0,0 0,0 0,0 0,0 0,0 l 21.79515,-27.33025 c 0.81785,0.65222 1.60602,1.34082 2.36212,2.06372 0.7561,0.72291 1.47937,1.47939 2.16763,2.26716 z"
           clip-path="url(#p32761aea54)"
           style="fill:#1f77b4"
           id="path20" />
      </g>
      <g
         id="patch_7">
        <path
           d="m 169.2,169.2 c 0,0 0,0 0,0 0,0 0,0 0,0 l 11.30164,-21.00196 c 0.62848,0.3382 1.24147,0.70444 1.8371,1.09761 0.59564,0.39318 1.17333,0.8129 1.73132,1.25788 z"
           clip-path="url(#p32761aea54)"
           style="fill:#1f77b4"
           id="path23" />
      </g>
      <g
         id="patch_8">
        <path
           d="m 169.2,169.2 c 0,0 0,0 0,0 0,0 0,0 0,0 l 4.96907,-15.29323 c 0.45765,0.1487 0.90839,0.31787 1.35087,0.50699 0.44248,0.18913 0.87624,0.39802 1.29999,0.62604 z"
           clip-path="url(#p32761aea54)"
           style="fill:#1f77b4"
           id="path26" />
      </g>
      <g
         id="patch_9">
        <path
           d="m 169.2,169.2 c 0,0 0,0 0,0 0,0 0,0 0,0 l 1.71283,-12.64461 c 0.37839,0.0513 0.75429,0.11947 1.12656,0.20444 0.37227,0.085 0.74054,0.18661 1.1037,0.3046 z"
           clip-path="url(#p32761aea54)"
           style="fill:#1f77b4"
           id="path29" />
      </g>
      <g
         id="patch_10">
        <path
           d="m 169.2,169.2 c 0,0 0,0 0,0 0,0 0,0 0,0 l -0.50922,-11.33865 c 0.33931,-0.0152 0.67913,-0.0152 1.01844,0 0.33931,0.0152 0.67776,0.0457 1.01434,0.0913 z"
           clip-path="url(#p32761aea54)"
           style="fill:#1f77b4"
           id="path32" />
      </g>
      <g
         id="patch_11">
        <path
           d="m 169.2,169.2 c 0,0 0,0 0,0 0,0 0,0 0,0 l -1.82993,-8.01745 c 0.23992,-0.0548 0.48218,-0.0987 0.72604,-0.13176 0.24387,-0.033 0.48909,-0.0551 0.73494,-0.0661 z"
           clip-path="url(#p32761aea54)"
           style="fill:#1f77b4"
           id="path35" />
      </g>
      <g
         id="patch_12">
        <path
           d="m 169.2,169.2 c 0,0 0,0 0,0 0,0 0,0 0,0 l -3.26741,-7.64448 c 0.22876,-0.0978 0.4618,-0.18523 0.6984,-0.26211 0.23661,-0.0769 0.47654,-0.1431 0.71909,-0.19846 z"
           clip-path="url(#p32761aea54)"
           style="fill:#1f77b4"
           id="path38" />
      </g>
      <g
         id="patch_13">
        <path
           d="m 169.2,169.2 c 0,0 0,0 0,0 0,0 0,0 0,0 l -3.03358,-4.59568 c 0.13752,-0.0908 0.27906,-0.17534 0.42417,-0.25342 0.1451,-0.0781 0.29365,-0.14963 0.44517,-0.21439 z"
           clip-path="url(#p32761aea54)"
           style="fill:#1f77b4"
           id="path41" />
      </g>
      <g
         id="patch_14">
        <path
           d="m 169.2,169.2 c 0,0 0,0 0,0 0,0 0,0 0,0 l -4.4256,-4.62882 c 0.13852,-0.13243 0.28291,-0.25858 0.43274,-0.37807 0.14983,-0.11949 0.30495,-0.23219 0.46489,-0.33776 z"
           clip-path="url(#p32761aea54)"
           style="fill:#1f77b4"
           id="path44" />
      </g>
      <g
         id="patch_15">
        <path
           d="m 169.2,169.2 c 0,0 0,0 0,0 0,0 0,0 0,0 l -5.49682,-3.99367 c 0.11951,-0.16449 0.24635,-0.32354 0.38012,-0.47666 0.13378,-0.15311 0.27436,-0.30015 0.42132,-0.44066 z"
           clip-path="url(#p32761aea54)"
           style="fill:#1f77b4"
           id="path47" />
      </g>
      <g
         id="patch_16">
        <path
           d="m 169.2,169.2 c 0,0 0,0 0,0 0,0 0,0 0,0 l -9.8445,-4.74086 c 0.14187,-0.2946 0.29689,-0.58268 0.4646,-0.86337 0.1677,-0.2807 0.34792,-0.55372 0.54012,-0.81825 z"
           clip-path="url(#p32761aea54)"
           style="fill:#1f77b4"
           id="path50" />
      </g>
      <g
         id="patch_17">
        <path
           d="m 169.2,169.2 c 0,0 0,0 0,0 0,0 0,0 0,0 l -9.16814,-2.53025 c 0.0757,-0.27435 0.16371,-0.54517 0.26372,-0.81164 0.1,-0.26646 0.21192,-0.5283 0.33541,-0.78473 z"
           clip-path="url(#p32761aea54)"
           style="fill:#1f77b4"
           id="path53" />
      </g>
      <g
         id="patch_18">
        <path
           d="m 169.2,169.2 c 0,0 0,0 0,0 0,0 0,0 0,0 l -11.65907,-1.04934 c 0.0314,-0.34889 0.0785,-0.6962 0.141,-1.04088 0.0626,-0.34468 0.14054,-0.68638 0.23373,-1.02406 z"
           clip-path="url(#p32761aea54)"
           style="fill:#1f77b4"
           id="path56" />
      </g>
      <g
         id="patch_19">
        <path
           d="m 169.2,169.2 c 0,0 0,0 0,0 0,0 0,0 0,0 l -16.29636,1.4667 c -0.0439,-0.48767 -0.0659,-0.97706 -0.0659,-1.4667 0,-0.48964 0.022,-0.97903 0.0659,-1.4667 z"
           clip-path="url(#p32761aea54)"
           style="fill:#1f77b4"
           id="path59" />
      </g>
      <g
         id="patch_20">
        <path
           d="m 169.2,169.2 c 0,0 0,0 0,0 0,0 0,0 0,0 l -12.18226,3.36209 c -0.10061,-0.36456 -0.1848,-0.73344 -0.25233,-1.10555 -0.0675,-0.3721 -0.11832,-0.74705 -0.15222,-1.12371 z"
           clip-path="url(#p32761aea54)"
           style="fill:#1f77b4"
           id="path62" />
      </g>
      <g
         id="patch_21">
        <path
           d="m 169.2,169.2 c 0,0 0,0 0,0 0,0 0,0 0,0 l -11.07581,5.33383 c -0.15961,-0.33145 -0.30427,-0.66989 -0.43353,-1.0143 -0.12926,-0.34442 -0.243,-0.69446 -0.34087,-1.04908 z"
           clip-path="url(#p32761aea54)"
           style="fill:#1f77b4"
           id="path65" />
      </g>
      <g
         id="patch_22">
        <path
           d="m 169.2,169.2 c 0,0 0,0 0,0 0,0 0,0 0,0 l -15.05717,10.93967 c -0.32737,-0.45058 -0.63434,-0.91564 -0.92001,-1.39375 -0.28566,-0.47812 -0.54971,-0.96882 -0.79137,-1.47061 z"
           clip-path="url(#p32761aea54)"
           style="fill:#1f77b4"
           id="path68" />
      </g>
      <g
         id="patch_23">
        <path
           d="m 169.2,169.2 c 0,0 0,0 0,0 0,0 0,0 0,0 l -13.08677,13.68769 c -0.4096,-0.39162 -0.80142,-0.80143 -1.17427,-1.22819 -0.37285,-0.42677 -0.72636,-0.87005 -1.05945,-1.32851 z"
           clip-path="url(#p32761aea54)"
           style="fill:#1f77b4"
           id="path71" />
      </g>
      <g
         id="patch_24">
        <path
           d="m 169.2,169.2 c 0,0 0,0 0,0 0,0 0,0 0,0 l -10.82514,16.39939 c -0.49075,-0.32394 -0.96672,-0.66975 -1.42645,-1.03638 -0.45974,-0.36663 -0.90279,-0.75371 -1.32781,-1.16007 z"
           clip-path="url(#p32761aea54)"
           style="fill:#1f77b4"
           id="path74" />
      </g>
      <g
         id="patch_25">
        <path
           d="m 169.2,169.2 c 0,0 0,0 0,0 0,0 0,0 0,0 l -5.16843,12.09215 c -0.36186,-0.15466 -0.71659,-0.32549 -1.06313,-0.51197 -0.34654,-0.18648 -0.68453,-0.38842 -1.01295,-0.60521 z"
           clip-path="url(#p32761aea54)"
           style="fill:#1f77b4"
           id="path77" />
      </g>
      <g
         id="patch_26">
        <path
           d="m 169.2,169.2 c 0,0 0,0 0,0 0,0 0,0 0,0 l -2.71182,11.88126 c -0.35555,-0.0811 -0.70727,-0.17822 -1.05411,-0.29092 -0.34684,-0.11269 -0.68845,-0.2409 -1.02379,-0.38423 z"
           clip-path="url(#p32761aea54)"
           style="fill:#1f77b4"
           id="path80" />
      </g>
      <g
         id="patch_27">
        <path
           d="m 169.2,169.2 c 0,0 0,0 0,0 0,0 0,0 0,0 l -0.74745,16.64317 c -0.49804,-0.0224 -0.99483,-0.0671 -1.48887,-0.134 -0.49403,-0.0669 -0.98482,-0.15599 -1.47087,-0.26692 z"
           clip-path="url(#p32761aea54)"
           style="fill:#1f77b4"
           id="path83" />
      </g>
      <g
         id="patch_28">
        <path
           d="m 169.2,169.2 c 0,0 0,0 0,0 0,0 0,0 0,0 l 3.72621,27.508 c -0.82317,0.11151 -1.65094,0.18601 -2.4808,0.22328 -0.82985,0.0373 -1.66097,0.0373 -2.49082,0 z"
           clip-path="url(#p32761aea54)"
           style="fill:#1f77b4"
           id="path86" />
      </g>
      <g
         id="patch_29">
        <path
           d="m 169.2,169.2 c 0,0 0,0 0,0 0,0 0,0 0,0 l 10.62773,32.7088 c -0.97881,0.31804 -1.9714,0.59197 -2.97478,0.82099 -1.00337,0.22901 -2.01652,0.41287 -3.03639,0.55102 z"
           clip-path="url(#p32761aea54)"
           style="fill:#1f77b4"
           id="path89" />
      </g>
      <g
         id="patch_30">
        <path
           d="m 169.2,169.2 c 0,0 0,0 0,0 0,0 0,0 0,0 l 10.73913,19.95665 c -0.5972,0.32137 -1.20853,0.61577 -1.83213,0.88231 -0.62361,0.26654 -1.25886,0.50496 -1.90385,0.71452 z"
           clip-path="url(#p32761aea54)"
           style="fill:#1f77b4"
           id="path92" />
      </g>
      <g
         id="patch_31">
        <path
           d="m 169.2,169.2 c 0,0 0,0 0,0 0,0 0,0 0,0 l 16.49916,20.6893 c -0.61912,0.49373 -1.2601,0.95943 -1.92099,1.39568 -0.66089,0.43625 -1.34104,0.84262 -2.03837,1.21787 z"
           clip-path="url(#p32761aea54)"
           style="fill:#1f77b4"
           id="path95" />
      </g>
      <g
         id="patch_32">
        <path
           d="m 169.2,169.2 c 0,0 0,0 0,0 0,0 0,0 0,0 l 25.16886,21.98937 c -0.65803,0.75318 -1.34954,1.47644 -2.07243,2.1676 -0.7229,0.69116 -1.47646,1.34952 -2.2584,1.9731 z"
           clip-path="url(#p32761aea54)"
           style="fill:#1f77b4"
           id="path98" />
      </g>
      <g
         id="patch_33">
        <path
           d="m 169.2,169.2 c 0,0 0,0 0,0 0,0 0,0 0,0 l 33.66295,20.11268 c -0.60187,1.00736 -1.24866,1.9872 -1.9384,2.93655 -0.68975,0.94936 -1.42177,1.86727 -2.19384,2.75098 z"
           clip-path="url(#p32761aea54)"
           style="fill:#1f77b4"
           id="path101" />
      </g>
      <g
         id="patch_34">
        <path
           d="m 169.2,169.2 c 0,0 0,0 0,0 0,0 0,0 0,0 l 49.3066,18.50508 c -0.55376,1.47549 -1.17348,2.92539 -1.85728,4.34531 -0.68379,1.41992 -1.43098,2.80843 -2.23931,4.16134 z"
           clip-path="url(#p32761aea54)"
           style="fill:#1f77b4"
           id="path104" />
      </g>
      <g
         id="patch_35">
        <path
           d="m 169.2,169.2 c 0,0 0,0 0,0 0,0 0,0 0,0 l 91.6598,16.6338 c -0.49777,2.74292 -1.11841,5.4621 -1.86004,8.14936 -0.74164,2.68725 -1.60352,5.33986 -2.58305,7.94982 z"
           clip-path="url(#p32761aea54)"
           style="fill:#1f77b4"
           id="path107" />
      </g>
      <g
         id="patch_36">
        <path
           d="m 169.2,169.2 c 0,0 0,0 0,0 0,0 0,0 0,0 h 146.35023 c 0,4.37952 -0.19658,8.75684 -0.58916,13.11873 -0.39258,4.3619 -0.98075,8.70397 -1.76274,13.01311 z"
           clip-path="url(#p32761aea54)"
           style="fill:#1f77b4"
           id="path110" />
      </g>
      <g
         id="LineCollection_1">
        <path
           d="m 169.2,169.2 159.82288,20.58319"
           clip-path="url(#p32761aea54)"
           style="fill:none;stroke:#ff0000;stroke-width:1.5;stroke-dasharray:5.55, 2.4;stroke-dashoffset:0;stroke-opacity:0.5"
           id="path113" />
      </g>
      <g
         id="line2d_1">
        <defs
           id="defs117">
          <path
             id="m8b54ce65ca"
             d="M -3,0 H 3 M 0,3 v -6"
             style="stroke:#000000" />
        </defs>
        <g
           clip-path="url(#p32761aea54)"
           id="g121">
          <use
             xlink:href="#m8b54ce65ca"
             x="169.2"
             y="169.2"
             style="stroke:#000000"
             id="use119"
             width="100%"
             height="100%" />
        </g>
      </g>
    </g>
  </g>
  <defs
     id="defs129">
    <clipPath
       id="p32761aea54">
      <path
         d="m 338.4,169.2 c 0,-22.21914 -4.37669,-44.22223 -12.87958,-64.75004 C 317.01752,83.922154 304.55377,65.268837 288.84247,49.557533 273.13116,33.846228 254.47785,21.38248 233.95004,12.879583 213.42223,4.376686 191.41914,0 169.2,0 146.98086,0 124.97777,4.376686 104.44996,12.879583 83.922154,21.38248 65.268837,33.846228 49.557533,49.557533 33.846228,65.268837 21.38248,83.922154 12.879583,104.44996 4.376686,124.97777 0,146.98086 0,169.2 c 0,22.21914 4.376686,44.22223 12.879583,64.75004 8.502897,20.52781 20.966645,39.18112 36.67795,54.89243 15.711304,15.7113 34.364621,28.17505 54.892427,36.67795 20.52781,8.50289 42.5309,12.87958 64.75004,12.87958 22.21914,0 44.22223,-4.37669 64.75004,-12.87958 20.52781,-8.5029 39.18112,-20.96665 54.89243,-36.67795 15.7113,-15.71131 28.17505,-34.36462 36.67795,-54.89243 C 334.02331,213.42223 338.4,191.41914 338.4,169.2 m -169.2,0 c 0,0 0,0 0,0 0,0 0,0 0,0 0,0 0,0 0,0 0,0 0,0 0,0 0,0 0,0 0,0 0,0 0,0 0,0 0,0 0,0 0,0 0,0 0,0 0,0 0,0 0,0 0,0 0,0 0,0 0,0 0,0 0,0 0,0 0,0 0,0 0,0 0,0 0,0 0,0 0,0 0,0 0,0 0,0 0,0 0,0 0,0 0,0 0,0 m 169.2,0 z"
         id="path126" />
    </clipPath>
  </defs>
</svg>
