<?xml version="1.0" encoding="utf-8" standalone="no"?>
<!DOCTYPE svg PUBLIC "-//W3C//DTD SVG 1.1//EN"
  "http://www.w3.org/Graphics/SVG/1.1/DTD/svg11.dtd">
<svg xmlns:xlink="http://www.w3.org/1999/xlink" width="648pt" height="216pt" viewBox="0 0 648 216" xmlns="http://www.w3.org/2000/svg" version="1.1">
 <metadata>
  <rdf:RDF xmlns:dc="http://purl.org/dc/elements/1.1/" xmlns:cc="http://creativecommons.org/ns#" xmlns:rdf="http://www.w3.org/1999/02/22-rdf-syntax-ns#">
   <cc:Work>
    <dc:type rdf:resource="http://purl.org/dc/dcmitype/StillImage"/>
    <dc:date>2023-05-08T15:59:40.606641</dc:date>
    <dc:format>image/svg+xml</dc:format>
    <dc:creator>
     <cc:Agent>
      <dc:title>Matplotlib v3.6.2, https://matplotlib.org/</dc:title>
     </cc:Agent>
    </dc:creator>
   </cc:Work>
  </rdf:RDF>
 </metadata>
 <defs>
  <style type="text/css">*{stroke-linejoin: round; stroke-linecap: butt}</style>
 </defs>
 <g id="figure_1">
  <g id="patch_1">
   <path d="M 0 216 
L 648 216 
L 648 0 
L 0 0 
L 0 216 
z
" style="fill: none"/>
  </g>
  <g id="axes_1">
   <g id="patch_2">
    <path d="M 180.047059 127.92 
C 180.047059 119.049802 178.299823 110.265855 174.905345 102.07086 
C 171.510867 93.875865 166.535161 86.429194 160.262983 80.157017 
C 153.990806 73.884839 146.544135 68.909133 138.34914 65.514655 
C 130.154145 62.120177 121.370198 60.372941 112.5 60.372941 
C 103.629802 60.372941 94.845855 62.120177 86.65086 65.514655 
C 78.455865 68.909133 71.009194 73.884839 64.737017 80.157017 
C 58.464839 86.429194 53.489133 93.875865 50.094655 102.07086 
C 46.700177 110.265855 44.952941 119.049802 44.952941 127.92 
C 44.952941 136.790198 46.700177 145.574145 50.094655 153.76914 
C 53.489133 161.964135 58.464839 169.410806 64.737017 175.682983 
C 71.009194 181.955161 78.455865 186.930867 86.65086 190.325345 
C 94.845855 193.719823 103.629802 195.467059 112.5 195.467059 
C 121.370198 195.467059 130.154145 193.719823 138.34914 190.325345 
C 146.544135 186.930867 153.990806 181.955161 160.262983 175.682983 
C 166.535161 169.410806 171.510867 161.964135 174.905345 153.76914 
C 178.299823 145.574145 180.047059 136.790198 180.047059 127.92 
M 112.5 127.92 
C 112.5 127.92 112.5 127.92 112.5 127.92 
C 112.5 127.92 112.5 127.92 112.5 127.92 
C 112.5 127.92 112.5 127.92 112.5 127.92 
C 112.5 127.92 112.5 127.92 112.5 127.92 
C 112.5 127.92 112.5 127.92 112.5 127.92 
C 112.5 127.92 112.5 127.92 112.5 127.92 
C 112.5 127.92 112.5 127.92 112.5 127.92 
C 112.5 127.92 112.5 127.92 112.5 127.92 
C 112.5 127.92 112.5 127.92 112.5 127.92 
C 112.5 127.92 112.5 127.92 112.5 127.92 
C 112.5 127.92 112.5 127.92 112.5 127.92 
C 112.5 127.92 112.5 127.92 112.5 127.92 
C 112.5 127.92 112.5 127.92 112.5 127.92 
C 112.5 127.92 112.5 127.92 112.5 127.92 
C 112.5 127.92 112.5 127.92 112.5 127.92 
C 112.5 127.92 112.5 127.92 112.5 127.92 
M 180.047059 127.92 
L 180.047059 127.92 
z
" style="fill: none"/>
   </g>
   <g id="patch_3">
    <path d="M 112.5 127.92 
C 112.5 127.92 112.5 127.92 112.5 127.92 
C 112.5 127.92 112.5 127.92 112.5 127.92 
L 134.012176 124.016116 
C 134.128999 124.659866 134.216868 125.308537 134.275516 125.960168 
C 134.334164 126.611799 134.363532 127.265735 134.363532 127.92 
z
" clip-path="url(#p6528d2364d)" style="fill: #1f77b4"/>
   </g>
   <g id="patch_4">
    <path d="M 112.5 127.92 
C 112.5 127.92 112.5 127.92 112.5 127.92 
C 112.5 127.92 112.5 127.92 112.5 127.92 
L 136.538979 118.89802 
C 136.808961 119.617386 137.046517 120.348507 137.250929 121.089178 
C 137.455341 121.829848 137.626404 122.579321 137.7636 123.335333 
z
" clip-path="url(#p6528d2364d)" style="fill: #1f77b4"/>
   </g>
   <g id="patch_5">
    <path d="M 112.5 127.92 
C 112.5 127.92 112.5 127.92 112.5 127.92 
C 112.5 127.92 112.5 127.92 112.5 127.92 
L 122.11084 122.17779 
C 122.282675 122.465394 122.441514 122.760567 122.586877 123.062416 
C 122.73224 123.364265 122.863981 123.672487 122.981701 123.986152 
z
" clip-path="url(#p6528d2364d)" style="fill: #1f77b4"/>
   </g>
   <g id="patch_6">
    <path d="M 112.5 127.92 
C 112.5 127.92 112.5 127.92 112.5 127.92 
C 112.5 127.92 112.5 127.92 112.5 127.92 
L 115.567218 125.240252 
C 115.64741 125.332038 115.72344 125.427378 115.795081 125.525983 
C 115.866722 125.624588 115.933901 125.72636 115.996414 125.83099 
z
" clip-path="url(#p6528d2364d)" style="fill: #1f77b4"/>
   </g>
   <g id="patch_7">
    <path d="M 112.5 127.92 
C 112.5 127.92 112.5 127.92 112.5 127.92 
C 112.5 127.92 112.5 127.92 112.5 127.92 
L 113.947911 126.104376 
C 114.002244 126.147705 114.054604 126.193451 114.104834 126.241475 
C 114.155064 126.2895 114.203112 126.339755 114.248835 126.392089 
z
" clip-path="url(#p6528d2364d)" style="fill: #1f77b4"/>
   </g>
   <g id="patch_8">
    <path d="M 112.5 127.92 
C 112.5 127.92 112.5 127.92 112.5 127.92 
C 112.5 127.92 112.5 127.92 112.5 127.92 
L 112.81411 127.336285 
C 112.831578 127.345685 112.848615 127.355864 112.865169 127.366792 
C 112.881724 127.37772 112.89778 127.389385 112.913289 127.401753 
z
" clip-path="url(#p6528d2364d)" style="fill: #1f77b4"/>
   </g>
   <g id="patch_9">
    <path d="M 112.5 127.92 
C 112.5 127.92 112.5 127.92 112.5 127.92 
C 112.5 127.92 112.5 127.92 112.5 127.92 
L 112.826518 126.91508 
C 112.856591 126.924851 112.886209 126.935967 112.915284 126.948394 
C 112.94436 126.960822 112.972862 126.974548 113.000707 126.989531 
z
" clip-path="url(#p6528d2364d)" style="fill: #1f77b4"/>
   </g>
   <g id="patch_10">
    <path d="M 112.5 127.92 
C 112.5 127.92 112.5 127.92 112.5 127.92 
C 112.5 127.92 112.5 127.92 112.5 127.92 
L 112.507737 127.862881 
C 112.509447 127.863112 112.511145 127.863421 112.512826 127.863804 
C 112.514508 127.864188 112.516172 127.864647 112.517812 127.86518 
z
" clip-path="url(#p6528d2364d)" style="fill: #1f77b4"/>
   </g>
   <g id="patch_11">
    <path d="M 112.5 127.92 
C 112.5 127.92 112.5 127.92 112.5 127.92 
C 112.5 127.92 112.5 127.92 112.5 127.92 
L 112.344891 124.466233 
C 112.448245 124.461591 112.551755 124.461591 112.655109 124.466233 
C 112.758463 124.470875 112.861556 124.480153 112.964078 124.494041 
z
" clip-path="url(#p6528d2364d)" style="fill: #1f77b4"/>
   </g>
   <g id="patch_12">
    <path d="M 112.5 127.92 
C 112.5 127.92 112.5 127.92 112.5 127.92 
C 112.5 127.92 112.5 127.92 112.5 127.92 
L 112.301743 127.05138 
C 112.327736 127.045447 112.353983 127.040684 112.380404 127.037105 
C 112.406824 127.033526 112.433392 127.031135 112.460027 127.029939 
z
" clip-path="url(#p6528d2364d)" style="fill: #1f77b4"/>
   </g>
   <g id="patch_13">
    <path d="M 112.5 127.92 
C 112.5 127.92 112.5 127.92 112.5 127.92 
C 112.5 127.92 112.5 127.92 112.5 127.92 
L 112.011573 126.777269 
C 112.04577 126.762653 112.080605 126.749579 112.115973 126.738087 
C 112.151342 126.726595 112.187209 126.716697 112.223465 126.708422 
z
" clip-path="url(#p6528d2364d)" style="fill: #1f77b4"/>
   </g>
   <g id="patch_14">
    <path d="M 112.5 127.92 
C 112.5 127.92 112.5 127.92 112.5 127.92 
C 112.5 127.92 112.5 127.92 112.5 127.92 
L 111.577035 126.521768 
C 111.618877 126.494149 111.661938 126.468421 111.706087 126.444663 
C 111.750237 126.420906 111.79543 126.399141 111.841532 126.379437 
z
" clip-path="url(#p6528d2364d)" style="fill: #1f77b4"/>
   </g>
   <g id="patch_15">
    <path d="M 112.5 127.92 
C 112.5 127.92 112.5 127.92 112.5 127.92 
C 112.5 127.92 112.5 127.92 112.5 127.92 
L 112.035719 127.4344 
C 112.05025 127.420506 112.065398 127.407272 112.081117 127.394737 
C 112.096835 127.382202 112.113108 127.370379 112.129887 127.359303 
z
" clip-path="url(#p6528d2364d)" style="fill: #1f77b4"/>
   </g>
   <g id="patch_16">
    <path d="M 112.5 127.92 
C 112.5 127.92 112.5 127.92 112.5 127.92 
C 112.5 127.92 112.5 127.92 112.5 127.92 
L 111.757575 127.380596 
C 111.773716 127.358379 111.790847 127.336898 111.808915 127.316217 
C 111.826983 127.295537 111.845971 127.275678 111.86582 127.2567 
z
" clip-path="url(#p6528d2364d)" style="fill: #1f77b4"/>
   </g>
   <g id="patch_17">
    <path d="M 112.5 127.92 
C 112.5 127.92 112.5 127.92 112.5 127.92 
C 112.5 127.92 112.5 127.92 112.5 127.92 
L 110.652827 127.030448 
C 110.679446 126.975172 110.708534 126.921118 110.740002 126.86845 
C 110.771469 126.815782 110.805285 126.764553 110.841347 126.714918 
z
" clip-path="url(#p6528d2364d)" style="fill: #1f77b4"/>
   </g>
   <g id="patch_18">
    <path d="M 112.5 127.92 
C 112.5 127.92 112.5 127.92 112.5 127.92 
C 112.5 127.92 112.5 127.92 112.5 127.92 
L 110.131987 127.26647 
C 110.151544 127.195607 110.174271 127.125658 110.200102 127.056834 
C 110.225932 126.988009 110.254838 126.920379 110.286734 126.854147 
z
" clip-path="url(#p6528d2364d)" style="fill: #1f77b4"/>
   </g>
   <g id="patch_19">
    <path d="M 112.5 127.92 
C 112.5 127.92 112.5 127.92 112.5 127.92 
C 112.5 127.92 112.5 127.92 112.5 127.92 
L 106.182709 127.351434 
C 106.199723 127.162389 106.225215 126.974203 106.259107 126.787445 
C 106.292998 126.600686 106.335256 126.415543 106.385752 126.232575 
z
" clip-path="url(#p6528d2364d)" style="fill: #1f77b4"/>
   </g>
   <g id="patch_20">
    <path d="M 112.5 127.92 
C 112.5 127.92 112.5 127.92 112.5 127.92 
C 112.5 127.92 112.5 127.92 112.5 127.92 
L 100.798289 128.973173 
C 100.766773 128.623 100.750991 128.271589 100.750991 127.92 
C 100.750991 127.568411 100.766773 127.217 100.798289 126.866827 
z
" clip-path="url(#p6528d2364d)" style="fill: #1f77b4"/>
   </g>
   <g id="patch_21">
    <path d="M 112.5 127.92 
C 112.5 127.92 112.5 127.92 112.5 127.92 
C 112.5 127.92 112.5 127.92 112.5 127.92 
L 99.190167 131.59328 
C 99.080245 131.194984 98.988256 130.791955 98.914479 130.385409 
C 98.840701 129.978863 98.78521 129.56921 98.748172 129.157687 
z
" clip-path="url(#p6528d2364d)" style="fill: #1f77b4"/>
   </g>
   <g id="patch_22">
    <path d="M 112.5 127.92 
C 112.5 127.92 112.5 127.92 112.5 127.92 
C 112.5 127.92 112.5 127.92 112.5 127.92 
L 98.838363 134.499098 
C 98.641483 134.090274 98.463054 133.672819 98.303614 133.247993 
C 98.144175 132.823166 98.003884 132.391397 97.883167 131.953989 
z
" clip-path="url(#p6528d2364d)" style="fill: #1f77b4"/>
   </g>
   <g id="patch_23">
    <path d="M 112.5 127.92 
C 112.5 127.92 112.5 127.92 112.5 127.92 
C 112.5 127.92 112.5 127.92 112.5 127.92 
L 94.157233 141.2468 
C 93.758429 140.697894 93.384465 140.131363 93.036471 139.548917 
C 92.688476 138.966472 92.366801 138.3687 92.072417 137.757406 
z
" clip-path="url(#p6528d2364d)" style="fill: #1f77b4"/>
   </g>
   <g id="patch_24">
    <path d="M 112.5 127.92 
C 112.5 127.92 112.5 127.92 112.5 127.92 
C 112.5 127.92 112.5 127.92 112.5 127.92 
L 97.588631 143.516069 
C 97.121919 143.069847 96.675473 142.602901 96.250639 142.116639 
C 95.825805 141.630378 95.423012 141.125292 95.043477 140.602906 
z
" clip-path="url(#p6528d2364d)" style="fill: #1f77b4"/>
   </g>
   <g id="patch_25">
    <path d="M 112.5 127.92 
C 112.5 127.92 112.5 127.92 112.5 127.92 
C 112.5 127.92 112.5 127.92 112.5 127.92 
L 99.666011 147.362662 
C 99.084191 146.978605 98.519902 146.568626 97.97485 146.133962 
C 97.429798 145.699297 96.904532 145.240386 96.400637 144.758613 
z
" clip-path="url(#p6528d2364d)" style="fill: #1f77b4"/>
   </g>
   <g id="patch_26">
    <path d="M 112.5 127.92 
C 112.5 127.92 112.5 127.92 112.5 127.92 
C 112.5 127.92 112.5 127.92 112.5 127.92 
L 105.76068 143.687424 
C 105.28884 143.48575 104.826291 143.262998 104.374429 143.019841 
C 103.922567 142.776683 103.481848 142.513366 103.053601 142.230683 
z
" clip-path="url(#p6528d2364d)" style="fill: #1f77b4"/>
   </g>
   <g id="patch_27">
    <path d="M 112.5 127.92 
C 112.5 127.92 112.5 127.92 112.5 127.92 
C 112.5 127.92 112.5 127.92 112.5 127.92 
L 109.31184 141.88824 
C 108.893842 141.792834 108.480336 141.678714 108.072572 141.546223 
C 107.664808 141.413733 107.263196 141.263005 106.86895 141.094496 
z
" clip-path="url(#p6528d2364d)" style="fill: #1f77b4"/>
   </g>
   <g id="patch_28">
    <path d="M 112.5 127.92 
C 112.5 127.92 112.5 127.92 112.5 127.92 
C 112.5 127.92 112.5 127.92 112.5 127.92 
L 111.579339 148.42012 
C 110.965873 148.392569 110.353954 148.337495 109.745428 148.255065 
C 109.136903 148.172634 108.532383 148.06293 107.933696 147.926284 
z
" clip-path="url(#p6528d2364d)" style="fill: #1f77b4"/>
   </g>
   <g id="patch_29">
    <path d="M 112.5 127.92 
C 112.5 127.92 112.5 127.92 112.5 127.92 
C 112.5 127.92 112.5 127.92 112.5 127.92 
L 117.272568 163.152509 
C 116.218236 163.295327 115.158026 163.390748 114.095137 163.438482 
C 113.032248 163.486217 111.967752 163.486217 110.904863 163.438482 
z
" clip-path="url(#p6528d2364d)" style="fill: #1f77b4"/>
   </g>
   <g id="patch_30">
    <path d="M 112.5 127.92 
C 112.5 127.92 112.5 127.92 112.5 127.92 
C 112.5 127.92 112.5 127.92 112.5 127.92 
L 123.887015 162.965628 
C 122.838276 163.306384 121.77477 163.599893 120.699708 163.845269 
C 119.624646 164.090645 118.539112 164.28764 117.446382 164.43566 
z
" clip-path="url(#p6528d2364d)" style="fill: #1f77b4"/>
   </g>
   <g id="patch_31">
    <path d="M 112.5 127.92 
C 112.5 127.92 112.5 127.92 112.5 127.92 
C 112.5 127.92 112.5 127.92 112.5 127.92 
L 123.586559 148.522279 
C 122.970037 148.854043 122.338933 149.157967 121.695154 149.433131 
C 121.051374 149.708296 120.395568 149.954424 119.729714 150.170773 
z
" clip-path="url(#p6528d2364d)" style="fill: #1f77b4"/>
   </g>
   <g id="patch_32">
    <path d="M 112.5 127.92 
C 112.5 127.92 112.5 127.92 112.5 127.92 
C 112.5 127.92 112.5 127.92 112.5 127.92 
L 129.237518 148.908184 
C 128.609448 149.409054 127.959211 149.881478 127.288772 150.324032 
C 126.618332 150.766585 125.928365 151.178821 125.220955 151.559495 
z
" clip-path="url(#p6528d2364d)" style="fill: #1f77b4"/>
   </g>
   <g id="patch_33">
    <path d="M 112.5 127.92 
C 112.5 127.92 112.5 127.92 112.5 127.92 
C 112.5 127.92 112.5 127.92 112.5 127.92 
L 136.232271 148.654261 
C 135.611799 149.364448 134.959761 150.046425 134.278127 150.698135 
C 133.596492 151.349844 132.885948 151.970628 132.148638 152.558613 
z
" clip-path="url(#p6528d2364d)" style="fill: #1f77b4"/>
   </g>
   <g id="patch_34">
    <path d="M 112.5 127.92 
C 112.5 127.92 112.5 127.92 112.5 127.92 
C 112.5 127.92 112.5 127.92 112.5 127.92 
L 141.680579 145.354584 
C 141.15885 146.227812 140.598187 147.07718 140.000283 147.900125 
C 139.402378 148.723069 138.767835 149.518761 138.09857 150.284797 
z
" clip-path="url(#p6528d2364d)" style="fill: #1f77b4"/>
   </g>
   <g id="patch_35">
    <path d="M 112.5 127.92 
C 112.5 127.92 112.5 127.92 112.5 127.92 
C 112.5 127.92 112.5 127.92 112.5 127.92 
L 149.924258 141.965559 
C 149.503946 143.085478 149.033575 144.185966 148.514565 145.2637 
C 147.995556 146.341435 147.428431 147.395329 146.814904 148.422201 
z
" clip-path="url(#p6528d2364d)" style="fill: #1f77b4"/>
   </g>
   <g id="patch_36">
    <path d="M 112.5 127.92 
C 112.5 127.92 112.5 127.92 112.5 127.92 
C 112.5 127.92 112.5 127.92 112.5 127.92 
L 175.796714 139.40666 
C 175.452976 141.300811 175.024388 143.178578 174.512244 145.034292 
C 174.0001 146.890005 173.404915 148.721795 172.728488 150.524129 
z
" clip-path="url(#p6528d2364d)" style="fill: #1f77b4"/>
   </g>
   <g id="patch_37">
    <path d="M 112.5 127.92 
C 112.5 127.92 112.5 127.92 112.5 127.92 
C 112.5 127.92 112.5 127.92 112.5 127.92 
L 158.276777 127.92 
C 158.276777 129.289868 158.215287 130.659046 158.092493 132.023399 
C 157.969699 133.387752 157.785725 134.745906 157.541125 136.093759 
z
" clip-path="url(#p6528d2364d)" style="fill: #1f77b4"/>
   </g>
   <g id="matplotlib.axis_1">
    <g id="xtick_1">
     <g id="line2d_1">
      <path d="M 112.5 127.92 
L 180.047059 127.92 
" clip-path="url(#p6528d2364d)" style="fill: none; stroke: #b0b0b0; stroke-width: 0.8; stroke-linecap: square"/>
     </g>
     <g id="text_1">
      <!-- E -->
      <g transform="translate(190.887684 130.679375) scale(0.1 -0.1)">
       <defs>
        <path id="DejaVuSans-45" d="M 628 4666 
L 3578 4666 
L 3578 4134 
L 1259 4134 
L 1259 2753 
L 3481 2753 
L 3481 2222 
L 1259 2222 
L 1259 531 
L 3634 531 
L 3634 0 
L 628 0 
L 628 4666 
z
" transform="scale(0.015625)"/>
       </defs>
       <use xlink:href="#DejaVuSans-45"/>
      </g>
     </g>
    </g>
    <g id="xtick_2">
     <g id="line2d_2">
      <path d="M 112.5 127.92 
L 160.262983 80.157017 
" clip-path="url(#p6528d2364d)" style="fill: none; stroke: #b0b0b0; stroke-width: 0.8; stroke-linecap: square"/>
     </g>
     <g id="text_2">
      <!-- NE -->
      <g transform="translate(163.262478 73.016897) scale(0.1 -0.1)">
       <defs>
        <path id="DejaVuSans-4e" d="M 628 4666 
L 1478 4666 
L 3547 763 
L 3547 4666 
L 4159 4666 
L 4159 0 
L 3309 0 
L 1241 3903 
L 1241 0 
L 628 0 
L 628 4666 
z
" transform="scale(0.015625)"/>
       </defs>
       <use xlink:href="#DejaVuSans-4e"/>
       <use xlink:href="#DejaVuSans-45" x="74.804688"/>
      </g>
     </g>
    </g>
    <g id="xtick_3">
     <g id="line2d_3">
      <path d="M 112.5 127.92 
L 112.5 60.372941 
" clip-path="url(#p6528d2364d)" style="fill: none; stroke: #b0b0b0; stroke-width: 0.8; stroke-linecap: square"/>
     </g>
     <g id="text_3">
      <!-- N -->
      <g transform="translate(108.759375 49.132316) scale(0.1 -0.1)">
       <use xlink:href="#DejaVuSans-4e"/>
      </g>
     </g>
    </g>
    <g id="xtick_4">
     <g id="line2d_4">
      <path d="M 112.5 127.92 
L 64.737017 80.157017 
" clip-path="url(#p6528d2364d)" style="fill: none; stroke: #b0b0b0; stroke-width: 0.8; stroke-linecap: square"/>
     </g>
     <g id="text_4">
      <!-- NW -->
      <g transform="translate(46.153147 73.016897) scale(0.1 -0.1)">
       <defs>
        <path id="DejaVuSans-57" d="M 213 4666 
L 850 4666 
L 1831 722 
L 2809 4666 
L 3519 4666 
L 4500 722 
L 5478 4666 
L 6119 4666 
L 4947 0 
L 4153 0 
L 3169 4050 
L 2175 0 
L 1381 0 
L 213 4666 
z
" transform="scale(0.015625)"/>
       </defs>
       <use xlink:href="#DejaVuSans-4e"/>
       <use xlink:href="#DejaVuSans-57" x="74.804688"/>
      </g>
     </g>
    </g>
    <g id="xtick_5">
     <g id="line2d_5">
      <path d="M 112.5 127.92 
L 44.952941 127.92 
" clip-path="url(#p6528d2364d)" style="fill: none; stroke: #b0b0b0; stroke-width: 0.8; stroke-linecap: square"/>
     </g>
     <g id="text_5">
      <!-- W -->
      <g transform="translate(26.009191 130.679375) scale(0.1 -0.1)">
       <use xlink:href="#DejaVuSans-57"/>
      </g>
     </g>
    </g>
    <g id="xtick_6">
     <g id="line2d_6">
      <path d="M 112.5 127.92 
L 64.737017 175.682983 
" clip-path="url(#p6528d2364d)" style="fill: none; stroke: #b0b0b0; stroke-width: 0.8; stroke-linecap: square"/>
     </g>
     <g id="text_6">
      <!-- SW -->
      <g transform="translate(46.719553 188.341853) scale(0.1 -0.1)">
       <defs>
        <path id="DejaVuSans-53" d="M 3425 4513 
L 3425 3897 
Q 3066 4069 2747 4153 
Q 2428 4238 2131 4238 
Q 1616 4238 1336 4038 
Q 1056 3838 1056 3469 
Q 1056 3159 1242 3001 
Q 1428 2844 1947 2747 
L 2328 2669 
Q 3034 2534 3370 2195 
Q 3706 1856 3706 1288 
Q 3706 609 3251 259 
Q 2797 -91 1919 -91 
Q 1588 -91 1214 -16 
Q 841 59 441 206 
L 441 856 
Q 825 641 1194 531 
Q 1563 422 1919 422 
Q 2459 422 2753 634 
Q 3047 847 3047 1241 
Q 3047 1584 2836 1778 
Q 2625 1972 2144 2069 
L 1759 2144 
Q 1053 2284 737 2584 
Q 422 2884 422 3419 
Q 422 4038 858 4394 
Q 1294 4750 2059 4750 
Q 2388 4750 2728 4690 
Q 3069 4631 3425 4513 
z
" transform="scale(0.015625)"/>
       </defs>
       <use xlink:href="#DejaVuSans-53"/>
       <use xlink:href="#DejaVuSans-57" x="63.476562"/>
      </g>
     </g>
    </g>
    <g id="xtick_7">
     <g id="line2d_7">
      <path d="M 112.5 127.92 
L 112.5 195.467059 
" clip-path="url(#p6528d2364d)" style="fill: none; stroke: #b0b0b0; stroke-width: 0.8; stroke-linecap: square"/>
     </g>
     <g id="text_7">
      <!-- S -->
      <g transform="translate(109.325781 212.226434) scale(0.1 -0.1)">
       <use xlink:href="#DejaVuSans-53"/>
      </g>
     </g>
    </g>
    <g id="xtick_8">
     <g id="line2d_8">
      <path d="M 112.5 127.92 
L 160.262983 175.682983 
" clip-path="url(#p6528d2364d)" style="fill: none; stroke: #b0b0b0; stroke-width: 0.8; stroke-linecap: square"/>
     </g>
     <g id="text_8">
      <!-- SE -->
      <g transform="translate(163.828885 188.341853) scale(0.1 -0.1)">
       <use xlink:href="#DejaVuSans-53"/>
       <use xlink:href="#DejaVuSans-45" x="63.476562"/>
      </g>
     </g>
    </g>
   </g>
   <g id="matplotlib.axis_2"/>
   <g id="LineCollection_1">
    <path d="M 112.5 127.92 
L 176.303578 136.137102 
" clip-path="url(#p6528d2364d)" style="fill: none; stroke-dasharray: 5.55,2.4; stroke-dashoffset: 0; stroke: #ff0000; stroke-opacity: 0.5; stroke-width: 1.5"/>
   </g>
   <g id="patch_38">
    <path d="M 180.047059 127.92 
C 180.047059 119.049802 178.299823 110.265855 174.905345 102.07086 
C 171.510867 93.875865 166.535161 86.429194 160.262983 80.157017 
C 153.990806 73.884839 146.544135 68.909133 138.34914 65.514655 
C 130.154145 62.120177 121.370198 60.372941 112.5 60.372941 
C 103.629802 60.372941 94.845855 62.120177 86.65086 65.514655 
C 78.455865 68.909133 71.009194 73.884839 64.737017 80.157017 
C 58.464839 86.429194 53.489133 93.875865 50.094655 102.07086 
C 46.700177 110.265855 44.952941 119.049802 44.952941 127.92 
C 44.952941 136.790198 46.700177 145.574145 50.094655 153.76914 
C 53.489133 161.964135 58.464839 169.410806 64.737017 175.682983 
C 71.009194 181.955161 78.455865 186.930867 86.65086 190.325345 
C 94.845855 193.719823 103.629802 195.467059 112.5 195.467059 
C 121.370198 195.467059 130.154145 193.719823 138.34914 190.325345 
C 146.544135 186.930867 153.990806 181.955161 160.262983 175.682983 
C 166.535161 169.410806 171.510867 161.964135 174.905345 153.76914 
C 178.299823 145.574145 180.047059 136.790198 180.047059 127.92 
" style="fill: none; stroke: #000000; stroke-width: 0.8; stroke-linejoin: miter; stroke-linecap: square"/>
   </g>
   <g id="text_9">
    <!-- Birmingham to Stratford -->
    <g transform="translate(39.460312 35.533879) scale(0.12 -0.12)">
     <defs>
      <path id="DejaVuSans-42" d="M 1259 2228 
L 1259 519 
L 2272 519 
Q 2781 519 3026 730 
Q 3272 941 3272 1375 
Q 3272 1813 3026 2020 
Q 2781 2228 2272 2228 
L 1259 2228 
z
M 1259 4147 
L 1259 2741 
L 2194 2741 
Q 2656 2741 2882 2914 
Q 3109 3088 3109 3444 
Q 3109 3797 2882 3972 
Q 2656 4147 2194 4147 
L 1259 4147 
z
M 628 4666 
L 2241 4666 
Q 2963 4666 3353 4366 
Q 3744 4066 3744 3513 
Q 3744 3084 3544 2831 
Q 3344 2578 2956 2516 
Q 3422 2416 3680 2098 
Q 3938 1781 3938 1306 
Q 3938 681 3513 340 
Q 3088 0 2303 0 
L 628 0 
L 628 4666 
z
" transform="scale(0.015625)"/>
      <path id="DejaVuSans-69" d="M 603 3500 
L 1178 3500 
L 1178 0 
L 603 0 
L 603 3500 
z
M 603 4863 
L 1178 4863 
L 1178 4134 
L 603 4134 
L 603 4863 
z
" transform="scale(0.015625)"/>
      <path id="DejaVuSans-72" d="M 2631 2963 
Q 2534 3019 2420 3045 
Q 2306 3072 2169 3072 
Q 1681 3072 1420 2755 
Q 1159 2438 1159 1844 
L 1159 0 
L 581 0 
L 581 3500 
L 1159 3500 
L 1159 2956 
Q 1341 3275 1631 3429 
Q 1922 3584 2338 3584 
Q 2397 3584 2469 3576 
Q 2541 3569 2628 3553 
L 2631 2963 
z
" transform="scale(0.015625)"/>
      <path id="DejaVuSans-6d" d="M 3328 2828 
Q 3544 3216 3844 3400 
Q 4144 3584 4550 3584 
Q 5097 3584 5394 3201 
Q 5691 2819 5691 2113 
L 5691 0 
L 5113 0 
L 5113 2094 
Q 5113 2597 4934 2840 
Q 4756 3084 4391 3084 
Q 3944 3084 3684 2787 
Q 3425 2491 3425 1978 
L 3425 0 
L 2847 0 
L 2847 2094 
Q 2847 2600 2669 2842 
Q 2491 3084 2119 3084 
Q 1678 3084 1418 2786 
Q 1159 2488 1159 1978 
L 1159 0 
L 581 0 
L 581 3500 
L 1159 3500 
L 1159 2956 
Q 1356 3278 1631 3431 
Q 1906 3584 2284 3584 
Q 2666 3584 2933 3390 
Q 3200 3197 3328 2828 
z
" transform="scale(0.015625)"/>
      <path id="DejaVuSans-6e" d="M 3513 2113 
L 3513 0 
L 2938 0 
L 2938 2094 
Q 2938 2591 2744 2837 
Q 2550 3084 2163 3084 
Q 1697 3084 1428 2787 
Q 1159 2491 1159 1978 
L 1159 0 
L 581 0 
L 581 3500 
L 1159 3500 
L 1159 2956 
Q 1366 3272 1645 3428 
Q 1925 3584 2291 3584 
Q 2894 3584 3203 3211 
Q 3513 2838 3513 2113 
z
" transform="scale(0.015625)"/>
      <path id="DejaVuSans-67" d="M 2906 1791 
Q 2906 2416 2648 2759 
Q 2391 3103 1925 3103 
Q 1463 3103 1205 2759 
Q 947 2416 947 1791 
Q 947 1169 1205 825 
Q 1463 481 1925 481 
Q 2391 481 2648 825 
Q 2906 1169 2906 1791 
z
M 3481 434 
Q 3481 -459 3084 -895 
Q 2688 -1331 1869 -1331 
Q 1566 -1331 1297 -1286 
Q 1028 -1241 775 -1147 
L 775 -588 
Q 1028 -725 1275 -790 
Q 1522 -856 1778 -856 
Q 2344 -856 2625 -561 
Q 2906 -266 2906 331 
L 2906 616 
Q 2728 306 2450 153 
Q 2172 0 1784 0 
Q 1141 0 747 490 
Q 353 981 353 1791 
Q 353 2603 747 3093 
Q 1141 3584 1784 3584 
Q 2172 3584 2450 3431 
Q 2728 3278 2906 2969 
L 2906 3500 
L 3481 3500 
L 3481 434 
z
" transform="scale(0.015625)"/>
      <path id="DejaVuSans-68" d="M 3513 2113 
L 3513 0 
L 2938 0 
L 2938 2094 
Q 2938 2591 2744 2837 
Q 2550 3084 2163 3084 
Q 1697 3084 1428 2787 
Q 1159 2491 1159 1978 
L 1159 0 
L 581 0 
L 581 4863 
L 1159 4863 
L 1159 2956 
Q 1366 3272 1645 3428 
Q 1925 3584 2291 3584 
Q 2894 3584 3203 3211 
Q 3513 2838 3513 2113 
z
" transform="scale(0.015625)"/>
      <path id="DejaVuSans-61" d="M 2194 1759 
Q 1497 1759 1228 1600 
Q 959 1441 959 1056 
Q 959 750 1161 570 
Q 1363 391 1709 391 
Q 2188 391 2477 730 
Q 2766 1069 2766 1631 
L 2766 1759 
L 2194 1759 
z
M 3341 1997 
L 3341 0 
L 2766 0 
L 2766 531 
Q 2569 213 2275 61 
Q 1981 -91 1556 -91 
Q 1019 -91 701 211 
Q 384 513 384 1019 
Q 384 1609 779 1909 
Q 1175 2209 1959 2209 
L 2766 2209 
L 2766 2266 
Q 2766 2663 2505 2880 
Q 2244 3097 1772 3097 
Q 1472 3097 1187 3025 
Q 903 2953 641 2809 
L 641 3341 
Q 956 3463 1253 3523 
Q 1550 3584 1831 3584 
Q 2591 3584 2966 3190 
Q 3341 2797 3341 1997 
z
" transform="scale(0.015625)"/>
      <path id="DejaVuSans-20" transform="scale(0.015625)"/>
      <path id="DejaVuSans-74" d="M 1172 4494 
L 1172 3500 
L 2356 3500 
L 2356 3053 
L 1172 3053 
L 1172 1153 
Q 1172 725 1289 603 
Q 1406 481 1766 481 
L 2356 481 
L 2356 0 
L 1766 0 
Q 1100 0 847 248 
Q 594 497 594 1153 
L 594 3053 
L 172 3053 
L 172 3500 
L 594 3500 
L 594 4494 
L 1172 4494 
z
" transform="scale(0.015625)"/>
      <path id="DejaVuSans-6f" d="M 1959 3097 
Q 1497 3097 1228 2736 
Q 959 2375 959 1747 
Q 959 1119 1226 758 
Q 1494 397 1959 397 
Q 2419 397 2687 759 
Q 2956 1122 2956 1747 
Q 2956 2369 2687 2733 
Q 2419 3097 1959 3097 
z
M 1959 3584 
Q 2709 3584 3137 3096 
Q 3566 2609 3566 1747 
Q 3566 888 3137 398 
Q 2709 -91 1959 -91 
Q 1206 -91 779 398 
Q 353 888 353 1747 
Q 353 2609 779 3096 
Q 1206 3584 1959 3584 
z
" transform="scale(0.015625)"/>
      <path id="DejaVuSans-66" d="M 2375 4863 
L 2375 4384 
L 1825 4384 
Q 1516 4384 1395 4259 
Q 1275 4134 1275 3809 
L 1275 3500 
L 2222 3500 
L 2222 3053 
L 1275 3053 
L 1275 0 
L 697 0 
L 697 3053 
L 147 3053 
L 147 3500 
L 697 3500 
L 697 3744 
Q 697 4328 969 4595 
Q 1241 4863 1831 4863 
L 2375 4863 
z
" transform="scale(0.015625)"/>
      <path id="DejaVuSans-64" d="M 2906 2969 
L 2906 4863 
L 3481 4863 
L 3481 0 
L 2906 0 
L 2906 525 
Q 2725 213 2448 61 
Q 2172 -91 1784 -91 
Q 1150 -91 751 415 
Q 353 922 353 1747 
Q 353 2572 751 3078 
Q 1150 3584 1784 3584 
Q 2172 3584 2448 3432 
Q 2725 3281 2906 2969 
z
M 947 1747 
Q 947 1113 1208 752 
Q 1469 391 1925 391 
Q 2381 391 2643 752 
Q 2906 1113 2906 1747 
Q 2906 2381 2643 2742 
Q 2381 3103 1925 3103 
Q 1469 3103 1208 2742 
Q 947 2381 947 1747 
z
" transform="scale(0.015625)"/>
     </defs>
     <use xlink:href="#DejaVuSans-42"/>
     <use xlink:href="#DejaVuSans-69" x="68.603516"/>
     <use xlink:href="#DejaVuSans-72" x="96.386719"/>
     <use xlink:href="#DejaVuSans-6d" x="135.75"/>
     <use xlink:href="#DejaVuSans-69" x="233.162109"/>
     <use xlink:href="#DejaVuSans-6e" x="260.945312"/>
     <use xlink:href="#DejaVuSans-67" x="324.324219"/>
     <use xlink:href="#DejaVuSans-68" x="387.800781"/>
     <use xlink:href="#DejaVuSans-61" x="451.179688"/>
     <use xlink:href="#DejaVuSans-6d" x="512.458984"/>
     <use xlink:href="#DejaVuSans-20" x="609.871094"/>
     <use xlink:href="#DejaVuSans-74" x="641.658203"/>
     <use xlink:href="#DejaVuSans-6f" x="680.867188"/>
     <use xlink:href="#DejaVuSans-20" x="742.048828"/>
     <use xlink:href="#DejaVuSans-53" x="773.835938"/>
     <use xlink:href="#DejaVuSans-74" x="837.3125"/>
     <use xlink:href="#DejaVuSans-72" x="876.521484"/>
     <use xlink:href="#DejaVuSans-61" x="917.634766"/>
     <use xlink:href="#DejaVuSans-74" x="978.914062"/>
     <use xlink:href="#DejaVuSans-66" x="1018.123047"/>
     <use xlink:href="#DejaVuSans-6f" x="1053.328125"/>
     <use xlink:href="#DejaVuSans-72" x="1114.509766"/>
     <use xlink:href="#DejaVuSans-64" x="1153.873047"/>
    </g>
   </g>
  </g>
  <g id="axes_2">
   <g id="patch_39">
    <path d="M 392.447059 127.92 
C 392.447059 119.049802 390.699823 110.265855 387.305345 102.07086 
C 383.910867 93.875865 378.935161 86.429194 372.662983 80.157017 
C 366.390806 73.884839 358.944135 68.909133 350.74914 65.514655 
C 342.554145 62.120177 333.770198 60.372941 324.9 60.372941 
C 316.029802 60.372941 307.245855 62.120177 299.05086 65.514655 
C 290.855865 68.909133 283.409194 73.884839 277.137017 80.157017 
C 270.864839 86.429194 265.889133 93.875865 262.494655 102.07086 
C 259.100177 110.265855 257.352941 119.049802 257.352941 127.92 
C 257.352941 136.790198 259.100177 145.574145 262.494655 153.76914 
C 265.889133 161.964135 270.864839 169.410806 277.137017 175.682983 
C 283.409194 181.955161 290.855865 186.930867 299.05086 190.325345 
C 307.245855 193.719823 316.029802 195.467059 324.9 195.467059 
C 333.770198 195.467059 342.554145 193.719823 350.74914 190.325345 
C 358.944135 186.930867 366.390806 181.955161 372.662983 175.682983 
C 378.935161 169.410806 383.910867 161.964135 387.305345 153.76914 
C 390.699823 145.574145 392.447059 136.790198 392.447059 127.92 
M 324.9 127.92 
C 324.9 127.92 324.9 127.92 324.9 127.92 
C 324.9 127.92 324.9 127.92 324.9 127.92 
C 324.9 127.92 324.9 127.92 324.9 127.92 
C 324.9 127.92 324.9 127.92 324.9 127.92 
C 324.9 127.92 324.9 127.92 324.9 127.92 
C 324.9 127.92 324.9 127.92 324.9 127.92 
C 324.9 127.92 324.9 127.92 324.9 127.92 
C 324.9 127.92 324.9 127.92 324.9 127.92 
C 324.9 127.92 324.9 127.92 324.9 127.92 
C 324.9 127.92 324.9 127.92 324.9 127.92 
C 324.9 127.92 324.9 127.92 324.9 127.92 
C 324.9 127.92 324.9 127.92 324.9 127.92 
C 324.9 127.92 324.9 127.92 324.9 127.92 
C 324.9 127.92 324.9 127.92 324.9 127.92 
C 324.9 127.92 324.9 127.92 324.9 127.92 
C 324.9 127.92 324.9 127.92 324.9 127.92 
M 392.447059 127.92 
L 392.447059 127.92 
z
" style="fill: none"/>
   </g>
   <g id="patch_40">
    <path d="M 324.9 127.92 
C 324.9 127.92 324.9 127.92 324.9 127.92 
C 324.9 127.92 324.9 127.92 324.9 127.92 
L 383.644684 117.259412 
C 383.963702 119.017343 384.20365 120.788709 384.363803 122.568161 
C 384.523957 124.347612 384.604155 126.133356 384.604155 127.92 
z
" clip-path="url(#p33efedc5a2)" style="fill: #1f77b4"/>
   </g>
   <g id="patch_41">
    <path d="M 324.9 127.92 
C 324.9 127.92 324.9 127.92 324.9 127.92 
C 324.9 127.92 324.9 127.92 324.9 127.92 
L 385.128488 105.315871 
C 385.804915 107.118205 386.4001 108.949995 386.912244 110.805708 
C 387.424388 112.661422 387.852976 114.539189 388.196714 116.43334 
z
" clip-path="url(#p33efedc5a2)" style="fill: #1f77b4"/>
   </g>
   <g id="patch_42">
    <path d="M 324.9 127.92 
C 324.9 127.92 324.9 127.92 324.9 127.92 
C 324.9 127.92 324.9 127.92 324.9 127.92 
L 377.845019 96.286824 
C 378.79164 97.871201 379.666666 99.497271 380.467454 101.160125 
C 381.268242 102.822978 381.993985 104.520939 382.642492 106.24888 
z
" clip-path="url(#p33efedc5a2)" style="fill: #1f77b4"/>
   </g>
   <g id="patch_43">
    <path d="M 324.9 127.92 
C 324.9 127.92 324.9 127.92 324.9 127.92 
C 324.9 127.92 324.9 127.92 324.9 127.92 
L 355.566555 101.127438 
C 356.368321 102.045133 357.12849 102.998355 357.844767 103.984226 
C 358.561044 104.970096 359.232707 105.987622 359.857727 107.03373 
z
" clip-path="url(#p33efedc5a2)" style="fill: #1f77b4"/>
   </g>
   <g id="patch_44">
    <path d="M 324.9 127.92 
C 324.9 127.92 324.9 127.92 324.9 127.92 
C 324.9 127.92 324.9 127.92 324.9 127.92 
L 338.210301 111.22941 
C 338.709766 111.62772 339.191101 112.048249 339.652851 112.489728 
C 340.114601 112.931206 340.556302 113.393189 340.976619 113.874281 
z
" clip-path="url(#p33efedc5a2)" style="fill: #1f77b4"/>
   </g>
   <g id="patch_45">
    <path d="M 324.9 127.92 
C 324.9 127.92 324.9 127.92 324.9 127.92 
C 324.9 127.92 324.9 127.92 324.9 127.92 
L 331.839304 115.024613 
C 332.225198 115.232271 332.601576 115.457147 332.967302 115.69856 
C 333.333028 115.939974 333.687733 116.197682 334.030347 116.470907 
z
" clip-path="url(#p33efedc5a2)" style="fill: #1f77b4"/>
   </g>
   <g id="patch_46">
    <path d="M 324.9 127.92 
C 324.9 127.92 324.9 127.92 324.9 127.92 
C 324.9 127.92 324.9 127.92 324.9 127.92 
L 327.980325 118.439733 
C 328.264022 118.531912 328.543438 118.636778 328.81773 118.754016 
C 329.092021 118.871254 329.360912 119.000745 329.62359 119.142098 
z
" clip-path="url(#p33efedc5a2)" style="fill: #1f77b4"/>
   </g>
   <g id="patch_47">
    <path d="M 324.9 127.92 
C 324.9 127.92 324.9 127.92 324.9 127.92 
C 324.9 127.92 324.9 127.92 324.9 127.92 
L 326.005675 119.757579 
C 326.249935 119.790666 326.492587 119.834701 326.732898 119.88955 
C 326.973209 119.944399 327.210936 120.010008 327.445363 120.086178 
z
" clip-path="url(#p33efedc5a2)" style="fill: #1f77b4"/>
   </g>
   <g id="patch_48">
    <path d="M 324.9 127.92 
C 324.9 127.92 324.9 127.92 324.9 127.92 
C 324.9 127.92 324.9 127.92 324.9 127.92 
L 324.639845 122.127188 
C 324.813194 122.119403 324.986806 122.119403 325.160155 122.127188 
C 325.333505 122.134973 325.506418 122.150535 325.678372 122.173828 
z
" clip-path="url(#p33efedc5a2)" style="fill: #1f77b4"/>
   </g>
   <g id="patch_49">
    <path d="M 324.9 127.92 
C 324.9 127.92 324.9 127.92 324.9 127.92 
C 324.9 127.92 324.9 127.92 324.9 127.92 
L 323.801443 123.106908 
C 323.945475 123.074034 324.090909 123.047641 324.237308 123.02781 
C 324.383706 123.007979 324.530921 122.99473 324.678508 122.988102 
z
" clip-path="url(#p33efedc5a2)" style="fill: #1f77b4"/>
   </g>
   <g id="patch_50">
    <path d="M 324.9 127.92 
C 324.9 127.92 324.9 127.92 324.9 127.92 
C 324.9 127.92 324.9 127.92 324.9 127.92 
L 323.038706 123.565286 
C 323.169021 123.509587 323.30177 123.459766 323.436553 123.415972 
C 323.571335 123.372179 323.708016 123.334457 323.846182 123.302922 
z
" clip-path="url(#p33efedc5a2)" style="fill: #1f77b4"/>
   </g>
   <g id="patch_51">
    <path d="M 324.9 127.92 
C 324.9 127.92 324.9 127.92 324.9 127.92 
C 324.9 127.92 324.9 127.92 324.9 127.92 
L 323.34842 125.569457 
C 323.41876 125.523026 323.491148 125.479776 323.565367 125.439837 
C 323.639586 125.399898 323.71556 125.363311 323.79306 125.330186 
z
" clip-path="url(#p33efedc5a2)" style="fill: #1f77b4"/>
   </g>
   <g id="patch_52">
    <path d="M 324.9 127.92 
C 324.9 127.92 324.9 127.92 324.9 127.92 
C 324.9 127.92 324.9 127.92 324.9 127.92 
L 322.238366 125.136149 
C 322.321673 125.0565 322.408513 124.980631 322.498624 124.908769 
C 322.588735 124.836908 322.682026 124.769128 322.778216 124.705634 
z
" clip-path="url(#p33efedc5a2)" style="fill: #1f77b4"/>
   </g>
   <g id="patch_53">
    <path d="M 324.9 127.92 
C 324.9 127.92 324.9 127.92 324.9 127.92 
C 324.9 127.92 324.9 127.92 324.9 127.92 
L 321.652338 125.560435 
C 321.722948 125.463249 321.797884 125.369281 321.876922 125.278816 
C 321.955959 125.18835 322.039017 125.101478 322.125846 125.018462 
z
" clip-path="url(#p33efedc5a2)" style="fill: #1f77b4"/>
   </g>
   <g id="patch_54">
    <path d="M 324.9 127.92 
C 324.9 127.92 324.9 127.92 324.9 127.92 
C 324.9 127.92 324.9 127.92 324.9 127.92 
L 319.326364 125.235878 
C 319.406686 125.069088 319.494455 124.905986 319.589405 124.747067 
C 319.684355 124.588148 319.78639 124.433571 319.895203 124.283802 
z
" clip-path="url(#p33efedc5a2)" style="fill: #1f77b4"/>
   </g>
   <g id="patch_55">
    <path d="M 324.9 127.92 
C 324.9 127.92 324.9 127.92 324.9 127.92 
C 324.9 127.92 324.9 127.92 324.9 127.92 
L 320.271929 126.642734 
C 320.310151 126.504239 320.354571 126.367529 320.405053 126.233018 
C 320.455536 126.098507 320.512032 125.96633 320.574369 125.836886 
z
" clip-path="url(#p33efedc5a2)" style="fill: #1f77b4"/>
   </g>
   <g id="patch_56">
    <path d="M 324.9 127.92 
C 324.9 127.92 324.9 127.92 324.9 127.92 
C 324.9 127.92 324.9 127.92 324.9 127.92 
L 320.379734 127.513169 
C 320.391909 127.3779 320.410149 127.243246 320.4344 127.109613 
C 320.45865 126.97598 320.488887 126.843503 320.525019 126.712582 
z
" clip-path="url(#p33efedc5a2)" style="fill: #1f77b4"/>
   </g>
   <g id="patch_57">
    <path d="M 324.9 127.92 
C 324.9 127.92 324.9 127.92 324.9 127.92 
C 324.9 127.92 324.9 127.92 324.9 127.92 
L 319.728056 128.385483 
C 319.714126 128.230713 319.707151 128.075396 319.707151 127.92 
C 319.707151 127.764604 319.714126 127.609287 319.728056 127.454517 
z
" clip-path="url(#p33efedc5a2)" style="fill: #1f77b4"/>
   </g>
   <g id="patch_58">
    <path d="M 324.9 127.92 
C 324.9 127.92 324.9 127.92 324.9 127.92 
C 324.9 127.92 324.9 127.92 324.9 127.92 
L 323.787036 128.227158 
C 323.777845 128.193853 323.770153 128.160152 323.763983 128.126157 
C 323.757814 128.092161 323.753174 128.057906 323.750077 128.023495 
z
" clip-path="url(#p33efedc5a2)" style="fill: #1f77b4"/>
   </g>
   <g id="patch_59">
    <path d="M 324.9 127.92 
C 324.9 127.92 324.9 127.92 324.9 127.92 
C 324.9 127.92 324.9 127.92 324.9 127.92 
L 324.173664 128.269785 
C 324.163197 128.248049 324.153711 128.225855 324.145234 128.203268 
C 324.136757 128.180682 324.129298 128.157727 324.12288 128.134471 
z
" clip-path="url(#p33efedc5a2)" style="fill: #1f77b4"/>
   </g>
   <g id="patch_60">
    <path d="M 324.9 127.92 
C 324.9 127.92 324.9 127.92 324.9 127.92 
C 324.9 127.92 324.9 127.92 324.9 127.92 
L 323.821197 128.703797 
C 323.797742 128.671513 323.775747 128.638194 323.755281 128.603938 
C 323.734814 128.569682 323.715895 128.534525 323.698581 128.498573 
z
" clip-path="url(#p33efedc5a2)" style="fill: #1f77b4"/>
   </g>
   <g id="patch_61">
    <path d="M 324.9 127.92 
C 324.9 127.92 324.9 127.92 324.9 127.92 
C 324.9 127.92 324.9 127.92 324.9 127.92 
L 323.453054 129.433387 
C 323.407766 129.390087 323.364444 129.344776 323.32322 129.297591 
C 323.281996 129.250406 323.24291 129.201394 323.206081 129.150704 
z
" clip-path="url(#p33efedc5a2)" style="fill: #1f77b4"/>
   </g>
   <g id="patch_62">
    <path d="M 324.9 127.92 
C 324.9 127.92 324.9 127.92 324.9 127.92 
C 324.9 127.92 324.9 127.92 324.9 127.92 
L 323.838319 129.528378 
C 323.790188 129.496608 323.743508 129.462693 323.698419 129.426735 
C 323.65333 129.390778 323.609878 129.352815 323.568193 129.312961 
z
" clip-path="url(#p33efedc5a2)" style="fill: #1f77b4"/>
   </g>
   <g id="patch_63">
    <path d="M 324.9 127.92 
C 324.9 127.92 324.9 127.92 324.9 127.92 
C 324.9 127.92 324.9 127.92 324.9 127.92 
L 324.746077 128.280121 
C 324.7353 128.275515 324.724736 128.270427 324.714416 128.264874 
C 324.704095 128.25932 324.694029 128.253306 324.684249 128.246849 
z
" clip-path="url(#p33efedc5a2)" style="fill: #1f77b4"/>
   </g>
   <g id="patch_64">
    <path d="M 324.9 127.92 
C 324.9 127.92 324.9 127.92 324.9 127.92 
C 324.9 127.92 324.9 127.92 324.9 127.92 
L 324.756151 128.550243 
C 324.737291 128.545939 324.718634 128.54079 324.700236 128.534812 
C 324.681837 128.528834 324.663717 128.522033 324.645929 128.51443 
z
" clip-path="url(#p33efedc5a2)" style="fill: #1f77b4"/>
   </g>
   <g id="patch_65">
    <path d="M 324.9 127.92 
C 324.9 127.92 324.9 127.92 324.9 127.92 
C 324.9 127.92 324.9 127.92 324.9 127.92 
L 324.857524 128.865809 
C 324.82922 128.864538 324.800988 128.861997 324.772913 128.858194 
C 324.744838 128.854391 324.716947 128.849329 324.689326 128.843025 
z
" clip-path="url(#p33efedc5a2)" style="fill: #1f77b4"/>
   </g>
   <g id="patch_66">
    <path d="M 324.9 127.92 
C 324.9 127.92 324.9 127.92 324.9 127.92 
C 324.9 127.92 324.9 127.92 324.9 127.92 
L 325.027235 128.859287 
C 324.999127 128.863095 324.970862 128.865639 324.942526 128.866911 
C 324.91419 128.868184 324.88581 128.868184 324.857474 128.866911 
z
" clip-path="url(#p33efedc5a2)" style="fill: #1f77b4"/>
   </g>
   <g id="patch_67">
    <path d="M 324.9 127.92 
C 324.9 127.92 324.9 127.92 324.9 127.92 
C 324.9 127.92 324.9 127.92 324.9 127.92 
L 325.33069 129.245527 
C 325.291023 129.258415 325.250799 129.269516 325.210137 129.278797 
C 325.169475 129.288078 325.128417 129.295529 325.087086 129.301128 
z
" clip-path="url(#p33efedc5a2)" style="fill: #1f77b4"/>
   </g>
   <g id="patch_68">
    <path d="M 324.9 127.92 
C 324.9 127.92 324.9 127.92 324.9 127.92 
C 324.9 127.92 324.9 127.92 324.9 127.92 
L 325.546504 129.121406 
C 325.510552 129.140753 325.47375 129.158476 325.436208 129.174522 
C 325.398667 129.190568 325.360424 129.204921 325.321595 129.217537 
z
" clip-path="url(#p33efedc5a2)" style="fill: #1f77b4"/>
   </g>
   <g id="patch_69">
    <path d="M 324.9 127.92 
C 324.9 127.92 324.9 127.92 324.9 127.92 
C 324.9 127.92 324.9 127.92 324.9 127.92 
L 326.342148 129.728396 
C 326.288032 129.771553 326.232006 129.812258 326.174239 129.85039 
C 326.116472 129.888521 326.057023 129.92404 325.99607 129.95684 
z
" clip-path="url(#p33efedc5a2)" style="fill: #1f77b4"/>
   </g>
   <g id="patch_70">
    <path d="M 324.9 127.92 
C 324.9 127.92 324.9 127.92 324.9 127.92 
C 324.9 127.92 324.9 127.92 324.9 127.92 
L 329.313846 131.776261 
C 329.198448 131.908345 329.077178 132.035183 328.950405 132.156391 
C 328.823631 132.277599 328.69148 132.393056 328.554352 132.502412 
z
" clip-path="url(#p33efedc5a2)" style="fill: #1f77b4"/>
   </g>
   <g id="patch_71">
    <path d="M 324.9 127.92 
C 324.9 127.92 324.9 127.92 324.9 127.92 
C 324.9 127.92 324.9 127.92 324.9 127.92 
L 332.191349 132.276378 
C 332.060985 132.494572 331.920892 132.706803 331.771494 132.912432 
C 331.622095 133.118062 331.463542 133.316881 331.296313 133.50829 
z
" clip-path="url(#p33efedc5a2)" style="fill: #1f77b4"/>
   </g>
   <g id="patch_72">
    <path d="M 324.9 127.92 
C 324.9 127.92 324.9 127.92 324.9 127.92 
C 324.9 127.92 324.9 127.92 324.9 127.92 
L 338.141835 132.889744 
C 337.993115 133.286005 337.826684 133.675391 337.643043 134.056726 
C 337.459401 134.438061 337.258735 134.81096 337.041651 135.174299 
z
" clip-path="url(#p33efedc5a2)" style="fill: #1f77b4"/>
   </g>
   <g id="patch_73">
    <path d="M 324.9 127.92 
C 324.9 127.92 324.9 127.92 324.9 127.92 
C 324.9 127.92 324.9 127.92 324.9 127.92 
L 352.249898 132.883275 
C 352.101372 133.701719 351.916183 134.513084 351.694891 135.31492 
C 351.473598 136.116756 351.216425 136.908254 350.924147 137.687026 
z
" clip-path="url(#p33efedc5a2)" style="fill: #1f77b4"/>
   </g>
   <g id="patch_74">
    <path d="M 324.9 127.92 
C 324.9 127.92 324.9 127.92 324.9 127.92 
C 324.9 127.92 324.9 127.92 324.9 127.92 
L 373.770936 127.92 
C 373.770936 129.38246 373.70529 130.844184 373.574196 132.300757 
C 373.443102 133.75733 373.246692 135.207285 372.98556 136.646243 
z
" clip-path="url(#p33efedc5a2)" style="fill: #1f77b4"/>
   </g>
   <g id="matplotlib.axis_3">
    <g id="xtick_9">
     <g id="line2d_9">
      <path d="M 324.9 127.92 
L 392.447059 127.92 
" clip-path="url(#p33efedc5a2)" style="fill: none; stroke: #b0b0b0; stroke-width: 0.8; stroke-linecap: square"/>
     </g>
     <g id="text_10">
      <!-- E -->
      <g transform="translate(403.287684 130.679375) scale(0.1 -0.1)">
       <use xlink:href="#DejaVuSans-45"/>
      </g>
     </g>
    </g>
    <g id="xtick_10">
     <g id="line2d_10">
      <path d="M 324.9 127.92 
L 372.662983 80.157017 
" clip-path="url(#p33efedc5a2)" style="fill: none; stroke: #b0b0b0; stroke-width: 0.8; stroke-linecap: square"/>
     </g>
     <g id="text_11">
      <!-- NE -->
      <g transform="translate(375.662478 73.016897) scale(0.1 -0.1)">
       <use xlink:href="#DejaVuSans-4e"/>
       <use xlink:href="#DejaVuSans-45" x="74.804688"/>
      </g>
     </g>
    </g>
    <g id="xtick_11">
     <g id="line2d_11">
      <path d="M 324.9 127.92 
L 324.9 60.372941 
" clip-path="url(#p33efedc5a2)" style="fill: none; stroke: #b0b0b0; stroke-width: 0.8; stroke-linecap: square"/>
     </g>
     <g id="text_12">
      <!-- N -->
      <g transform="translate(321.159375 49.132316) scale(0.1 -0.1)">
       <use xlink:href="#DejaVuSans-4e"/>
      </g>
     </g>
    </g>
    <g id="xtick_12">
     <g id="line2d_12">
      <path d="M 324.9 127.92 
L 277.137017 80.157017 
" clip-path="url(#p33efedc5a2)" style="fill: none; stroke: #b0b0b0; stroke-width: 0.8; stroke-linecap: square"/>
     </g>
     <g id="text_13">
      <!-- NW -->
      <g transform="translate(258.553147 73.016897) scale(0.1 -0.1)">
       <use xlink:href="#DejaVuSans-4e"/>
       <use xlink:href="#DejaVuSans-57" x="74.804688"/>
      </g>
     </g>
    </g>
    <g id="xtick_13">
     <g id="line2d_13">
      <path d="M 324.9 127.92 
L 257.352941 127.92 
" clip-path="url(#p33efedc5a2)" style="fill: none; stroke: #b0b0b0; stroke-width: 0.8; stroke-linecap: square"/>
     </g>
     <g id="text_14">
      <!-- W -->
      <g transform="translate(238.409191 130.679375) scale(0.1 -0.1)">
       <use xlink:href="#DejaVuSans-57"/>
      </g>
     </g>
    </g>
    <g id="xtick_14">
     <g id="line2d_14">
      <path d="M 324.9 127.92 
L 277.137017 175.682983 
" clip-path="url(#p33efedc5a2)" style="fill: none; stroke: #b0b0b0; stroke-width: 0.8; stroke-linecap: square"/>
     </g>
     <g id="text_15">
      <!-- SW -->
      <g transform="translate(259.119553 188.341853) scale(0.1 -0.1)">
       <use xlink:href="#DejaVuSans-53"/>
       <use xlink:href="#DejaVuSans-57" x="63.476562"/>
      </g>
     </g>
    </g>
    <g id="xtick_15">
     <g id="line2d_15">
      <path d="M 324.9 127.92 
L 324.9 195.467059 
" clip-path="url(#p33efedc5a2)" style="fill: none; stroke: #b0b0b0; stroke-width: 0.8; stroke-linecap: square"/>
     </g>
     <g id="text_16">
      <!-- S -->
      <g transform="translate(321.725781 212.226434) scale(0.1 -0.1)">
       <use xlink:href="#DejaVuSans-53"/>
      </g>
     </g>
    </g>
    <g id="xtick_16">
     <g id="line2d_16">
      <path d="M 324.9 127.92 
L 372.662983 175.682983 
" clip-path="url(#p33efedc5a2)" style="fill: none; stroke: #b0b0b0; stroke-width: 0.8; stroke-linecap: square"/>
     </g>
     <g id="text_17">
      <!-- SE -->
      <g transform="translate(376.228885 188.341853) scale(0.1 -0.1)">
       <use xlink:href="#DejaVuSans-53"/>
       <use xlink:href="#DejaVuSans-45" x="63.476562"/>
      </g>
     </g>
    </g>
   </g>
   <g id="matplotlib.axis_4"/>
   <g id="LineCollection_2">
    <path d="M 324.9 127.92 
L 388.703578 136.137102 
" clip-path="url(#p33efedc5a2)" style="fill: none; stroke-dasharray: 5.55,2.4; stroke-dashoffset: 0; stroke: #ff0000; stroke-opacity: 0.5; stroke-width: 1.5"/>
   </g>
   <g id="patch_75">
    <path d="M 392.447059 127.92 
C 392.447059 119.049802 390.699823 110.265855 387.305345 102.07086 
C 383.910867 93.875865 378.935161 86.429194 372.662983 80.157017 
C 366.390806 73.884839 358.944135 68.909133 350.74914 65.514655 
C 342.554145 62.120177 333.770198 60.372941 324.9 60.372941 
C 316.029802 60.372941 307.245855 62.120177 299.05086 65.514655 
C 290.855865 68.909133 283.409194 73.884839 277.137017 80.157017 
C 270.864839 86.429194 265.889133 93.875865 262.494655 102.07086 
C 259.100177 110.265855 257.352941 119.049802 257.352941 127.92 
C 257.352941 136.790198 259.100177 145.574145 262.494655 153.76914 
C 265.889133 161.964135 270.864839 169.410806 277.137017 175.682983 
C 283.409194 181.955161 290.855865 186.930867 299.05086 190.325345 
C 307.245855 193.719823 316.029802 195.467059 324.9 195.467059 
C 333.770198 195.467059 342.554145 193.719823 350.74914 190.325345 
C 358.944135 186.930867 366.390806 181.955161 372.662983 175.682983 
C 378.935161 169.410806 383.910867 161.964135 387.305345 153.76914 
C 390.699823 145.574145 392.447059 136.790198 392.447059 127.92 
" style="fill: none; stroke: #000000; stroke-width: 0.8; stroke-linejoin: miter; stroke-linecap: square"/>
   </g>
   <g id="text_18">
    <!-- Bicester to Bedford -->
    <g transform="translate(267.080625 35.533879) scale(0.12 -0.12)">
     <defs>
      <path id="DejaVuSans-63" d="M 3122 3366 
L 3122 2828 
Q 2878 2963 2633 3030 
Q 2388 3097 2138 3097 
Q 1578 3097 1268 2742 
Q 959 2388 959 1747 
Q 959 1106 1268 751 
Q 1578 397 2138 397 
Q 2388 397 2633 464 
Q 2878 531 3122 666 
L 3122 134 
Q 2881 22 2623 -34 
Q 2366 -91 2075 -91 
Q 1284 -91 818 406 
Q 353 903 353 1747 
Q 353 2603 823 3093 
Q 1294 3584 2113 3584 
Q 2378 3584 2631 3529 
Q 2884 3475 3122 3366 
z
" transform="scale(0.015625)"/>
      <path id="DejaVuSans-65" d="M 3597 1894 
L 3597 1613 
L 953 1613 
Q 991 1019 1311 708 
Q 1631 397 2203 397 
Q 2534 397 2845 478 
Q 3156 559 3463 722 
L 3463 178 
Q 3153 47 2828 -22 
Q 2503 -91 2169 -91 
Q 1331 -91 842 396 
Q 353 884 353 1716 
Q 353 2575 817 3079 
Q 1281 3584 2069 3584 
Q 2775 3584 3186 3129 
Q 3597 2675 3597 1894 
z
M 3022 2063 
Q 3016 2534 2758 2815 
Q 2500 3097 2075 3097 
Q 1594 3097 1305 2825 
Q 1016 2553 972 2059 
L 3022 2063 
z
" transform="scale(0.015625)"/>
      <path id="DejaVuSans-73" d="M 2834 3397 
L 2834 2853 
Q 2591 2978 2328 3040 
Q 2066 3103 1784 3103 
Q 1356 3103 1142 2972 
Q 928 2841 928 2578 
Q 928 2378 1081 2264 
Q 1234 2150 1697 2047 
L 1894 2003 
Q 2506 1872 2764 1633 
Q 3022 1394 3022 966 
Q 3022 478 2636 193 
Q 2250 -91 1575 -91 
Q 1294 -91 989 -36 
Q 684 19 347 128 
L 347 722 
Q 666 556 975 473 
Q 1284 391 1588 391 
Q 1994 391 2212 530 
Q 2431 669 2431 922 
Q 2431 1156 2273 1281 
Q 2116 1406 1581 1522 
L 1381 1569 
Q 847 1681 609 1914 
Q 372 2147 372 2553 
Q 372 3047 722 3315 
Q 1072 3584 1716 3584 
Q 2034 3584 2315 3537 
Q 2597 3491 2834 3397 
z
" transform="scale(0.015625)"/>
     </defs>
     <use xlink:href="#DejaVuSans-42"/>
     <use xlink:href="#DejaVuSans-69" x="68.603516"/>
     <use xlink:href="#DejaVuSans-63" x="96.386719"/>
     <use xlink:href="#DejaVuSans-65" x="151.367188"/>
     <use xlink:href="#DejaVuSans-73" x="212.890625"/>
     <use xlink:href="#DejaVuSans-74" x="264.990234"/>
     <use xlink:href="#DejaVuSans-65" x="304.199219"/>
     <use xlink:href="#DejaVuSans-72" x="365.722656"/>
     <use xlink:href="#DejaVuSans-20" x="406.835938"/>
     <use xlink:href="#DejaVuSans-74" x="438.623047"/>
     <use xlink:href="#DejaVuSans-6f" x="477.832031"/>
     <use xlink:href="#DejaVuSans-20" x="539.013672"/>
     <use xlink:href="#DejaVuSans-42" x="570.800781"/>
     <use xlink:href="#DejaVuSans-65" x="639.404297"/>
     <use xlink:href="#DejaVuSans-64" x="700.927734"/>
     <use xlink:href="#DejaVuSans-66" x="764.404297"/>
     <use xlink:href="#DejaVuSans-6f" x="799.609375"/>
     <use xlink:href="#DejaVuSans-72" x="860.791016"/>
     <use xlink:href="#DejaVuSans-64" x="900.154297"/>
    </g>
   </g>
  </g>
  <g id="axes_3">
   <g id="patch_76">
    <path d="M 604.847059 127.92 
C 604.847059 119.049802 603.099823 110.265855 599.705345 102.07086 
C 596.310867 93.875865 591.335161 86.429194 585.062983 80.157017 
C 578.790806 73.884839 571.344135 68.909133 563.14914 65.514655 
C 554.954145 62.120177 546.170198 60.372941 537.3 60.372941 
C 528.429802 60.372941 519.645855 62.120177 511.45086 65.514655 
C 503.255865 68.909133 495.809194 73.884839 489.537017 80.157017 
C 483.264839 86.429194 478.289133 93.875865 474.894655 102.07086 
C 471.500177 110.265855 469.752941 119.049802 469.752941 127.92 
C 469.752941 136.790198 471.500177 145.574145 474.894655 153.76914 
C 478.289133 161.964135 483.264839 169.410806 489.537017 175.682983 
C 495.809194 181.955161 503.255865 186.930867 511.45086 190.325345 
C 519.645855 193.719823 528.429802 195.467059 537.3 195.467059 
C 546.170198 195.467059 554.954145 193.719823 563.14914 190.325345 
C 571.344135 186.930867 578.790806 181.955161 585.062983 175.682983 
C 591.335161 169.410806 596.310867 161.964135 599.705345 153.76914 
C 603.099823 145.574145 604.847059 136.790198 604.847059 127.92 
M 537.3 127.92 
C 537.3 127.92 537.3 127.92 537.3 127.92 
C 537.3 127.92 537.3 127.92 537.3 127.92 
C 537.3 127.92 537.3 127.92 537.3 127.92 
C 537.3 127.92 537.3 127.92 537.3 127.92 
C 537.3 127.92 537.3 127.92 537.3 127.92 
C 537.3 127.92 537.3 127.92 537.3 127.92 
C 537.3 127.92 537.3 127.92 537.3 127.92 
C 537.3 127.92 537.3 127.92 537.3 127.92 
C 537.3 127.92 537.3 127.92 537.3 127.92 
C 537.3 127.92 537.3 127.92 537.3 127.92 
C 537.3 127.92 537.3 127.92 537.3 127.92 
C 537.3 127.92 537.3 127.92 537.3 127.92 
C 537.3 127.92 537.3 127.92 537.3 127.92 
C 537.3 127.92 537.3 127.92 537.3 127.92 
C 537.3 127.92 537.3 127.92 537.3 127.92 
C 537.3 127.92 537.3 127.92 537.3 127.92 
M 604.847059 127.92 
L 604.847059 127.92 
z
" style="fill: none"/>
   </g>
   <g id="patch_77">
    <path d="M 537.3 127.92 
C 537.3 127.92 537.3 127.92 537.3 127.92 
C 537.3 127.92 537.3 127.92 537.3 127.92 
L 600.596714 116.43334 
C 600.940452 118.327491 601.198993 120.236117 601.371556 122.153456 
C 601.54412 124.070794 601.630532 125.994912 601.630532 127.92 
z
" clip-path="url(#p7bfef4897f)" style="fill: #1f77b4"/>
   </g>
   <g id="patch_78">
    <path d="M 537.3 127.92 
C 537.3 127.92 537.3 127.92 537.3 127.92 
C 537.3 127.92 537.3 127.92 537.3 127.92 
L 563.436308 118.110879 
C 563.729846 118.893007 563.988128 119.687917 564.210374 120.493209 
C 564.43262 121.2985 564.618607 122.113362 564.767773 122.935334 
z
" clip-path="url(#p7bfef4897f)" style="fill: #1f77b4"/>
   </g>
   <g id="patch_79">
    <path d="M 537.3 127.92 
C 537.3 127.92 537.3 127.92 537.3 127.92 
C 537.3 127.92 537.3 127.92 537.3 127.92 
L 539.662223 126.508637 
C 539.704458 126.579327 539.743499 126.651876 539.779227 126.726067 
C 539.814956 126.800258 539.847336 126.876015 539.87627 126.95311 
z
" clip-path="url(#p7bfef4897f)" style="fill: #1f77b4"/>
   </g>
   <g id="patch_80">
    <path d="M 537.3 127.92 
C 537.3 127.92 537.3 127.92 537.3 127.92 
C 537.3 127.92 537.3 127.92 537.3 127.92 
L 537.951949 127.350409 
C 537.968994 127.369919 537.985155 127.390184 538.000382 127.411142 
C 538.01561 127.432101 538.029889 127.453733 538.043176 127.475973 
z
" clip-path="url(#p7bfef4897f)" style="fill: #1f77b4"/>
   </g>
   <g id="patch_81">
    <path d="M 537.3 127.92 
C 537.3 127.92 537.3 127.92 537.3 127.92 
C 537.3 127.92 537.3 127.92 537.3 127.92 
L 537.787107 127.309187 
C 537.805386 127.323763 537.823001 127.339153 537.839899 127.355309 
C 537.856798 127.371466 537.872962 127.388373 537.888344 127.405979 
z
" clip-path="url(#p7bfef4897f)" style="fill: #1f77b4"/>
   </g>
   <g id="patch_82">
    <path d="M 537.3 127.92 
C 537.3 127.92 537.3 127.92 537.3 127.92 
C 537.3 127.92 537.3 127.92 537.3 127.92 
L 537.85638 126.886073 
C 537.88732 126.902723 537.917497 126.920753 537.94682 126.940109 
C 537.976144 126.959465 538.004583 126.980127 538.032053 127.002034 
z
" clip-path="url(#p7bfef4897f)" style="fill: #1f77b4"/>
   </g>
   <g id="patch_83">
    <path d="M 537.3 127.92 
C 537.3 127.92 537.3 127.92 537.3 127.92 
C 537.3 127.92 537.3 127.92 537.3 127.92 
L 537.331172 127.824062 
C 537.334043 127.824995 537.336871 127.826056 537.339646 127.827243 
C 537.342422 127.828429 537.345143 127.82974 537.347801 127.83117 
z
" clip-path="url(#p7bfef4897f)" style="fill: #1f77b4"/>
   </g>
   <g id="patch_84">
    <path d="M 537.3 127.92 
C 537.3 127.92 537.3 127.92 537.3 127.92 
C 537.3 127.92 537.3 127.92 537.3 127.92 
L 537.320307 127.770086 
C 537.324793 127.770693 537.32925 127.771502 537.333664 127.772509 
C 537.338077 127.773517 537.342444 127.774722 537.346749 127.776121 
z
" clip-path="url(#p7bfef4897f)" style="fill: #1f77b4"/>
   </g>
   <g id="patch_85">
    <path d="M 537.3 127.92 
C 537.3 127.92 537.3 127.92 537.3 127.92 
C 537.3 127.92 537.3 127.92 537.3 127.92 
L 537.299619 127.911521 
C 537.299873 127.911509 537.300127 127.911509 537.300381 127.911521 
C 537.300635 127.911532 537.300888 127.911555 537.301139 127.911589 
z
" clip-path="url(#p7bfef4897f)" style="fill: #1f77b4"/>
   </g>
   <g id="patch_86">
    <path d="M 537.3 127.92 
C 537.3 127.92 537.3 127.92 537.3 127.92 
C 537.3 127.92 537.3 127.92 537.3 127.92 
L 537.289927 127.875866 
C 537.291247 127.875565 537.292581 127.875323 537.293923 127.875141 
C 537.295266 127.874959 537.296616 127.874838 537.297969 127.874777 
z
" clip-path="url(#p7bfef4897f)" style="fill: #1f77b4"/>
   </g>
   <g id="patch_87">
    <path d="M 537.3 127.92 
C 537.3 127.92 537.3 127.92 537.3 127.92 
C 537.3 127.92 537.3 127.92 537.3 127.92 
L 537.214591 127.720176 
C 537.220571 127.71762 537.226662 127.715333 537.232847 127.713324 
C 537.239032 127.711314 537.245304 127.709583 537.251644 127.708136 
z
" clip-path="url(#p7bfef4897f)" style="fill: #1f77b4"/>
   </g>
   <g id="patch_88">
    <path d="M 537.3 127.92 
C 537.3 127.92 537.3 127.92 537.3 127.92 
C 537.3 127.92 537.3 127.92 537.3 127.92 
L 537.3 127.92 
C 537.3 127.92 537.3 127.92 537.3 127.92 
C 537.3 127.92 537.3 127.92 537.3 127.92 
z
" clip-path="url(#p7bfef4897f)" style="fill: #1f77b4"/>
   </g>
   <g id="patch_89">
    <path d="M 537.3 127.92 
C 537.3 127.92 537.3 127.92 537.3 127.92 
C 537.3 127.92 537.3 127.92 537.3 127.92 
L 537.271465 127.890155 
C 537.272358 127.889301 537.273289 127.888487 537.274255 127.887717 
C 537.275221 127.886947 537.276221 127.88622 537.277253 127.885539 
z
" clip-path="url(#p7bfef4897f)" style="fill: #1f77b4"/>
   </g>
   <g id="patch_90">
    <path d="M 537.3 127.92 
C 537.3 127.92 537.3 127.92 537.3 127.92 
C 537.3 127.92 537.3 127.92 537.3 127.92 
L 537.3 127.92 
C 537.3 127.92 537.3 127.92 537.3 127.92 
C 537.3 127.92 537.3 127.92 537.3 127.92 
z
" clip-path="url(#p7bfef4897f)" style="fill: #1f77b4"/>
   </g>
   <g id="patch_91">
    <path d="M 537.3 127.92 
C 537.3 127.92 537.3 127.92 537.3 127.92 
C 537.3 127.92 537.3 127.92 537.3 127.92 
L 537.3 127.92 
C 537.3 127.92 537.3 127.92 537.3 127.92 
C 537.3 127.92 537.3 127.92 537.3 127.92 
z
" clip-path="url(#p7bfef4897f)" style="fill: #1f77b4"/>
   </g>
   <g id="patch_92">
    <path d="M 537.3 127.92 
C 537.3 127.92 537.3 127.92 537.3 127.92 
C 537.3 127.92 537.3 127.92 537.3 127.92 
L 536.830456 127.790414 
C 536.834334 127.776363 536.838841 127.762493 536.843962 127.748846 
C 536.849084 127.735199 536.854816 127.721789 536.86114 127.708656 
z
" clip-path="url(#p7bfef4897f)" style="fill: #1f77b4"/>
   </g>
   <g id="patch_93">
    <path d="M 537.3 127.92 
C 537.3 127.92 537.3 127.92 537.3 127.92 
C 537.3 127.92 537.3 127.92 537.3 127.92 
L 537.039331 127.896539 
C 537.040033 127.888739 537.041085 127.880974 537.042483 127.873268 
C 537.043882 127.865561 537.045626 127.857922 537.047709 127.850372 
z
" clip-path="url(#p7bfef4897f)" style="fill: #1f77b4"/>
   </g>
   <g id="patch_94">
    <path d="M 537.3 127.92 
C 537.3 127.92 537.3 127.92 537.3 127.92 
C 537.3 127.92 537.3 127.92 537.3 127.92 
L 537.3 127.92 
C 537.3 127.92 537.3 127.92 537.3 127.92 
C 537.3 127.92 537.3 127.92 537.3 127.92 
z
" clip-path="url(#p7bfef4897f)" style="fill: #1f77b4"/>
   </g>
   <g id="patch_95">
    <path d="M 537.3 127.92 
C 537.3 127.92 537.3 127.92 537.3 127.92 
C 537.3 127.92 537.3 127.92 537.3 127.92 
L 536.187246 128.227101 
C 536.178056 128.193802 536.170365 128.160107 536.164197 128.126118 
C 536.158029 128.092129 536.15339 128.05788 536.150293 128.023475 
z
" clip-path="url(#p7bfef4897f)" style="fill: #1f77b4"/>
   </g>
   <g id="patch_96">
    <path d="M 537.3 127.92 
C 537.3 127.92 537.3 127.92 537.3 127.92 
C 537.3 127.92 537.3 127.92 537.3 127.92 
L 537.098411 128.01708 
C 537.095506 128.011048 537.092873 128.004888 537.09052 127.998619 
C 537.088168 127.99235 537.086098 127.985979 537.084316 127.979525 
z
" clip-path="url(#p7bfef4897f)" style="fill: #1f77b4"/>
   </g>
   <g id="patch_97">
    <path d="M 537.3 127.92 
C 537.3 127.92 537.3 127.92 537.3 127.92 
C 537.3 127.92 537.3 127.92 537.3 127.92 
L 536.996215 128.140712 
C 536.989611 128.131622 536.983417 128.122239 536.977654 128.112593 
C 536.971891 128.102947 536.966563 128.093047 536.961688 128.082923 
z
" clip-path="url(#p7bfef4897f)" style="fill: #1f77b4"/>
   </g>
   <g id="patch_98">
    <path d="M 537.3 127.92 
C 537.3 127.92 537.3 127.92 537.3 127.92 
C 537.3 127.92 537.3 127.92 537.3 127.92 
L 537.082589 128.147394 
C 537.075784 128.140888 537.069275 128.13408 537.063081 128.12699 
C 537.056887 128.1199 537.051014 128.112536 537.04548 128.10492 
z
" clip-path="url(#p7bfef4897f)" style="fill: #1f77b4"/>
   </g>
   <g id="patch_99">
    <path d="M 537.3 127.92 
C 537.3 127.92 537.3 127.92 537.3 127.92 
C 537.3 127.92 537.3 127.92 537.3 127.92 
L 537.3 127.92 
C 537.3 127.92 537.3 127.92 537.3 127.92 
C 537.3 127.92 537.3 127.92 537.3 127.92 
z
" clip-path="url(#p7bfef4897f)" style="fill: #1f77b4"/>
   </g>
   <g id="patch_100">
    <path d="M 537.3 127.92 
C 537.3 127.92 537.3 127.92 537.3 127.92 
C 537.3 127.92 537.3 127.92 537.3 127.92 
L 537.180222 128.200234 
C 537.171836 128.19665 537.163615 128.192691 537.155584 128.188369 
C 537.147553 128.184048 537.13972 128.179368 537.132109 128.174344 
z
" clip-path="url(#p7bfef4897f)" style="fill: #1f77b4"/>
   </g>
   <g id="patch_101">
    <path d="M 537.3 127.92 
C 537.3 127.92 537.3 127.92 537.3 127.92 
C 537.3 127.92 537.3 127.92 537.3 127.92 
L 537.055552 128.990997 
C 537.023502 128.983682 536.991797 128.974932 536.960533 128.964773 
C 536.929268 128.954615 536.898475 128.943058 536.868246 128.930138 
z
" clip-path="url(#p7bfef4897f)" style="fill: #1f77b4"/>
   </g>
   <g id="patch_102">
    <path d="M 537.3 127.92 
C 537.3 127.92 537.3 127.92 537.3 127.92 
C 537.3 127.92 537.3 127.92 537.3 127.92 
L 537.273434 128.511535 
C 537.255732 128.51074 537.238075 128.509151 537.220516 128.506772 
C 537.202957 128.504394 537.185514 128.501228 537.168238 128.497285 
z
" clip-path="url(#p7bfef4897f)" style="fill: #1f77b4"/>
   </g>
   <g id="patch_103">
    <path d="M 537.3 127.92 
C 537.3 127.92 537.3 127.92 537.3 127.92 
C 537.3 127.92 537.3 127.92 537.3 127.92 
L 537.430193 128.881124 
C 537.401432 128.88502 537.37251 128.887623 537.343514 128.888925 
C 537.314519 128.890227 537.285481 128.890227 537.256486 128.888925 
z
" clip-path="url(#p7bfef4897f)" style="fill: #1f77b4"/>
   </g>
   <g id="patch_104">
    <path d="M 537.3 127.92 
C 537.3 127.92 537.3 127.92 537.3 127.92 
C 537.3 127.92 537.3 127.92 537.3 127.92 
L 539.441941 134.512218 
C 539.24467 134.576315 539.04462 134.631526 538.842397 134.677682 
C 538.640173 134.723838 538.43598 134.760894 538.230434 134.788737 
z
" clip-path="url(#p7bfef4897f)" style="fill: #1f77b4"/>
   </g>
   <g id="patch_105">
    <path d="M 537.3 127.92 
C 537.3 127.92 537.3 127.92 537.3 127.92 
C 537.3 127.92 537.3 127.92 537.3 127.92 
L 539.438297 131.893622 
C 539.319387 131.95761 539.197664 132.016229 539.073496 132.069301 
C 538.949329 132.122372 538.822841 132.169844 538.694416 132.211572 
z
" clip-path="url(#p7bfef4897f)" style="fill: #1f77b4"/>
   </g>
   <g id="patch_106">
    <path d="M 537.3 127.92 
C 537.3 127.92 537.3 127.92 537.3 127.92 
C 537.3 127.92 537.3 127.92 537.3 127.92 
L 540.022174 131.333499 
C 539.920026 131.41496 539.814272 131.491794 539.705232 131.563771 
C 539.596192 131.635747 539.483977 131.702793 539.368924 131.764705 
z
" clip-path="url(#p7bfef4897f)" style="fill: #1f77b4"/>
   </g>
   <g id="patch_107">
    <path d="M 537.3 127.92 
C 537.3 127.92 537.3 127.92 537.3 127.92 
C 537.3 127.92 537.3 127.92 537.3 127.92 
L 538.967838 129.377146 
C 538.924233 129.427056 538.87841 129.474984 538.830506 129.520784 
C 538.782603 129.566585 538.732668 129.610212 538.680852 129.651533 
z
" clip-path="url(#p7bfef4897f)" style="fill: #1f77b4"/>
   </g>
   <g id="patch_108">
    <path d="M 537.3 127.92 
C 537.3 127.92 537.3 127.92 537.3 127.92 
C 537.3 127.92 537.3 127.92 537.3 127.92 
L 539.192042 129.050442 
C 539.158213 129.107062 539.12186 129.162134 539.083093 129.215493 
C 539.044325 129.268852 539.003182 129.320444 538.959788 129.370113 
z
" clip-path="url(#p7bfef4897f)" style="fill: #1f77b4"/>
   </g>
   <g id="patch_109">
    <path d="M 537.3 127.92 
C 537.3 127.92 537.3 127.92 537.3 127.92 
C 537.3 127.92 537.3 127.92 537.3 127.92 
L 539.947697 128.913697 
C 539.917961 128.99293 539.884683 129.070787 539.847964 129.147035 
C 539.811245 129.223283 539.771122 129.297844 539.727716 129.370493 
z
" clip-path="url(#p7bfef4897f)" style="fill: #1f77b4"/>
   </g>
   <g id="patch_110">
    <path d="M 537.3 127.92 
C 537.3 127.92 537.3 127.92 537.3 127.92 
C 537.3 127.92 537.3 127.92 537.3 127.92 
L 542.601708 128.882118 
C 542.572917 129.040772 542.537019 129.198053 542.494122 129.353487 
C 542.451225 129.50892 542.401372 129.66235 542.344715 129.813313 
z
" clip-path="url(#p7bfef4897f)" style="fill: #1f77b4"/>
   </g>
   <g id="patch_111">
    <path d="M 537.3 127.92 
C 537.3 127.92 537.3 127.92 537.3 127.92 
C 537.3 127.92 537.3 127.92 537.3 127.92 
L 583.377374 127.92 
C 583.377374 129.298863 583.31548 130.677032 583.19188 132.050344 
C 583.068279 133.423656 582.883097 134.790729 582.636891 136.147433 
z
" clip-path="url(#p7bfef4897f)" style="fill: #1f77b4"/>
   </g>
   <g id="matplotlib.axis_5">
    <g id="xtick_17">
     <g id="line2d_17">
      <path d="M 537.3 127.92 
L 604.847059 127.92 
" clip-path="url(#p7bfef4897f)" style="fill: none; stroke: #b0b0b0; stroke-width: 0.8; stroke-linecap: square"/>
     </g>
     <g id="text_19">
      <!-- E -->
      <g transform="translate(615.687684 130.679375) scale(0.1 -0.1)">
       <use xlink:href="#DejaVuSans-45"/>
      </g>
     </g>
    </g>
    <g id="xtick_18">
     <g id="line2d_18">
      <path d="M 537.3 127.92 
L 585.062983 80.157017 
" clip-path="url(#p7bfef4897f)" style="fill: none; stroke: #b0b0b0; stroke-width: 0.8; stroke-linecap: square"/>
     </g>
     <g id="text_20">
      <!-- NE -->
      <g transform="translate(588.062478 73.016897) scale(0.1 -0.1)">
       <use xlink:href="#DejaVuSans-4e"/>
       <use xlink:href="#DejaVuSans-45" x="74.804688"/>
      </g>
     </g>
    </g>
    <g id="xtick_19">
     <g id="line2d_19">
      <path d="M 537.3 127.92 
L 537.3 60.372941 
" clip-path="url(#p7bfef4897f)" style="fill: none; stroke: #b0b0b0; stroke-width: 0.8; stroke-linecap: square"/>
     </g>
     <g id="text_21">
      <!-- N -->
      <g transform="translate(533.559375 49.132316) scale(0.1 -0.1)">
       <use xlink:href="#DejaVuSans-4e"/>
      </g>
     </g>
    </g>
    <g id="xtick_20">
     <g id="line2d_20">
      <path d="M 537.3 127.92 
L 489.537017 80.157017 
" clip-path="url(#p7bfef4897f)" style="fill: none; stroke: #b0b0b0; stroke-width: 0.8; stroke-linecap: square"/>
     </g>
     <g id="text_22">
      <!-- NW -->
      <g transform="translate(470.953147 73.016897) scale(0.1 -0.1)">
       <use xlink:href="#DejaVuSans-4e"/>
       <use xlink:href="#DejaVuSans-57" x="74.804688"/>
      </g>
     </g>
    </g>
    <g id="xtick_21">
     <g id="line2d_21">
      <path d="M 537.3 127.92 
L 469.752941 127.92 
" clip-path="url(#p7bfef4897f)" style="fill: none; stroke: #b0b0b0; stroke-width: 0.8; stroke-linecap: square"/>
     </g>
     <g id="text_23">
      <!-- W -->
      <g transform="translate(450.809191 130.679375) scale(0.1 -0.1)">
       <use xlink:href="#DejaVuSans-57"/>
      </g>
     </g>
    </g>
    <g id="xtick_22">
     <g id="line2d_22">
      <path d="M 537.3 127.92 
L 489.537017 175.682983 
" clip-path="url(#p7bfef4897f)" style="fill: none; stroke: #b0b0b0; stroke-width: 0.8; stroke-linecap: square"/>
     </g>
     <g id="text_24">
      <!-- SW -->
      <g transform="translate(471.519553 188.341853) scale(0.1 -0.1)">
       <use xlink:href="#DejaVuSans-53"/>
       <use xlink:href="#DejaVuSans-57" x="63.476562"/>
      </g>
     </g>
    </g>
    <g id="xtick_23">
     <g id="line2d_23">
      <path d="M 537.3 127.92 
L 537.3 195.467059 
" clip-path="url(#p7bfef4897f)" style="fill: none; stroke: #b0b0b0; stroke-width: 0.8; stroke-linecap: square"/>
     </g>
     <g id="text_25">
      <!-- S -->
      <g transform="translate(534.125781 212.226434) scale(0.1 -0.1)">
       <use xlink:href="#DejaVuSans-53"/>
      </g>
     </g>
    </g>
    <g id="xtick_24">
     <g id="line2d_24">
      <path d="M 537.3 127.92 
L 585.062983 175.682983 
" clip-path="url(#p7bfef4897f)" style="fill: none; stroke: #b0b0b0; stroke-width: 0.8; stroke-linecap: square"/>
     </g>
     <g id="text_26">
      <!-- SE -->
      <g transform="translate(588.628885 188.341853) scale(0.1 -0.1)">
       <use xlink:href="#DejaVuSans-53"/>
       <use xlink:href="#DejaVuSans-45" x="63.476562"/>
      </g>
     </g>
    </g>
   </g>
   <g id="matplotlib.axis_6"/>
   <g id="LineCollection_3">
    <path d="M 537.3 127.92 
L 601.103578 136.137102 
" clip-path="url(#p7bfef4897f)" style="fill: none; stroke-dasharray: 5.55,2.4; stroke-dashoffset: 0; stroke: #ff0000; stroke-opacity: 0.5; stroke-width: 1.5"/>
   </g>
   <g id="patch_112">
    <path d="M 604.847059 127.92 
C 604.847059 119.049802 603.099823 110.265855 599.705345 102.07086 
C 596.310867 93.875865 591.335161 86.429194 585.062983 80.157017 
C 578.790806 73.884839 571.344135 68.909133 563.14914 65.514655 
C 554.954145 62.120177 546.170198 60.372941 537.3 60.372941 
C 528.429802 60.372941 519.645855 62.120177 511.45086 65.514655 
C 503.255865 68.909133 495.809194 73.884839 489.537017 80.157017 
C 483.264839 86.429194 478.289133 93.875865 474.894655 102.07086 
C 471.500177 110.265855 469.752941 119.049802 469.752941 127.92 
C 469.752941 136.790198 471.500177 145.574145 474.894655 153.76914 
C 478.289133 161.964135 483.264839 169.410806 489.537017 175.682983 
C 495.809194 181.955161 503.255865 186.930867 511.45086 190.325345 
C 519.645855 193.719823 528.429802 195.467059 537.3 195.467059 
C 546.170198 195.467059 554.954145 193.719823 563.14914 190.325345 
C 571.344135 186.930867 578.790806 181.955161 585.062983 175.682983 
C 591.335161 169.410806 596.310867 161.964135 599.705345 153.76914 
C 603.099823 145.574145 604.847059 136.790198 604.847059 127.92 
" style="fill: none; stroke: #000000; stroke-width: 0.8; stroke-linejoin: miter; stroke-linecap: square"/>
   </g>
   <g id="text_27">
    <!-- Bedford to Sandy -->
    <g transform="translate(485.2425 35.533879) scale(0.12 -0.12)">
     <defs>
      <path id="DejaVuSans-79" d="M 2059 -325 
Q 1816 -950 1584 -1140 
Q 1353 -1331 966 -1331 
L 506 -1331 
L 506 -850 
L 844 -850 
Q 1081 -850 1212 -737 
Q 1344 -625 1503 -206 
L 1606 56 
L 191 3500 
L 800 3500 
L 1894 763 
L 2988 3500 
L 3597 3500 
L 2059 -325 
z
" transform="scale(0.015625)"/>
     </defs>
     <use xlink:href="#DejaVuSans-42"/>
     <use xlink:href="#DejaVuSans-65" x="68.603516"/>
     <use xlink:href="#DejaVuSans-64" x="130.126953"/>
     <use xlink:href="#DejaVuSans-66" x="193.603516"/>
     <use xlink:href="#DejaVuSans-6f" x="228.808594"/>
     <use xlink:href="#DejaVuSans-72" x="289.990234"/>
     <use xlink:href="#DejaVuSans-64" x="329.353516"/>
     <use xlink:href="#DejaVuSans-20" x="392.830078"/>
     <use xlink:href="#DejaVuSans-74" x="424.617188"/>
     <use xlink:href="#DejaVuSans-6f" x="463.826172"/>
     <use xlink:href="#DejaVuSans-20" x="525.007812"/>
     <use xlink:href="#DejaVuSans-53" x="556.794922"/>
     <use xlink:href="#DejaVuSans-61" x="620.271484"/>
     <use xlink:href="#DejaVuSans-6e" x="681.550781"/>
     <use xlink:href="#DejaVuSans-64" x="744.929688"/>
     <use xlink:href="#DejaVuSans-79" x="808.40625"/>
    </g>
   </g>
  </g>
  <g id="text_28">
   <!-- Individual bikes (not normalized) -->
   <g transform="translate(225.659063 13.438125) scale(0.12 -0.12)">
    <defs>
     <path id="DejaVuSans-49" d="M 628 4666 
L 1259 4666 
L 1259 0 
L 628 0 
L 628 4666 
z
" transform="scale(0.015625)"/>
     <path id="DejaVuSans-76" d="M 191 3500 
L 800 3500 
L 1894 563 
L 2988 3500 
L 3597 3500 
L 2284 0 
L 1503 0 
L 191 3500 
z
" transform="scale(0.015625)"/>
     <path id="DejaVuSans-75" d="M 544 1381 
L 544 3500 
L 1119 3500 
L 1119 1403 
Q 1119 906 1312 657 
Q 1506 409 1894 409 
Q 2359 409 2629 706 
Q 2900 1003 2900 1516 
L 2900 3500 
L 3475 3500 
L 3475 0 
L 2900 0 
L 2900 538 
Q 2691 219 2414 64 
Q 2138 -91 1772 -91 
Q 1169 -91 856 284 
Q 544 659 544 1381 
z
M 1991 3584 
L 1991 3584 
z
" transform="scale(0.015625)"/>
     <path id="DejaVuSans-6c" d="M 603 4863 
L 1178 4863 
L 1178 0 
L 603 0 
L 603 4863 
z
" transform="scale(0.015625)"/>
     <path id="DejaVuSans-62" d="M 3116 1747 
Q 3116 2381 2855 2742 
Q 2594 3103 2138 3103 
Q 1681 3103 1420 2742 
Q 1159 2381 1159 1747 
Q 1159 1113 1420 752 
Q 1681 391 2138 391 
Q 2594 391 2855 752 
Q 3116 1113 3116 1747 
z
M 1159 2969 
Q 1341 3281 1617 3432 
Q 1894 3584 2278 3584 
Q 2916 3584 3314 3078 
Q 3713 2572 3713 1747 
Q 3713 922 3314 415 
Q 2916 -91 2278 -91 
Q 1894 -91 1617 61 
Q 1341 213 1159 525 
L 1159 0 
L 581 0 
L 581 4863 
L 1159 4863 
L 1159 2969 
z
" transform="scale(0.015625)"/>
     <path id="DejaVuSans-6b" d="M 581 4863 
L 1159 4863 
L 1159 1991 
L 2875 3500 
L 3609 3500 
L 1753 1863 
L 3688 0 
L 2938 0 
L 1159 1709 
L 1159 0 
L 581 0 
L 581 4863 
z
" transform="scale(0.015625)"/>
     <path id="DejaVuSans-28" d="M 1984 4856 
Q 1566 4138 1362 3434 
Q 1159 2731 1159 2009 
Q 1159 1288 1364 580 
Q 1569 -128 1984 -844 
L 1484 -844 
Q 1016 -109 783 600 
Q 550 1309 550 2009 
Q 550 2706 781 3412 
Q 1013 4119 1484 4856 
L 1984 4856 
z
" transform="scale(0.015625)"/>
     <path id="DejaVuSans-7a" d="M 353 3500 
L 3084 3500 
L 3084 2975 
L 922 459 
L 3084 459 
L 3084 0 
L 275 0 
L 275 525 
L 2438 3041 
L 353 3041 
L 353 3500 
z
" transform="scale(0.015625)"/>
     <path id="DejaVuSans-29" d="M 513 4856 
L 1013 4856 
Q 1481 4119 1714 3412 
Q 1947 2706 1947 2009 
Q 1947 1309 1714 600 
Q 1481 -109 1013 -844 
L 513 -844 
Q 928 -128 1133 580 
Q 1338 1288 1338 2009 
Q 1338 2731 1133 3434 
Q 928 4138 513 4856 
z
" transform="scale(0.015625)"/>
    </defs>
    <use xlink:href="#DejaVuSans-49"/>
    <use xlink:href="#DejaVuSans-6e" x="29.492188"/>
    <use xlink:href="#DejaVuSans-64" x="92.871094"/>
    <use xlink:href="#DejaVuSans-69" x="156.347656"/>
    <use xlink:href="#DejaVuSans-76" x="184.130859"/>
    <use xlink:href="#DejaVuSans-69" x="243.310547"/>
    <use xlink:href="#DejaVuSans-64" x="271.09375"/>
    <use xlink:href="#DejaVuSans-75" x="334.570312"/>
    <use xlink:href="#DejaVuSans-61" x="397.949219"/>
    <use xlink:href="#DejaVuSans-6c" x="459.228516"/>
    <use xlink:href="#DejaVuSans-20" x="487.011719"/>
    <use xlink:href="#DejaVuSans-62" x="518.798828"/>
    <use xlink:href="#DejaVuSans-69" x="582.275391"/>
    <use xlink:href="#DejaVuSans-6b" x="610.058594"/>
    <use xlink:href="#DejaVuSans-65" x="664.34375"/>
    <use xlink:href="#DejaVuSans-73" x="725.867188"/>
    <use xlink:href="#DejaVuSans-20" x="777.966797"/>
    <use xlink:href="#DejaVuSans-28" x="809.753906"/>
    <use xlink:href="#DejaVuSans-6e" x="848.767578"/>
    <use xlink:href="#DejaVuSans-6f" x="912.146484"/>
    <use xlink:href="#DejaVuSans-74" x="973.328125"/>
    <use xlink:href="#DejaVuSans-20" x="1012.537109"/>
    <use xlink:href="#DejaVuSans-6e" x="1044.324219"/>
    <use xlink:href="#DejaVuSans-6f" x="1107.703125"/>
    <use xlink:href="#DejaVuSans-72" x="1168.884766"/>
    <use xlink:href="#DejaVuSans-6d" x="1208.248047"/>
    <use xlink:href="#DejaVuSans-61" x="1305.660156"/>
    <use xlink:href="#DejaVuSans-6c" x="1366.939453"/>
    <use xlink:href="#DejaVuSans-69" x="1394.722656"/>
    <use xlink:href="#DejaVuSans-7a" x="1422.505859"/>
    <use xlink:href="#DejaVuSans-65" x="1474.996094"/>
    <use xlink:href="#DejaVuSans-64" x="1536.519531"/>
    <use xlink:href="#DejaVuSans-29" x="1599.996094"/>
   </g>
  </g>
 </g>
 <defs>
  <clipPath id="p6528d2364d">
   <path d="M 180.047059 127.92 
C 180.047059 119.049802 178.299823 110.265855 174.905345 102.07086 
C 171.510867 93.875865 166.535161 86.429194 160.262983 80.157017 
C 153.990806 73.884839 146.544135 68.909133 138.34914 65.514655 
C 130.154145 62.120177 121.370198 60.372941 112.5 60.372941 
C 103.629802 60.372941 94.845855 62.120177 86.65086 65.514655 
C 78.455865 68.909133 71.009194 73.884839 64.737017 80.157017 
C 58.464839 86.429194 53.489133 93.875865 50.094655 102.07086 
C 46.700177 110.265855 44.952941 119.049802 44.952941 127.92 
C 44.952941 136.790198 46.700177 145.574145 50.094655 153.76914 
C 53.489133 161.964135 58.464839 169.410806 64.737017 175.682983 
C 71.009194 181.955161 78.455865 186.930867 86.65086 190.325345 
C 94.845855 193.719823 103.629802 195.467059 112.5 195.467059 
C 121.370198 195.467059 130.154145 193.719823 138.34914 190.325345 
C 146.544135 186.930867 153.990806 181.955161 160.262983 175.682983 
C 166.535161 169.410806 171.510867 161.964135 174.905345 153.76914 
C 178.299823 145.574145 180.047059 136.790198 180.047059 127.92 
M 112.5 127.92 
C 112.5 127.92 112.5 127.92 112.5 127.92 
C 112.5 127.92 112.5 127.92 112.5 127.92 
C 112.5 127.92 112.5 127.92 112.5 127.92 
C 112.5 127.92 112.5 127.92 112.5 127.92 
C 112.5 127.92 112.5 127.92 112.5 127.92 
C 112.5 127.92 112.5 127.92 112.5 127.92 
C 112.5 127.92 112.5 127.92 112.5 127.92 
C 112.5 127.92 112.5 127.92 112.5 127.92 
C 112.5 127.92 112.5 127.92 112.5 127.92 
C 112.5 127.92 112.5 127.92 112.5 127.92 
C 112.5 127.92 112.5 127.92 112.5 127.92 
C 112.5 127.92 112.5 127.92 112.5 127.92 
C 112.5 127.92 112.5 127.92 112.5 127.92 
C 112.5 127.92 112.5 127.92 112.5 127.92 
C 112.5 127.92 112.5 127.92 112.5 127.92 
C 112.5 127.92 112.5 127.92 112.5 127.92 
M 180.047059 127.92 
z
"/>
  </clipPath>
  <clipPath id="p33efedc5a2">
   <path d="M 392.447059 127.92 
C 392.447059 119.049802 390.699823 110.265855 387.305345 102.07086 
C 383.910867 93.875865 378.935161 86.429194 372.662983 80.157017 
C 366.390806 73.884839 358.944135 68.909133 350.74914 65.514655 
C 342.554145 62.120177 333.770198 60.372941 324.9 60.372941 
C 316.029802 60.372941 307.245855 62.120177 299.05086 65.514655 
C 290.855865 68.909133 283.409194 73.884839 277.137017 80.157017 
C 270.864839 86.429194 265.889133 93.875865 262.494655 102.07086 
C 259.100177 110.265855 257.352941 119.049802 257.352941 127.92 
C 257.352941 136.790198 259.100177 145.574145 262.494655 153.76914 
C 265.889133 161.964135 270.864839 169.410806 277.137017 175.682983 
C 283.409194 181.955161 290.855865 186.930867 299.05086 190.325345 
C 307.245855 193.719823 316.029802 195.467059 324.9 195.467059 
C 333.770198 195.467059 342.554145 193.719823 350.74914 190.325345 
C 358.944135 186.930867 366.390806 181.955161 372.662983 175.682983 
C 378.935161 169.410806 383.910867 161.964135 387.305345 153.76914 
C 390.699823 145.574145 392.447059 136.790198 392.447059 127.92 
M 324.9 127.92 
C 324.9 127.92 324.9 127.92 324.9 127.92 
C 324.9 127.92 324.9 127.92 324.9 127.92 
C 324.9 127.92 324.9 127.92 324.9 127.92 
C 324.9 127.92 324.9 127.92 324.9 127.92 
C 324.9 127.92 324.9 127.92 324.9 127.92 
C 324.9 127.92 324.9 127.92 324.9 127.92 
C 324.9 127.92 324.9 127.92 324.9 127.92 
C 324.9 127.92 324.9 127.92 324.9 127.92 
C 324.9 127.92 324.9 127.92 324.9 127.92 
C 324.9 127.92 324.9 127.92 324.9 127.92 
C 324.9 127.92 324.9 127.92 324.9 127.92 
C 324.9 127.92 324.9 127.92 324.9 127.92 
C 324.9 127.92 324.9 127.92 324.9 127.92 
C 324.9 127.92 324.9 127.92 324.9 127.92 
C 324.9 127.92 324.9 127.92 324.9 127.92 
C 324.9 127.92 324.9 127.92 324.9 127.92 
M 392.447059 127.92 
z
"/>
  </clipPath>
  <clipPath id="p7bfef4897f">
   <path d="M 604.847059 127.92 
C 604.847059 119.049802 603.099823 110.265855 599.705345 102.07086 
C 596.310867 93.875865 591.335161 86.429194 585.062983 80.157017 
C 578.790806 73.884839 571.344135 68.909133 563.14914 65.514655 
C 554.954145 62.120177 546.170198 60.372941 537.3 60.372941 
C 528.429802 60.372941 519.645855 62.120177 511.45086 65.514655 
C 503.255865 68.909133 495.809194 73.884839 489.537017 80.157017 
C 483.264839 86.429194 478.289133 93.875865 474.894655 102.07086 
C 471.500177 110.265855 469.752941 119.049802 469.752941 127.92 
C 469.752941 136.790198 471.500177 145.574145 474.894655 153.76914 
C 478.289133 161.964135 483.264839 169.410806 489.537017 175.682983 
C 495.809194 181.955161 503.255865 186.930867 511.45086 190.325345 
C 519.645855 193.719823 528.429802 195.467059 537.3 195.467059 
C 546.170198 195.467059 554.954145 193.719823 563.14914 190.325345 
C 571.344135 186.930867 578.790806 181.955161 585.062983 175.682983 
C 591.335161 169.410806 596.310867 161.964135 599.705345 153.76914 
C 603.099823 145.574145 604.847059 136.790198 604.847059 127.92 
M 537.3 127.92 
C 537.3 127.92 537.3 127.92 537.3 127.92 
C 537.3 127.92 537.3 127.92 537.3 127.92 
C 537.3 127.92 537.3 127.92 537.3 127.92 
C 537.3 127.92 537.3 127.92 537.3 127.92 
C 537.3 127.92 537.3 127.92 537.3 127.92 
C 537.3 127.92 537.3 127.92 537.3 127.92 
C 537.3 127.92 537.3 127.92 537.3 127.92 
C 537.3 127.92 537.3 127.92 537.3 127.92 
C 537.3 127.92 537.3 127.92 537.3 127.92 
C 537.3 127.92 537.3 127.92 537.3 127.92 
C 537.3 127.92 537.3 127.92 537.3 127.92 
C 537.3 127.92 537.3 127.92 537.3 127.92 
C 537.3 127.92 537.3 127.92 537.3 127.92 
C 537.3 127.92 537.3 127.92 537.3 127.92 
C 537.3 127.92 537.3 127.92 537.3 127.92 
C 537.3 127.92 537.3 127.92 537.3 127.92 
M 604.847059 127.92 
z
"/>
  </clipPath>
 </defs>
</svg>
