<?xml version="1.0" encoding="utf-8" standalone="no"?>
<!DOCTYPE svg PUBLIC "-//W3C//DTD SVG 1.1//EN"
  "http://www.w3.org/Graphics/SVG/1.1/DTD/svg11.dtd">
<svg xmlns:xlink="http://www.w3.org/1999/xlink" width="288pt" height="288pt" viewBox="0 0 288 288" xmlns="http://www.w3.org/2000/svg" version="1.1">
 <metadata>
  <rdf:RDF xmlns:dc="http://purl.org/dc/elements/1.1/" xmlns:cc="http://creativecommons.org/ns#" xmlns:rdf="http://www.w3.org/1999/02/22-rdf-syntax-ns#">
   <cc:Work>
    <dc:type rdf:resource="http://purl.org/dc/dcmitype/StillImage"/>
    <dc:date>2023-05-08T15:57:00.322601</dc:date>
    <dc:format>image/svg+xml</dc:format>
    <dc:creator>
     <cc:Agent>
      <dc:title>Matplotlib v3.6.2, https://matplotlib.org/</dc:title>
     </cc:Agent>
    </dc:creator>
   </cc:Work>
  </rdf:RDF>
 </metadata>
 <defs>
  <style type="text/css">*{stroke-linejoin: round; stroke-linecap: butt}</style>
 </defs>
 <g id="figure_1">
  <g id="patch_1">
   <path d="M 0 288 
L 288 288 
L 288 0 
L 0 0 
L 0 288 
z
" style="fill: none"/>
  </g>
  <g id="axes_1">
   <g id="patch_2">
    <path d="M 258.48 145.44 
C 258.48 130.879372 255.611874 116.460327 250.039763 103.008061 
C 244.467651 89.555795 236.299919 77.331919 226.004 67.036 
C 215.708081 56.740081 203.484205 48.572349 190.031939 43.000237 
C 176.579673 37.428126 162.160628 34.56 147.6 34.56 
C 133.039372 34.56 118.620327 37.428126 105.168061 43.000237 
C 91.715795 48.572349 79.491919 56.740081 69.196 67.036 
C 58.900081 77.331919 50.732349 89.555795 45.160237 103.008061 
C 39.588126 116.460327 36.72 130.879372 36.72 145.44 
C 36.72 160.000628 39.588126 174.419673 45.160237 187.871939 
C 50.732349 201.324205 58.900081 213.548081 69.196 223.844 
C 79.491919 234.139919 91.715795 242.307651 105.168061 247.879763 
C 118.620327 253.451874 133.039372 256.32 147.6 256.32 
C 162.160628 256.32 176.579673 253.451874 190.031939 247.879763 
C 203.484205 242.307651 215.708081 234.139919 226.004 223.844 
C 236.299919 213.548081 244.467651 201.324205 250.039763 187.871939 
C 255.611874 174.419673 258.48 160.000628 258.48 145.44 
M 147.6 145.44 
C 147.6 145.44 147.6 145.44 147.6 145.44 
C 147.6 145.44 147.6 145.44 147.6 145.44 
C 147.6 145.44 147.6 145.44 147.6 145.44 
C 147.6 145.44 147.6 145.44 147.6 145.44 
C 147.6 145.44 147.6 145.44 147.6 145.44 
C 147.6 145.44 147.6 145.44 147.6 145.44 
C 147.6 145.44 147.6 145.44 147.6 145.44 
C 147.6 145.44 147.6 145.44 147.6 145.44 
C 147.6 145.44 147.6 145.44 147.6 145.44 
C 147.6 145.44 147.6 145.44 147.6 145.44 
C 147.6 145.44 147.6 145.44 147.6 145.44 
C 147.6 145.44 147.6 145.44 147.6 145.44 
C 147.6 145.44 147.6 145.44 147.6 145.44 
C 147.6 145.44 147.6 145.44 147.6 145.44 
C 147.6 145.44 147.6 145.44 147.6 145.44 
C 147.6 145.44 147.6 145.44 147.6 145.44 
M 258.48 145.44 
L 258.48 145.44 
z
" style="fill: none"/>
   </g>
   <g id="patch_3">
    <path d="M 147.6 145.44 
C 147.6 145.44 147.6 145.44 147.6 145.44 
C 147.6 145.44 147.6 145.44 147.6 145.44 
L 245.11641 127.743381 
C 245.645981 130.661554 246.044295 133.602029 246.310151 136.555926 
C 246.576006 139.509822 246.709135 142.474164 246.709135 145.44 
z
" clip-path="url(#p80761ce460)" style="fill: #1f77b4"/>
   </g>
   <g id="patch_4">
    <path d="M 147.6 145.44 
C 147.6 145.44 147.6 145.44 147.6 145.44 
C 147.6 145.44 147.6 145.44 147.6 145.44 
L 203.46084 124.475076 
C 204.088215 126.146709 204.640238 127.845661 205.115242 129.566802 
C 205.590247 131.287943 205.987755 133.029538 206.306565 134.786329 
z
" clip-path="url(#p80761ce460)" style="fill: #1f77b4"/>
   </g>
   <g id="patch_5">
    <path d="M 147.6 145.44 
C 147.6 145.44 147.6 145.44 147.6 145.44 
C 147.6 145.44 147.6 145.44 147.6 145.44 
L 184.842517 123.188632 
C 185.508388 124.303112 186.123898 125.446921 186.687187 126.616603 
C 187.250476 127.786285 187.760977 128.980663 188.21715 130.196129 
z
" clip-path="url(#p80761ce460)" style="fill: #1f77b4"/>
   </g>
   <g id="patch_6">
    <path d="M 147.6 145.44 
C 147.6 145.44 147.6 145.44 147.6 145.44 
C 147.6 145.44 147.6 145.44 147.6 145.44 
L 165.191388 130.070867 
C 165.651309 130.597288 166.087368 131.144089 166.498249 131.709619 
C 166.90913 132.275148 167.294419 132.858835 167.652952 133.458919 
z
" clip-path="url(#p80761ce460)" style="fill: #1f77b4"/>
   </g>
   <g id="patch_7">
    <path d="M 147.6 145.44 
C 147.6 145.44 147.6 145.44 147.6 145.44 
C 147.6 145.44 147.6 145.44 147.6 145.44 
L 155.969805 134.944596 
C 156.283879 135.195062 156.586553 135.4595 156.876911 135.737111 
C 157.16727 136.014723 157.445021 136.305227 157.709325 136.607748 
z
" clip-path="url(#p80761ce460)" style="fill: #1f77b4"/>
   </g>
   <g id="patch_8">
    <path d="M 147.6 145.44 
C 147.6 145.44 147.6 145.44 147.6 145.44 
C 147.6 145.44 147.6 145.44 147.6 145.44 
L 153.127091 135.168943 
C 153.434452 135.334341 153.734234 135.513452 154.025531 135.705736 
C 154.316829 135.89802 154.599348 136.103282 154.872237 136.320903 
z
" clip-path="url(#p80761ce460)" style="fill: #1f77b4"/>
   </g>
   <g id="patch_9">
    <path d="M 147.6 145.44 
C 147.6 145.44 147.6 145.44 147.6 145.44 
C 147.6 145.44 147.6 145.44 147.6 145.44 
L 148.948285 141.290407 
C 149.072461 141.330754 149.194764 141.376655 149.314823 141.427971 
C 149.434883 141.479287 149.552579 141.535967 149.667555 141.597838 
z
" clip-path="url(#p80761ce460)" style="fill: #1f77b4"/>
   </g>
   <g id="patch_10">
    <path d="M 147.6 145.44 
C 147.6 145.44 147.6 145.44 147.6 145.44 
C 147.6 145.44 147.6 145.44 147.6 145.44 
L 148.057333 142.063832 
C 148.158365 142.077517 148.258731 142.095731 148.358129 142.118418 
C 148.457528 142.141105 148.555857 142.168243 148.652822 142.199748 
z
" clip-path="url(#p80761ce460)" style="fill: #1f77b4"/>
   </g>
   <g id="patch_11">
    <path d="M 147.6 145.44 
C 147.6 145.44 147.6 145.44 147.6 145.44 
C 147.6 145.44 147.6 145.44 147.6 145.44 
L 147.533746 143.964731 
C 147.577893 143.962748 147.622107 143.962748 147.666254 143.964731 
C 147.710402 143.966713 147.754438 143.970677 147.79823 143.976609 
z
" clip-path="url(#p80761ce460)" style="fill: #1f77b4"/>
   </g>
   <g id="patch_12">
    <path d="M 147.6 145.44 
C 147.6 145.44 147.6 145.44 147.6 145.44 
C 147.6 145.44 147.6 145.44 147.6 145.44 
L 147.129173 143.377171 
C 147.190903 143.363081 147.253234 143.35177 147.315979 143.34327 
C 147.378723 143.334771 147.441818 143.329092 147.505071 143.326252 
z
" clip-path="url(#p80761ce460)" style="fill: #1f77b4"/>
   </g>
   <g id="patch_13">
    <path d="M 147.6 145.44 
C 147.6 145.44 147.6 145.44 147.6 145.44 
C 147.6 145.44 147.6 145.44 147.6 145.44 
L 146.317524 142.439498 
C 146.407314 142.40112 146.498781 142.366792 146.59165 142.336617 
C 146.684518 142.306442 146.778695 142.280451 146.873894 142.258723 
z
" clip-path="url(#p80761ce460)" style="fill: #1f77b4"/>
   </g>
   <g id="patch_14">
    <path d="M 147.6 145.44 
C 147.6 145.44 147.6 145.44 147.6 145.44 
C 147.6 145.44 147.6 145.44 147.6 145.44 
L 146.383752 143.597463 
C 146.43889 143.561067 146.495634 143.527164 146.553812 143.495857 
C 146.61199 143.46455 146.671545 143.43587 146.732295 143.409904 
z
" clip-path="url(#p80761ce460)" style="fill: #1f77b4"/>
   </g>
   <g id="patch_15">
    <path d="M 147.6 145.44 
C 147.6 145.44 147.6 145.44 147.6 145.44 
C 147.6 145.44 147.6 145.44 147.6 145.44 
L 146.696768 144.495293 
C 146.725038 144.468264 146.754507 144.442517 146.785087 144.418131 
C 146.815666 144.393745 146.847325 144.370743 146.879967 144.349197 
z
" clip-path="url(#p80761ce460)" style="fill: #1f77b4"/>
   </g>
   <g id="patch_16">
    <path d="M 147.6 145.44 
C 147.6 145.44 147.6 145.44 147.6 145.44 
C 147.6 145.44 147.6 145.44 147.6 145.44 
L 147.115956 145.088322 
C 147.12648 145.073837 147.137649 145.059831 147.149429 145.046348 
C 147.161209 145.032865 147.173588 145.019917 147.18653 145.007544 
z
" clip-path="url(#p80761ce460)" style="fill: #1f77b4"/>
   </g>
   <g id="patch_17">
    <path d="M 147.6 145.44 
C 147.6 145.44 147.6 145.44 147.6 145.44 
C 147.6 145.44 147.6 145.44 147.6 145.44 
L 147.380329 145.334212 
C 147.383495 145.327638 147.386954 145.32121 147.390696 145.314947 
C 147.394438 145.308683 147.39846 145.302591 147.402749 145.296688 
z
" clip-path="url(#p80761ce460)" style="fill: #1f77b4"/>
   </g>
   <g id="patch_18">
    <path d="M 147.6 145.44 
C 147.6 145.44 147.6 145.44 147.6 145.44 
C 147.6 145.44 147.6 145.44 147.6 145.44 
L 146.954047 145.261728 
C 146.959381 145.242398 146.965581 145.223317 146.972627 145.204543 
C 146.979673 145.185769 146.987558 145.167321 146.996259 145.149254 
z
" clip-path="url(#p80761ce460)" style="fill: #1f77b4"/>
   </g>
   <g id="patch_19">
    <path d="M 147.6 145.44 
C 147.6 145.44 147.6 145.44 147.6 145.44 
C 147.6 145.44 147.6 145.44 147.6 145.44 
L 146.479032 145.339111 
C 146.482051 145.305566 146.486575 145.272174 146.492589 145.239034 
C 146.498602 145.205895 146.506101 145.173043 146.515061 145.140576 
z
" clip-path="url(#p80761ce460)" style="fill: #1f77b4"/>
   </g>
   <g id="patch_20">
    <path d="M 147.6 145.44 
C 147.6 145.44 147.6 145.44 147.6 145.44 
C 147.6 145.44 147.6 145.44 147.6 145.44 
L 145.559388 145.623658 
C 145.553892 145.562593 145.551139 145.501312 145.551139 145.44 
C 145.551139 145.378688 145.553892 145.317407 145.559388 145.256342 
z
" clip-path="url(#p80761ce460)" style="fill: #1f77b4"/>
   </g>
   <g id="patch_21">
    <path d="M 147.6 145.44 
C 147.6 145.44 147.6 145.44 147.6 145.44 
C 147.6 145.44 147.6 145.44 147.6 145.44 
L 145.862385 145.919551 
C 145.848035 145.867553 145.836025 145.814937 145.826394 145.761862 
C 145.816762 145.708787 145.809518 145.655306 145.804682 145.601582 
z
" clip-path="url(#p80761ce460)" style="fill: #1f77b4"/>
   </g>
   <g id="patch_22">
    <path d="M 147.6 145.44 
C 147.6 145.44 147.6 145.44 147.6 145.44 
C 147.6 145.44 147.6 145.44 147.6 145.44 
L 143.911135 147.216464 
C 143.857974 147.106075 143.809795 146.993355 143.766744 146.878645 
C 143.723693 146.763935 143.685812 146.64735 143.653216 146.529243 
z
" clip-path="url(#p80761ce460)" style="fill: #1f77b4"/>
   </g>
   <g id="patch_23">
    <path d="M 147.6 145.44 
C 147.6 145.44 147.6 145.44 147.6 145.44 
C 147.6 145.44 147.6 145.44 147.6 145.44 
L 144.194717 147.914083 
C 144.12068 147.81218 144.051255 147.707005 143.986651 147.598876 
C 143.922046 147.490746 143.862328 147.379772 143.807677 147.266287 
z
" clip-path="url(#p80761ce460)" style="fill: #1f77b4"/>
   </g>
   <g id="patch_24">
    <path d="M 147.6 145.44 
C 147.6 145.44 147.6 145.44 147.6 145.44 
C 147.6 145.44 147.6 145.44 147.6 145.44 
L 143.84907 149.363166 
C 143.731669 149.250919 143.619366 149.13346 143.5125 149.011141 
C 143.405634 148.888823 143.304312 148.76177 143.20884 148.630364 
z
" clip-path="url(#p80761ce460)" style="fill: #1f77b4"/>
   </g>
   <g id="patch_25">
    <path d="M 147.6 145.44 
C 147.6 145.44 147.6 145.44 147.6 145.44 
C 147.6 145.44 147.6 145.44 147.6 145.44 
L 145.506787 148.611082 
C 145.411893 148.548443 145.319858 148.481575 145.23096 148.410682 
C 145.142063 148.339789 145.056392 148.264941 144.974207 148.186364 
z
" clip-path="url(#p80761ce460)" style="fill: #1f77b4"/>
   </g>
   <g id="patch_26">
    <path d="M 147.6 145.44 
C 147.6 145.44 147.6 145.44 147.6 145.44 
C 147.6 145.44 147.6 145.44 147.6 145.44 
L 145.39664 150.595017 
C 145.242377 150.529081 145.09115 150.456255 144.943418 150.376756 
C 144.795686 150.297258 144.651597 150.211169 144.511585 150.118748 
z
" clip-path="url(#p80761ce460)" style="fill: #1f77b4"/>
   </g>
   <g id="patch_27">
    <path d="M 147.6 145.44 
C 147.6 145.44 147.6 145.44 147.6 145.44 
C 147.6 145.44 147.6 145.44 147.6 145.44 
L 146.820375 148.855762 
C 146.718158 148.832431 146.61704 148.804525 146.517327 148.772126 
C 146.417613 148.739727 146.319404 148.702868 146.222996 148.661662 
z
" clip-path="url(#p80761ce460)" style="fill: #1f77b4"/>
   </g>
   <g id="patch_28">
    <path d="M 147.6 145.44 
C 147.6 145.44 147.6 145.44 147.6 145.44 
C 147.6 145.44 147.6 145.44 147.6 145.44 
L 147.224322 153.805119 
C 146.973996 153.793877 146.724301 153.771404 146.475991 153.737768 
C 146.227681 153.704132 145.981005 153.659367 145.73671 153.603608 
z
" clip-path="url(#p80761ce460)" style="fill: #1f77b4"/>
   </g>
   <g id="patch_29">
    <path d="M 147.6 145.44 
C 147.6 145.44 147.6 145.44 147.6 145.44 
C 147.6 145.44 147.6 145.44 147.6 145.44 
L 148.97 155.553748 
C 148.667347 155.594745 148.363006 155.622137 148.057896 155.635839 
C 147.752786 155.649542 147.447214 155.649542 147.142104 155.635839 
z
" clip-path="url(#p80761ce460)" style="fill: #1f77b4"/>
   </g>
   <g id="patch_30">
    <path d="M 147.6 145.44 
C 147.6 145.44 147.6 145.44 147.6 145.44 
C 147.6 145.44 147.6 145.44 147.6 145.44 
L 150.860889 155.475985 
C 150.560563 155.573567 150.256008 155.657619 149.948143 155.727887 
C 149.640279 155.798155 149.329415 155.854568 149.016491 155.896957 
z
" clip-path="url(#p80761ce460)" style="fill: #1f77b4"/>
   </g>
   <g id="patch_31">
    <path d="M 147.6 145.44 
C 147.6 145.44 147.6 145.44 147.6 145.44 
C 147.6 145.44 147.6 145.44 147.6 145.44 
L 152.806094 155.114545 
C 152.516584 155.270337 152.220227 155.413055 151.917917 155.542268 
C 151.615607 155.671482 151.307649 155.78706 150.994974 155.888655 
z
" clip-path="url(#p80761ce460)" style="fill: #1f77b4"/>
   </g>
   <g id="patch_32">
    <path d="M 147.6 145.44 
C 147.6 145.44 147.6 145.44 147.6 145.44 
C 147.6 145.44 147.6 145.44 147.6 145.44 
L 156.493289 156.591832 
C 156.159571 156.857963 155.814076 157.108981 155.457845 157.344127 
C 155.101615 157.579272 154.735009 157.798309 154.359134 158.000576 
z
" clip-path="url(#p80761ce460)" style="fill: #1f77b4"/>
   </g>
   <g id="patch_33">
    <path d="M 147.6 145.44 
C 147.6 145.44 147.6 145.44 147.6 145.44 
C 147.6 145.44 147.6 145.44 147.6 145.44 
L 165.488539 161.068746 
C 165.020849 161.604059 164.529367 162.11811 164.015575 162.609345 
C 163.501783 163.100581 162.9662 163.568506 162.410442 164.011707 
z
" clip-path="url(#p80761ce460)" style="fill: #1f77b4"/>
   </g>
   <g id="patch_34">
    <path d="M 147.6 145.44 
C 147.6 145.44 147.6 145.44 147.6 145.44 
C 147.6 145.44 147.6 145.44 147.6 145.44 
L 173.803834 161.096062 
C 173.335327 161.880211 172.831858 162.642934 172.294947 163.381929 
C 171.758035 164.120924 171.188223 164.835446 170.58723 165.523338 
z
" clip-path="url(#p80761ce460)" style="fill: #1f77b4"/>
   </g>
   <g id="patch_35">
    <path d="M 147.6 145.44 
C 147.6 145.44 147.6 145.44 147.6 145.44 
C 147.6 145.44 147.6 145.44 147.6 145.44 
L 189.010242 160.981524 
C 188.545163 162.220723 188.024693 163.438422 187.450405 164.630944 
C 186.876117 165.823465 186.248589 166.989608 185.569716 168.125849 
z
" clip-path="url(#p80761ce460)" style="fill: #1f77b4"/>
   </g>
   <g id="patch_36">
    <path d="M 147.6 145.44 
C 147.6 145.44 147.6 145.44 147.6 145.44 
C 147.6 145.44 147.6 145.44 147.6 145.44 
L 247.441713 163.5586 
C 246.899515 166.546358 246.223477 169.508273 245.415641 172.435402 
C 244.607805 175.36253 243.668984 178.251922 242.602015 181.094852 
z
" clip-path="url(#p80761ce460)" style="fill: #1f77b4"/>
   </g>
   <g id="patch_37">
    <path d="M 147.6 145.44 
C 147.6 145.44 147.6 145.44 147.6 145.44 
C 147.6 145.44 147.6 145.44 147.6 145.44 
L 253.2 145.44 
C 253.2 148.600075 253.058152 151.758558 252.774885 154.905911 
C 252.491619 158.053264 252.067218 161.186317 251.502965 164.295608 
z
" clip-path="url(#p80761ce460)" style="fill: #1f77b4"/>
   </g>
   <g id="matplotlib.axis_1">
    <g id="xtick_1">
     <g id="line2d_1">
      <path d="M 147.6 145.44 
L 258.48 145.44 
" clip-path="url(#p80761ce460)" style="fill: none; stroke: #b0b0b0; stroke-width: 0.8; stroke-linecap: square"/>
     </g>
     <g id="text_1">
      <!-- E -->
      <g transform="translate(269.320625 148.199375) scale(0.1 -0.1)">
       <defs>
        <path id="DejaVuSans-45" d="M 628 4666 
L 3578 4666 
L 3578 4134 
L 1259 4134 
L 1259 2753 
L 3481 2753 
L 3481 2222 
L 1259 2222 
L 1259 531 
L 3634 531 
L 3634 0 
L 628 0 
L 628 4666 
z
" transform="scale(0.015625)"/>
       </defs>
       <use xlink:href="#DejaVuSans-45"/>
      </g>
     </g>
    </g>
    <g id="xtick_2">
     <g id="line2d_2">
      <path d="M 147.6 145.44 
L 226.004 67.036 
" clip-path="url(#p80761ce460)" style="fill: none; stroke: #b0b0b0; stroke-width: 0.8; stroke-linecap: square"/>
     </g>
     <g id="text_2">
      <!-- NE -->
      <g transform="translate(229.003495 59.89588) scale(0.1 -0.1)">
       <defs>
        <path id="DejaVuSans-4e" d="M 628 4666 
L 1478 4666 
L 3547 763 
L 3547 4666 
L 4159 4666 
L 4159 0 
L 3309 0 
L 1241 3903 
L 1241 0 
L 628 0 
L 628 4666 
z
" transform="scale(0.015625)"/>
       </defs>
       <use xlink:href="#DejaVuSans-4e"/>
       <use xlink:href="#DejaVuSans-45" x="74.804688"/>
      </g>
     </g>
    </g>
    <g id="xtick_3">
     <g id="line2d_3">
      <path d="M 147.6 145.44 
L 147.6 34.56 
" clip-path="url(#p80761ce460)" style="fill: none; stroke: #b0b0b0; stroke-width: 0.8; stroke-linecap: square"/>
     </g>
     <g id="text_3">
      <!-- N -->
      <g transform="translate(143.859375 23.319375) scale(0.1 -0.1)">
       <use xlink:href="#DejaVuSans-4e"/>
      </g>
     </g>
    </g>
    <g id="xtick_4">
     <g id="line2d_4">
      <path d="M 147.6 145.44 
L 69.196 67.036 
" clip-path="url(#p80761ce460)" style="fill: none; stroke: #b0b0b0; stroke-width: 0.8; stroke-linecap: square"/>
     </g>
     <g id="text_4">
      <!-- NW -->
      <g transform="translate(50.61213 59.89588) scale(0.1 -0.1)">
       <defs>
        <path id="DejaVuSans-57" d="M 213 4666 
L 850 4666 
L 1831 722 
L 2809 4666 
L 3519 4666 
L 4500 722 
L 5478 4666 
L 6119 4666 
L 4947 0 
L 4153 0 
L 3169 4050 
L 2175 0 
L 1381 0 
L 213 4666 
z
" transform="scale(0.015625)"/>
       </defs>
       <use xlink:href="#DejaVuSans-4e"/>
       <use xlink:href="#DejaVuSans-57" x="74.804688"/>
      </g>
     </g>
    </g>
    <g id="xtick_5">
     <g id="line2d_5">
      <path d="M 147.6 145.44 
L 36.72 145.44 
" clip-path="url(#p80761ce460)" style="fill: none; stroke: #b0b0b0; stroke-width: 0.8; stroke-linecap: square"/>
     </g>
     <g id="text_5">
      <!-- W -->
      <g transform="translate(17.77625 148.199375) scale(0.1 -0.1)">
       <use xlink:href="#DejaVuSans-57"/>
      </g>
     </g>
    </g>
    <g id="xtick_6">
     <g id="line2d_6">
      <path d="M 147.6 145.44 
L 69.196 223.844 
" clip-path="url(#p80761ce460)" style="fill: none; stroke: #b0b0b0; stroke-width: 0.8; stroke-linecap: square"/>
     </g>
     <g id="text_6">
      <!-- SW -->
      <g transform="translate(51.178536 236.50287) scale(0.1 -0.1)">
       <defs>
        <path id="DejaVuSans-53" d="M 3425 4513 
L 3425 3897 
Q 3066 4069 2747 4153 
Q 2428 4238 2131 4238 
Q 1616 4238 1336 4038 
Q 1056 3838 1056 3469 
Q 1056 3159 1242 3001 
Q 1428 2844 1947 2747 
L 2328 2669 
Q 3034 2534 3370 2195 
Q 3706 1856 3706 1288 
Q 3706 609 3251 259 
Q 2797 -91 1919 -91 
Q 1588 -91 1214 -16 
Q 841 59 441 206 
L 441 856 
Q 825 641 1194 531 
Q 1563 422 1919 422 
Q 2459 422 2753 634 
Q 3047 847 3047 1241 
Q 3047 1584 2836 1778 
Q 2625 1972 2144 2069 
L 1759 2144 
Q 1053 2284 737 2584 
Q 422 2884 422 3419 
Q 422 4038 858 4394 
Q 1294 4750 2059 4750 
Q 2388 4750 2728 4690 
Q 3069 4631 3425 4513 
z
" transform="scale(0.015625)"/>
       </defs>
       <use xlink:href="#DejaVuSans-53"/>
       <use xlink:href="#DejaVuSans-57" x="63.476562"/>
      </g>
     </g>
    </g>
    <g id="xtick_7">
     <g id="line2d_7">
      <path d="M 147.6 145.44 
L 147.6 256.32 
" clip-path="url(#p80761ce460)" style="fill: none; stroke: #b0b0b0; stroke-width: 0.8; stroke-linecap: square"/>
     </g>
     <g id="text_7">
      <!-- S -->
      <g transform="translate(144.425781 273.079375) scale(0.1 -0.1)">
       <use xlink:href="#DejaVuSans-53"/>
      </g>
     </g>
    </g>
    <g id="xtick_8">
     <g id="line2d_8">
      <path d="M 147.6 145.44 
L 226.004 223.844 
" clip-path="url(#p80761ce460)" style="fill: none; stroke: #b0b0b0; stroke-width: 0.8; stroke-linecap: square"/>
     </g>
     <g id="text_8">
      <!-- SE -->
      <g transform="translate(229.569901 236.50287) scale(0.1 -0.1)">
       <use xlink:href="#DejaVuSans-53"/>
       <use xlink:href="#DejaVuSans-45" x="63.476562"/>
      </g>
     </g>
    </g>
   </g>
   <g id="matplotlib.axis_2"/>
   <g id="LineCollection_1">
    <path d="M 147.6 145.44 
L 252.334993 158.928556 
" clip-path="url(#p80761ce460)" style="fill: none; stroke-dasharray: 5.55,2.4; stroke-dashoffset: 0; stroke: #ff0000; stroke-opacity: 0.5; stroke-width: 1.5"/>
   </g>
   <g id="patch_38">
    <path d="M 258.48 145.44 
C 258.48 130.879372 255.611874 116.460327 250.039763 103.008061 
C 244.467651 89.555795 236.299919 77.331919 226.004 67.036 
C 215.708081 56.740081 203.484205 48.572349 190.031939 43.000237 
C 176.579673 37.428126 162.160628 34.56 147.6 34.56 
C 133.039372 34.56 118.620327 37.428126 105.168061 43.000237 
C 91.715795 48.572349 79.491919 56.740081 69.196 67.036 
C 58.900081 77.331919 50.732349 89.555795 45.160237 103.008061 
C 39.588126 116.460327 36.72 130.879372 36.72 145.44 
C 36.72 160.000628 39.588126 174.419673 45.160237 187.871939 
C 50.732349 201.324205 58.900081 213.548081 69.196 223.844 
C 79.491919 234.139919 91.715795 242.307651 105.168061 247.879763 
C 118.620327 253.451874 133.039372 256.32 147.6 256.32 
C 162.160628 256.32 176.579673 253.451874 190.031939 247.879763 
C 203.484205 242.307651 215.708081 234.139919 226.004 223.844 
C 236.299919 213.548081 244.467651 201.324205 250.039763 187.871939 
C 255.611874 174.419673 258.48 160.000628 258.48 145.44 
" style="fill: none; stroke: #000000; stroke-width: 0.8; stroke-linejoin: miter; stroke-linecap: square"/>
   </g>
   <g id="text_9">
    <!-- Directionality of proposed route -->
    <g transform="translate(52.311563 9.720937) scale(0.12 -0.12)">
     <defs>
      <path id="DejaVuSans-44" d="M 1259 4147 
L 1259 519 
L 2022 519 
Q 2988 519 3436 956 
Q 3884 1394 3884 2338 
Q 3884 3275 3436 3711 
Q 2988 4147 2022 4147 
L 1259 4147 
z
M 628 4666 
L 1925 4666 
Q 3281 4666 3915 4102 
Q 4550 3538 4550 2338 
Q 4550 1131 3912 565 
Q 3275 0 1925 0 
L 628 0 
L 628 4666 
z
" transform="scale(0.015625)"/>
      <path id="DejaVuSans-69" d="M 603 3500 
L 1178 3500 
L 1178 0 
L 603 0 
L 603 3500 
z
M 603 4863 
L 1178 4863 
L 1178 4134 
L 603 4134 
L 603 4863 
z
" transform="scale(0.015625)"/>
      <path id="DejaVuSans-72" d="M 2631 2963 
Q 2534 3019 2420 3045 
Q 2306 3072 2169 3072 
Q 1681 3072 1420 2755 
Q 1159 2438 1159 1844 
L 1159 0 
L 581 0 
L 581 3500 
L 1159 3500 
L 1159 2956 
Q 1341 3275 1631 3429 
Q 1922 3584 2338 3584 
Q 2397 3584 2469 3576 
Q 2541 3569 2628 3553 
L 2631 2963 
z
" transform="scale(0.015625)"/>
      <path id="DejaVuSans-65" d="M 3597 1894 
L 3597 1613 
L 953 1613 
Q 991 1019 1311 708 
Q 1631 397 2203 397 
Q 2534 397 2845 478 
Q 3156 559 3463 722 
L 3463 178 
Q 3153 47 2828 -22 
Q 2503 -91 2169 -91 
Q 1331 -91 842 396 
Q 353 884 353 1716 
Q 353 2575 817 3079 
Q 1281 3584 2069 3584 
Q 2775 3584 3186 3129 
Q 3597 2675 3597 1894 
z
M 3022 2063 
Q 3016 2534 2758 2815 
Q 2500 3097 2075 3097 
Q 1594 3097 1305 2825 
Q 1016 2553 972 2059 
L 3022 2063 
z
" transform="scale(0.015625)"/>
      <path id="DejaVuSans-63" d="M 3122 3366 
L 3122 2828 
Q 2878 2963 2633 3030 
Q 2388 3097 2138 3097 
Q 1578 3097 1268 2742 
Q 959 2388 959 1747 
Q 959 1106 1268 751 
Q 1578 397 2138 397 
Q 2388 397 2633 464 
Q 2878 531 3122 666 
L 3122 134 
Q 2881 22 2623 -34 
Q 2366 -91 2075 -91 
Q 1284 -91 818 406 
Q 353 903 353 1747 
Q 353 2603 823 3093 
Q 1294 3584 2113 3584 
Q 2378 3584 2631 3529 
Q 2884 3475 3122 3366 
z
" transform="scale(0.015625)"/>
      <path id="DejaVuSans-74" d="M 1172 4494 
L 1172 3500 
L 2356 3500 
L 2356 3053 
L 1172 3053 
L 1172 1153 
Q 1172 725 1289 603 
Q 1406 481 1766 481 
L 2356 481 
L 2356 0 
L 1766 0 
Q 1100 0 847 248 
Q 594 497 594 1153 
L 594 3053 
L 172 3053 
L 172 3500 
L 594 3500 
L 594 4494 
L 1172 4494 
z
" transform="scale(0.015625)"/>
      <path id="DejaVuSans-6f" d="M 1959 3097 
Q 1497 3097 1228 2736 
Q 959 2375 959 1747 
Q 959 1119 1226 758 
Q 1494 397 1959 397 
Q 2419 397 2687 759 
Q 2956 1122 2956 1747 
Q 2956 2369 2687 2733 
Q 2419 3097 1959 3097 
z
M 1959 3584 
Q 2709 3584 3137 3096 
Q 3566 2609 3566 1747 
Q 3566 888 3137 398 
Q 2709 -91 1959 -91 
Q 1206 -91 779 398 
Q 353 888 353 1747 
Q 353 2609 779 3096 
Q 1206 3584 1959 3584 
z
" transform="scale(0.015625)"/>
      <path id="DejaVuSans-6e" d="M 3513 2113 
L 3513 0 
L 2938 0 
L 2938 2094 
Q 2938 2591 2744 2837 
Q 2550 3084 2163 3084 
Q 1697 3084 1428 2787 
Q 1159 2491 1159 1978 
L 1159 0 
L 581 0 
L 581 3500 
L 1159 3500 
L 1159 2956 
Q 1366 3272 1645 3428 
Q 1925 3584 2291 3584 
Q 2894 3584 3203 3211 
Q 3513 2838 3513 2113 
z
" transform="scale(0.015625)"/>
      <path id="DejaVuSans-61" d="M 2194 1759 
Q 1497 1759 1228 1600 
Q 959 1441 959 1056 
Q 959 750 1161 570 
Q 1363 391 1709 391 
Q 2188 391 2477 730 
Q 2766 1069 2766 1631 
L 2766 1759 
L 2194 1759 
z
M 3341 1997 
L 3341 0 
L 2766 0 
L 2766 531 
Q 2569 213 2275 61 
Q 1981 -91 1556 -91 
Q 1019 -91 701 211 
Q 384 513 384 1019 
Q 384 1609 779 1909 
Q 1175 2209 1959 2209 
L 2766 2209 
L 2766 2266 
Q 2766 2663 2505 2880 
Q 2244 3097 1772 3097 
Q 1472 3097 1187 3025 
Q 903 2953 641 2809 
L 641 3341 
Q 956 3463 1253 3523 
Q 1550 3584 1831 3584 
Q 2591 3584 2966 3190 
Q 3341 2797 3341 1997 
z
" transform="scale(0.015625)"/>
      <path id="DejaVuSans-6c" d="M 603 4863 
L 1178 4863 
L 1178 0 
L 603 0 
L 603 4863 
z
" transform="scale(0.015625)"/>
      <path id="DejaVuSans-79" d="M 2059 -325 
Q 1816 -950 1584 -1140 
Q 1353 -1331 966 -1331 
L 506 -1331 
L 506 -850 
L 844 -850 
Q 1081 -850 1212 -737 
Q 1344 -625 1503 -206 
L 1606 56 
L 191 3500 
L 800 3500 
L 1894 763 
L 2988 3500 
L 3597 3500 
L 2059 -325 
z
" transform="scale(0.015625)"/>
      <path id="DejaVuSans-20" transform="scale(0.015625)"/>
      <path id="DejaVuSans-66" d="M 2375 4863 
L 2375 4384 
L 1825 4384 
Q 1516 4384 1395 4259 
Q 1275 4134 1275 3809 
L 1275 3500 
L 2222 3500 
L 2222 3053 
L 1275 3053 
L 1275 0 
L 697 0 
L 697 3053 
L 147 3053 
L 147 3500 
L 697 3500 
L 697 3744 
Q 697 4328 969 4595 
Q 1241 4863 1831 4863 
L 2375 4863 
z
" transform="scale(0.015625)"/>
      <path id="DejaVuSans-70" d="M 1159 525 
L 1159 -1331 
L 581 -1331 
L 581 3500 
L 1159 3500 
L 1159 2969 
Q 1341 3281 1617 3432 
Q 1894 3584 2278 3584 
Q 2916 3584 3314 3078 
Q 3713 2572 3713 1747 
Q 3713 922 3314 415 
Q 2916 -91 2278 -91 
Q 1894 -91 1617 61 
Q 1341 213 1159 525 
z
M 3116 1747 
Q 3116 2381 2855 2742 
Q 2594 3103 2138 3103 
Q 1681 3103 1420 2742 
Q 1159 2381 1159 1747 
Q 1159 1113 1420 752 
Q 1681 391 2138 391 
Q 2594 391 2855 752 
Q 3116 1113 3116 1747 
z
" transform="scale(0.015625)"/>
      <path id="DejaVuSans-73" d="M 2834 3397 
L 2834 2853 
Q 2591 2978 2328 3040 
Q 2066 3103 1784 3103 
Q 1356 3103 1142 2972 
Q 928 2841 928 2578 
Q 928 2378 1081 2264 
Q 1234 2150 1697 2047 
L 1894 2003 
Q 2506 1872 2764 1633 
Q 3022 1394 3022 966 
Q 3022 478 2636 193 
Q 2250 -91 1575 -91 
Q 1294 -91 989 -36 
Q 684 19 347 128 
L 347 722 
Q 666 556 975 473 
Q 1284 391 1588 391 
Q 1994 391 2212 530 
Q 2431 669 2431 922 
Q 2431 1156 2273 1281 
Q 2116 1406 1581 1522 
L 1381 1569 
Q 847 1681 609 1914 
Q 372 2147 372 2553 
Q 372 3047 722 3315 
Q 1072 3584 1716 3584 
Q 2034 3584 2315 3537 
Q 2597 3491 2834 3397 
z
" transform="scale(0.015625)"/>
      <path id="DejaVuSans-64" d="M 2906 2969 
L 2906 4863 
L 3481 4863 
L 3481 0 
L 2906 0 
L 2906 525 
Q 2725 213 2448 61 
Q 2172 -91 1784 -91 
Q 1150 -91 751 415 
Q 353 922 353 1747 
Q 353 2572 751 3078 
Q 1150 3584 1784 3584 
Q 2172 3584 2448 3432 
Q 2725 3281 2906 2969 
z
M 947 1747 
Q 947 1113 1208 752 
Q 1469 391 1925 391 
Q 2381 391 2643 752 
Q 2906 1113 2906 1747 
Q 2906 2381 2643 2742 
Q 2381 3103 1925 3103 
Q 1469 3103 1208 2742 
Q 947 2381 947 1747 
z
" transform="scale(0.015625)"/>
      <path id="DejaVuSans-75" d="M 544 1381 
L 544 3500 
L 1119 3500 
L 1119 1403 
Q 1119 906 1312 657 
Q 1506 409 1894 409 
Q 2359 409 2629 706 
Q 2900 1003 2900 1516 
L 2900 3500 
L 3475 3500 
L 3475 0 
L 2900 0 
L 2900 538 
Q 2691 219 2414 64 
Q 2138 -91 1772 -91 
Q 1169 -91 856 284 
Q 544 659 544 1381 
z
M 1991 3584 
L 1991 3584 
z
" transform="scale(0.015625)"/>
     </defs>
     <use xlink:href="#DejaVuSans-44"/>
     <use xlink:href="#DejaVuSans-69" x="77.001953"/>
     <use xlink:href="#DejaVuSans-72" x="104.785156"/>
     <use xlink:href="#DejaVuSans-65" x="143.648438"/>
     <use xlink:href="#DejaVuSans-63" x="205.171875"/>
     <use xlink:href="#DejaVuSans-74" x="260.152344"/>
     <use xlink:href="#DejaVuSans-69" x="299.361328"/>
     <use xlink:href="#DejaVuSans-6f" x="327.144531"/>
     <use xlink:href="#DejaVuSans-6e" x="388.326172"/>
     <use xlink:href="#DejaVuSans-61" x="451.705078"/>
     <use xlink:href="#DejaVuSans-6c" x="512.984375"/>
     <use xlink:href="#DejaVuSans-69" x="540.767578"/>
     <use xlink:href="#DejaVuSans-74" x="568.550781"/>
     <use xlink:href="#DejaVuSans-79" x="607.759766"/>
     <use xlink:href="#DejaVuSans-20" x="666.939453"/>
     <use xlink:href="#DejaVuSans-6f" x="698.726562"/>
     <use xlink:href="#DejaVuSans-66" x="759.908203"/>
     <use xlink:href="#DejaVuSans-20" x="795.113281"/>
     <use xlink:href="#DejaVuSans-70" x="826.900391"/>
     <use xlink:href="#DejaVuSans-72" x="890.376953"/>
     <use xlink:href="#DejaVuSans-6f" x="929.240234"/>
     <use xlink:href="#DejaVuSans-70" x="990.421875"/>
     <use xlink:href="#DejaVuSans-6f" x="1053.898438"/>
     <use xlink:href="#DejaVuSans-73" x="1115.080078"/>
     <use xlink:href="#DejaVuSans-65" x="1167.179688"/>
     <use xlink:href="#DejaVuSans-64" x="1228.703125"/>
     <use xlink:href="#DejaVuSans-20" x="1292.179688"/>
     <use xlink:href="#DejaVuSans-72" x="1323.966797"/>
     <use xlink:href="#DejaVuSans-6f" x="1362.830078"/>
     <use xlink:href="#DejaVuSans-75" x="1424.011719"/>
     <use xlink:href="#DejaVuSans-74" x="1487.390625"/>
     <use xlink:href="#DejaVuSans-65" x="1526.599609"/>
    </g>
   </g>
   <g id="legend_1">
    <g id="patch_39">
     <path d="M 97.521875 226.405969 
L 197.678125 226.405969 
Q 199.678125 226.405969 199.678125 224.405969 
L 199.678125 199.530031 
Q 199.678125 197.530031 197.678125 197.530031 
L 97.521875 197.530031 
Q 95.521875 197.530031 95.521875 199.530031 
L 95.521875 224.405969 
Q 95.521875 226.405969 97.521875 226.405969 
z
" style="fill: #ffffff; opacity: 0.8; stroke: #cccccc; stroke-linejoin: miter"/>
    </g>
    <g id="line2d_9">
     <path d="M 99.521875 212.267219 
L 119.521875 212.267219 
" style="fill: none; stroke-dasharray: 5.55,2.4; stroke-dashoffset: 0; stroke: #ff0000; stroke-opacity: 0.5; stroke-width: 1.5"/>
    </g>
    <g id="text_10">
     <!-- Birmingham -->
     <g transform="translate(127.521875 209.128469) scale(0.1 -0.1)">
      <defs>
       <path id="DejaVuSans-42" d="M 1259 2228 
L 1259 519 
L 2272 519 
Q 2781 519 3026 730 
Q 3272 941 3272 1375 
Q 3272 1813 3026 2020 
Q 2781 2228 2272 2228 
L 1259 2228 
z
M 1259 4147 
L 1259 2741 
L 2194 2741 
Q 2656 2741 2882 2914 
Q 3109 3088 3109 3444 
Q 3109 3797 2882 3972 
Q 2656 4147 2194 4147 
L 1259 4147 
z
M 628 4666 
L 2241 4666 
Q 2963 4666 3353 4366 
Q 3744 4066 3744 3513 
Q 3744 3084 3544 2831 
Q 3344 2578 2956 2516 
Q 3422 2416 3680 2098 
Q 3938 1781 3938 1306 
Q 3938 681 3513 340 
Q 3088 0 2303 0 
L 628 0 
L 628 4666 
z
" transform="scale(0.015625)"/>
       <path id="DejaVuSans-6d" d="M 3328 2828 
Q 3544 3216 3844 3400 
Q 4144 3584 4550 3584 
Q 5097 3584 5394 3201 
Q 5691 2819 5691 2113 
L 5691 0 
L 5113 0 
L 5113 2094 
Q 5113 2597 4934 2840 
Q 4756 3084 4391 3084 
Q 3944 3084 3684 2787 
Q 3425 2491 3425 1978 
L 3425 0 
L 2847 0 
L 2847 2094 
Q 2847 2600 2669 2842 
Q 2491 3084 2119 3084 
Q 1678 3084 1418 2786 
Q 1159 2488 1159 1978 
L 1159 0 
L 581 0 
L 581 3500 
L 1159 3500 
L 1159 2956 
Q 1356 3278 1631 3431 
Q 1906 3584 2284 3584 
Q 2666 3584 2933 3390 
Q 3200 3197 3328 2828 
z
" transform="scale(0.015625)"/>
       <path id="DejaVuSans-67" d="M 2906 1791 
Q 2906 2416 2648 2759 
Q 2391 3103 1925 3103 
Q 1463 3103 1205 2759 
Q 947 2416 947 1791 
Q 947 1169 1205 825 
Q 1463 481 1925 481 
Q 2391 481 2648 825 
Q 2906 1169 2906 1791 
z
M 3481 434 
Q 3481 -459 3084 -895 
Q 2688 -1331 1869 -1331 
Q 1566 -1331 1297 -1286 
Q 1028 -1241 775 -1147 
L 775 -588 
Q 1028 -725 1275 -790 
Q 1522 -856 1778 -856 
Q 2344 -856 2625 -561 
Q 2906 -266 2906 331 
L 2906 616 
Q 2728 306 2450 153 
Q 2172 0 1784 0 
Q 1141 0 747 490 
Q 353 981 353 1791 
Q 353 2603 747 3093 
Q 1141 3584 1784 3584 
Q 2172 3584 2450 3431 
Q 2728 3278 2906 2969 
L 2906 3500 
L 3481 3500 
L 3481 434 
z
" transform="scale(0.015625)"/>
       <path id="DejaVuSans-68" d="M 3513 2113 
L 3513 0 
L 2938 0 
L 2938 2094 
Q 2938 2591 2744 2837 
Q 2550 3084 2163 3084 
Q 1697 3084 1428 2787 
Q 1159 2491 1159 1978 
L 1159 0 
L 581 0 
L 581 4863 
L 1159 4863 
L 1159 2956 
Q 1366 3272 1645 3428 
Q 1925 3584 2291 3584 
Q 2894 3584 3203 3211 
Q 3513 2838 3513 2113 
z
" transform="scale(0.015625)"/>
      </defs>
      <use xlink:href="#DejaVuSans-42"/>
      <use xlink:href="#DejaVuSans-69" x="68.603516"/>
      <use xlink:href="#DejaVuSans-72" x="96.386719"/>
      <use xlink:href="#DejaVuSans-6d" x="135.75"/>
      <use xlink:href="#DejaVuSans-69" x="233.162109"/>
      <use xlink:href="#DejaVuSans-6e" x="260.945312"/>
      <use xlink:href="#DejaVuSans-67" x="324.324219"/>
      <use xlink:href="#DejaVuSans-68" x="387.800781"/>
      <use xlink:href="#DejaVuSans-61" x="451.179688"/>
      <use xlink:href="#DejaVuSans-6d" x="512.458984"/>
     </g>
     <!-- to Cambridge -->
     <g transform="translate(127.521875 220.326281) scale(0.1 -0.1)">
      <defs>
       <path id="DejaVuSans-43" d="M 4122 4306 
L 4122 3641 
Q 3803 3938 3442 4084 
Q 3081 4231 2675 4231 
Q 1875 4231 1450 3742 
Q 1025 3253 1025 2328 
Q 1025 1406 1450 917 
Q 1875 428 2675 428 
Q 3081 428 3442 575 
Q 3803 722 4122 1019 
L 4122 359 
Q 3791 134 3420 21 
Q 3050 -91 2638 -91 
Q 1578 -91 968 557 
Q 359 1206 359 2328 
Q 359 3453 968 4101 
Q 1578 4750 2638 4750 
Q 3056 4750 3426 4639 
Q 3797 4528 4122 4306 
z
" transform="scale(0.015625)"/>
       <path id="DejaVuSans-62" d="M 3116 1747 
Q 3116 2381 2855 2742 
Q 2594 3103 2138 3103 
Q 1681 3103 1420 2742 
Q 1159 2381 1159 1747 
Q 1159 1113 1420 752 
Q 1681 391 2138 391 
Q 2594 391 2855 752 
Q 3116 1113 3116 1747 
z
M 1159 2969 
Q 1341 3281 1617 3432 
Q 1894 3584 2278 3584 
Q 2916 3584 3314 3078 
Q 3713 2572 3713 1747 
Q 3713 922 3314 415 
Q 2916 -91 2278 -91 
Q 1894 -91 1617 61 
Q 1341 213 1159 525 
L 1159 0 
L 581 0 
L 581 4863 
L 1159 4863 
L 1159 2969 
z
" transform="scale(0.015625)"/>
      </defs>
      <use xlink:href="#DejaVuSans-74"/>
      <use xlink:href="#DejaVuSans-6f" x="39.208984"/>
      <use xlink:href="#DejaVuSans-20" x="100.390625"/>
      <use xlink:href="#DejaVuSans-43" x="132.177734"/>
      <use xlink:href="#DejaVuSans-61" x="202.001953"/>
      <use xlink:href="#DejaVuSans-6d" x="263.28125"/>
      <use xlink:href="#DejaVuSans-62" x="360.693359"/>
      <use xlink:href="#DejaVuSans-72" x="424.169922"/>
      <use xlink:href="#DejaVuSans-69" x="465.283203"/>
      <use xlink:href="#DejaVuSans-64" x="493.066406"/>
      <use xlink:href="#DejaVuSans-67" x="556.542969"/>
      <use xlink:href="#DejaVuSans-65" x="620.019531"/>
     </g>
    </g>
   </g>
  </g>
 </g>
 <defs>
  <clipPath id="p80761ce460">
   <path d="M 258.48 145.44 
C 258.48 130.879372 255.611874 116.460327 250.039763 103.008061 
C 244.467651 89.555795 236.299919 77.331919 226.004 67.036 
C 215.708081 56.740081 203.484205 48.572349 190.031939 43.000237 
C 176.579673 37.428126 162.160628 34.56 147.6 34.56 
C 133.039372 34.56 118.620327 37.428126 105.168061 43.000237 
C 91.715795 48.572349 79.491919 56.740081 69.196 67.036 
C 58.900081 77.331919 50.732349 89.555795 45.160237 103.008061 
C 39.588126 116.460327 36.72 130.879372 36.72 145.44 
C 36.72 160.000628 39.588126 174.419673 45.160237 187.871939 
C 50.732349 201.324205 58.900081 213.548081 69.196 223.844 
C 79.491919 234.139919 91.715795 242.307651 105.168061 247.879763 
C 118.620327 253.451874 133.039372 256.32 147.6 256.32 
C 162.160628 256.32 176.579673 253.451874 190.031939 247.879763 
C 203.484205 242.307651 215.708081 234.139919 226.004 223.844 
C 236.299919 213.548081 244.467651 201.324205 250.039763 187.871939 
C 255.611874 174.419673 258.48 160.000628 258.48 145.44 
M 147.6 145.44 
C 147.6 145.44 147.6 145.44 147.6 145.44 
C 147.6 145.44 147.6 145.44 147.6 145.44 
C 147.6 145.44 147.6 145.44 147.6 145.44 
C 147.6 145.44 147.6 145.44 147.6 145.44 
C 147.6 145.44 147.6 145.44 147.6 145.44 
C 147.6 145.44 147.6 145.44 147.6 145.44 
C 147.6 145.44 147.6 145.44 147.6 145.44 
C 147.6 145.44 147.6 145.44 147.6 145.44 
C 147.6 145.44 147.6 145.44 147.6 145.44 
C 147.6 145.44 147.6 145.44 147.6 145.44 
C 147.6 145.44 147.6 145.44 147.6 145.44 
C 147.6 145.44 147.6 145.44 147.6 145.44 
C 147.6 145.44 147.6 145.44 147.6 145.44 
C 147.6 145.44 147.6 145.44 147.6 145.44 
C 147.6 145.44 147.6 145.44 147.6 145.44 
C 147.6 145.44 147.6 145.44 147.6 145.44 
M 258.48 145.44 
z
"/>
  </clipPath>
 </defs>
</svg>
