<?xml version="1.0" encoding="utf-8" standalone="no"?>
<!DOCTYPE svg PUBLIC "-//W3C//DTD SVG 1.1//EN"
  "http://www.w3.org/Graphics/SVG/1.1/DTD/svg11.dtd">
<svg xmlns:xlink="http://www.w3.org/1999/xlink" width="371.52pt" height="123.933696pt" viewBox="0 0 371.52 123.933696" xmlns="http://www.w3.org/2000/svg" version="1.1">
 <metadata>
  <rdf:RDF xmlns:dc="http://purl.org/dc/elements/1.1/" xmlns:cc="http://creativecommons.org/ns#" xmlns:rdf="http://www.w3.org/1999/02/22-rdf-syntax-ns#">
   <cc:Work>
    <dc:type rdf:resource="http://purl.org/dc/dcmitype/StillImage"/>
    <dc:date>2023-04-25T15:09:55.130488</dc:date>
    <dc:format>image/svg+xml</dc:format>
    <dc:creator>
     <cc:Agent>
      <dc:title>Matplotlib v3.7.1, https://matplotlib.org/</dc:title>
     </cc:Agent>
    </dc:creator>
   </cc:Work>
  </rdf:RDF>
 </metadata>
 <defs>
  <style type="text/css">*{stroke-linejoin: round; stroke-linecap: butt}</style>
 </defs>
 <g id="figure_1">
  <g id="axes_1">
   <g id="line2d_1">
    <path d="M 29.397666 26.420821 
L 29.455815 26.190004 
L 29.390044 26.700519 
L 29.479687 26.755534 
L 29.450379 26.828723 
L 29.095015 27.359496 
L 28.852466 27.701671 
L 29.168743 28.183447 
L 28.720181 28.77795 
L 28.694589 28.905323 
L 28.183477 29.301669 
L 28.063288 29.475299 
L 28.117239 29.491811 
L 28.229223 29.529936 
L 28.171016 29.601609 
L 27.951085 29.722235 
L 27.580958 29.834044 
L 27.501051 29.897702 
L 27.470125 29.836784 
L 27.152842 29.638495 
L 27.530431 29.96528 
L 27.520871 29.971124 
L 27.10488 30.147203 
L 26.769016 30.44863 
L 26.203296 31.188301 
L 26.287619 31.838811 
L 26.102694 32.043891 
L 25.894873 32.630889 
L 25.613937 32.91544 
L 25.521555 33.068842 
L 25.530095 33.073229 
L 25.54993 33.22631 
L 25.420414 33.521572 
L 25.275843 33.944442 
L 25.355809 34.331081 
L 25.399879 34.581354 
L 25.203776 34.736505 
L 25.273322 35.0739 
L 25.035348 35.24705 
L 25.070063 35.246015 
L 24.647587 35.803923 
L 24.663706 36.53163 
L 24.060852 37.132327 
L 23.535617 37.548871 
L 23.432727 37.613782 
L 23.907493 37.404315 
L 24.254171 37.73486 
L 24.458377 38.109898 
L 24.890953 38.412914 
L 24.941232 38.597183 
L 25.065312 39.325093 
L 24.926541 39.656251 
L 24.980901 40.728566 
L 24.934164 40.824795 
L 24.950034 41.126587 
L 25.247701 42.495607 
L 25.144374 42.623388 
L 25.179569 42.668552 
L 25.315979 43.293762 
L 25.467224 44.209264 
L 25.817283 46.3672 
L 26.662308 47.713369 
L 26.707326 47.92269 
L 26.623425 49.262198 
L 26.461963 49.373264 
L 26.56583 49.374124 
L 26.501371 49.615537 
L 26.116582 49.771548 
L 25.447914 50.01433 
L 25.160522 50.0446 
L 24.697823 49.9882 
L 24.283333 50.18423 
L 23.873435 50.325303 
L 23.618629 50.427464 
L 24.355021 50.215053 
L 24.376197 50.337399 
L 24.452563 50.246051 
L 24.673965 50.427027 
L 24.80166 50.588561 
L 25.104908 50.859369 
L 25.332345 51.281874 
L 25.891434 51.79048 
L 26.036325 52.147549 
L 26.060634 52.34183 
L 26.6764 53.258528 
L 26.885284 53.635024 
L 26.990375 53.725395 
L 27.017161 53.824029 
L 27.25531 54.11626 
L 27.565058 54.175939 
L 27.763872 54.345518 
L 27.750275 54.3612 
L 27.771479 54.451717 
L 27.903575 54.562506 
L 27.786476 54.531784 
L 26.480807 54.685493 
L 25.695841 54.89614 
L 25.328206 54.920974 
L 25.394123 54.968032 
L 25.876977 55.356609 
L 25.942894 55.512591 
L 26.115285 56.305194 
L 26.898998 56.613893 
L 28.117298 56.342605 
L 28.118842 56.386675 
L 27.979241 56.730162 
L 27.986193 57.023573 
L 28.149826 57.105885 
L 28.122019 57.213322 
L 27.79095 57.620437 
L 27.302324 58.040523 
L 26.442697 58.53234 
L 26.242834 58.779713 
L 26.293011 59.217593 
L 26.682929 59.507128 
L 27.592384 60.003143 
L 30.928366 60.747419 
L 31.657093 60.845004 
L 32.071611 61.03366 
L 32.256799 61.351322 
L 32.580013 61.378998 
L 34.515992 61.579108 
L 34.871181 61.658068 
L 35.051239 61.66416 
L 35.015591 61.748789 
L 35.031666 61.892865 
L 35.309892 62.15471 
L 35.521618 62.715445 
L 35.715885 62.798384 
L 36.15598 62.613736 
L 37.5879 62.14582 
L 38.050643 62.457667 
L 38.414794 62.604044 
L 38.636197 62.746123 
L 39.073757 62.895401 
L 39.362505 63.016013 
L 40.077109 63.099243 
L 40.51837 63.126627 
L 41.540086 63.314335 
L 43.1127 63.380689 
L 43.722286 63.442802 
L 44.58136 63.734829 
L 44.5834 63.707241 
L 44.66083 63.087773 
L 45.414215 62.957966 
L 46.293837 63.223483 
L 46.854005 63.417502 
L 48.324297 63.700931 
L 48.792053 63.462054 
L 48.767919 63.605051 
L 48.826695 63.708553 
L 49.366051 64.191422 
L 49.826345 64.968737 
L 50.030056 65.227259 
L 50.422116 65.389099 
L 51.152941 65.617687 
L 52.447884 66.010432 
L 53.23884 66.624362 
L 53.467471 66.878425 
L 53.778254 66.992565 
L 55.518028 67.197952 
L 55.518028 67.197952 
" clip-path="url(#p682e9b3dd1)" style="fill: none; stroke: #000000; stroke-width: 2; stroke-linecap: square"/>
   </g>
   <g id="line2d_2">
    <path d="M 137.212998 109.991231 
L 137.217851 109.982837 
L 137.069243 109.925081 
L 136.866349 109.957085 
L 136.688711 110.324706 
L 136.932105 110.600716 
L 136.987937 110.584248 
L 137.598151 110.383204 
L 137.905028 110.665044 
L 138.113038 110.8125 
L 138.311516 111.205698 
L 138.452371 111.370875 
L 138.637602 111.395432 
L 139.190162 111.129317 
L 139.240689 111.105329 
L 139.292702 111.127641 
L 139.880691 111.435787 
L 140.267447 111.667493 
L 140.198819 111.729533 
L 140.155769 111.749936 
L 140.48047 111.411536 
L 140.527863 111.045766 
L 140.585021 110.024372 
L 140.737374 109.938314 
L 140.750855 110.061709 
L 140.792346 110.160679 
L 142.134434 110.78175 
L 142.330187 110.802503 
L 143.392359 110.038479 
L 146.158337 108.441921 
L 146.595911 108.32007 
L 147.36027 107.838192 
L 147.916123 107.573695 
L 148.079844 107.303908 
L 149.228263 107.47968 
L 149.702023 107.339015 
L 150.165961 107.057671 
L 151.1506 106.778309 
L 151.409181 106.571742 
L 152.170086 106.221304 
L 153.902121 105.914441 
L 154.037438 105.969311 
L 154.48482 106.141353 
L 155.618373 106.345821 
L 155.91588 106.299637 
L 155.917395 106.276232 
L 155.907267 106.036728 
L 156.111298 105.772566 
L 156.748152 105.621233 
L 158.517904 105.626975 
L 159.000088 105.484911 
L 159.093359 105.334948 
L 159.612021 105.202693 
L 160.267165 105.2298 
L 160.734994 105.084136 
L 160.950538 105.00519 
L 160.958146 105.024879 
L 161.272456 105.336129 
L 162.167526 105.255755 
L 162.59468 105.443828 
L 162.692484 105.617765 
L 163.298427 105.885993 
L 163.670798 106.150009 
L 166.199109 106.692193 
L 166.346332 106.541997 
L 166.371457 106.36054 
L 166.533356 106.293137 
L 167.022725 106.185452 
L 168.182802 105.413311 
L 168.209224 105.187638 
L 168.607085 104.822859 
L 169.207301 104.890467 
L 169.759424 104.736102 
L 170.287369 104.804365 
L 171.539159 104.333942 
L 172.441297 104.051403 
L 172.610497 103.959414 
L 175.373356 104.29659 
L 176.278773 104.259762 
L 176.621779 104.154162 
L 176.61901 104.137941 
L 176.778329 103.99391 
L 177.010167 103.954357 
L 177.118143 103.91135 
L 177.969099 104.254472 
L 178.788911 104.248891 
L 179.108103 104.088464 
L 179.365721 103.908596 
L 179.845297 103.709563 
L 180.548723 103.399159 
L 182.819619 102.467378 
L 183.114065 102.222351 
L 184.100862 101.626084 
L 184.802088 101.176298 
L 185.163806 101.067301 
L 186.724645 100.608596 
L 187.211041 100.4331 
L 187.335456 100.143871 
L 187.779923 99.616654 
L 188.313654 99.35889 
L 188.982978 98.962122 
L 189.569349 98.562134 
L 190.574582 97.913285 
L 191.533062 97.646617 
L 191.667679 97.582609 
L 191.450517 97.569158 
L 190.697802 97.456387 
L 190.748329 97.339914 
L 191.582365 96.889851 
L 192.305262 96.256159 
L 192.264995 96.208751 
L 191.767698 95.997025 
L 191.863184 95.88386 
L 192.447413 95.444421 
L 192.854995 95.202352 
L 193.295104 94.920906 
L 193.728539 94.595433 
L 193.962199 94.339461 
L 193.853902 94.301569 
L 193.452981 94.014119 
L 193.524916 93.980249 
L 193.787038 93.900459 
L 194.101071 93.596569 
L 194.097748 93.598944 
L 194.088203 93.594601 
L 194.175149 93.520043 
L 194.24296 93.403759 
L 195.527351 92.664263 
L 195.745694 92.233116 
L 195.751275 92.039957 
L 196.856104 91.764908 
L 197.491559 91.659293 
L 199.4791 91.73888 
L 199.473882 91.740891 
L 199.677899 92.076799 
L 199.851588 92.28902 
L 200.017596 92.433489 
L 200.351858 92.44302 
L 202.146151 92.532211 
L 202.089023 92.506634 
L 202.259841 92.573673 
L 202.936874 92.650491 
L 203.096077 92.724132 
L 203.049121 92.807522 
L 203.122513 92.931923 
L 203.136912 92.930757 
L 203.321575 92.910718 
L 205.716289 92.688761 
L 205.69539 92.514329 
L 205.632184 92.510584 
L 206.536771 92.339649 
L 206.730382 92.211911 
L 206.987797 92.159096 
L 207.501081 91.983542 
L 207.442101 91.873963 
L 207.254757 91.766905 
L 206.693423 91.615047 
L 205.92424 91.238843 
L 205.677304 91.479104 
L 205.514313 91.605341 
L 205.003229 91.879865 
L 204.980144 91.80758 
L 205.04198 91.780269 
L 205.121057 91.691748 
L 205.092216 91.648231 
L 205.113843 91.492789 
L 205.167052 91.052431 
L 204.913484 91.043396 
L 204.879732 91.028137 
L 204.895136 90.994545 
L 205.03465 90.47463 
L 204.940242 90.457884 
L 204.57249 90.391603 
L 204.596027 90.355417 
L 204.631645 89.795905 
L 204.58957 89.788429 
L 203.349003 89.150365 
L 203.374477 89.127164 
L 203.555774 89.03312 
L 204.192438 89.13636 
L 204.609376 89.187528 
L 205.359672 89.148369 
L 205.660253 89.177676 
L 206.70224 89.15226 
L 207.383806 89.336179 
L 207.57921 89.37837 
L 208.227854 89.083079 
L 209.110901 89.008112 
L 210.995916 89.222636 
L 211.35488 89.325191 
L 211.7637 89.454109 
L 212.420505 89.510713 
L 212.45025 89.261562 
L 212.382789 88.871732 
L 212.521166 88.452273 
L 212.353612 88.151297 
L 212.413874 87.775341 
L 212.995742 87.71043 
L 213.901903 87.400404 
L 214.254702 86.92953 
L 214.466122 86.712776 
L 215.369863 86.344295 
L 216.2242 85.909898 
L 216.773277 85.390173 
L 217.524812 85.293491 
L 217.901584 85.20261 
L 218.72791 84.842393 
L 219.376074 84.946784 
L 220.104567 84.952453 
L 220.671715 84.874134 
L 221.657186 84.644483 
L 222.797079 84.240399 
L 223.324995 84.134536 
L 223.730886 84.175459 
L 226.51766 83.776796 
L 227.19312 82.973671 
L 227.364477 82.70349 
L 227.85147 81.943737 
L 228.125659 81.501164 
L 228.120281 81.224935 
L 228.230662 81.084153 
L 228.182934 80.943401 
L 227.859253 80.757426 
L 227.931684 80.691991 
L 228.393654 80.414727 
L 228.435233 80.354086 
L 228.392896 80.324385 
L 228.13213 80.019125 
L 228.097313 79.820107 
L 228.111042 79.817207 
L 229.166335 79.685622 
L 229.780629 79.669139 
L 230.218261 79.935676 
L 230.729082 79.692078 
L 232.559927 78.875268 
L 232.460418 78.813549 
L 232.547233 78.769624 
L 236.273571 76.811799 
L 236.245065 76.77981 
L 235.980553 76.566772 
L 236.03073 76.563376 
L 236.634109 76.024034 
L 236.606477 75.514219 
L 236.628425 75.516565 
L 236.664451 75.42908 
L 236.636572 75.39231 
L 236.564403 75.269177 
L 236.667628 75.231024 
L 236.54929 74.960609 
L 236.508455 74.822728 
L 236.419774 74.726076 
L 236.420022 74.731614 
" clip-path="url(#p682e9b3dd1)" style="fill: none; stroke: #000000; stroke-width: 2; stroke-linecap: square"/>
   </g>
   <g id="line2d_3">
    <path d="M 236.193751 75.921013 
L 236.20866 75.932439 
L 236.124118 75.936272 
L 236.119309 75.964895 
L 236.381241 76.359549 
L 236.644354 76.297378 
L 236.659146 76.405558 
L 239.353203 76.544795 
L 240.517303 76.680199 
L 245.168135 75.924671 
L 245.480288 75.756302 
L 245.720753 75.919498 
L 247.871329 75.65739 
L 248.181501 75.605027 
L 248.413193 75.638926 
L 248.634319 75.713266 
L 250.233034 75.614967 
L 250.891239 75.549239 
L 254.708676 75.074051 
L 257.302335 75.255974 
L 259.03437 75.428992 
L 261.998564 75.602127 
L 263.234454 75.331509 
L 263.124029 75.362857 
L 263.430397 76.372184 
L 263.559957 76.764755 
L 263.824046 77.323217 
L 263.900149 77.421765 
L 263.952265 77.619718 
L 263.832047 77.587656 
L 263.837483 77.650046 
L 263.918192 77.760194 
L 263.918192 77.760194 
" clip-path="url(#p682e9b3dd1)" style="fill: none; stroke: #000000; stroke-width: 2; stroke-linecap: square"/>
   </g>
   <g id="line2d_4">
    <path d="M 54.749326 67.600666 
L 54.691614 67.182402 
L 54.401744 66.920076 
L 53.438426 66.388429 
L 52.425994 65.671843 
L 51.584657 65.375997 
L 50.359158 64.980468 
L 49.792243 64.54253 
L 49.050152 63.558225 
L 48.847579 63.035031 
L 48.838543 62.296147 
L 49.039951 61.373926 
L 49.428339 60.670164 
L 50.038246 60.10733 
L 50.726706 59.731184 
L 52.02449 59.27051 
L 53.222298 58.957177 
L 54.351174 58.414745 
L 54.840411 57.935855 
L 55.512986 57.041615 
L 56.219662 56.645066 
L 57.043657 56.137612 
L 58.594731 54.899288 
L 59.57 54.287632 
L 59.954307 53.755693 
L 60.360329 52.974254 
L 60.837908 52.893225 
L 61.653449 52.904301 
L 62.5302 52.733206 
L 63.685891 52.498716 
L 64.833421 52.510812 
L 66.194163 52.774886 
L 67.538437 53.247656 
L 69.809887 54.226131 
L 70.818238 54.280782 
L 73.604867 54.143353 
L 76.236869 54.281802 
L 77.842157 54.47126 
L 81.065266 54.443424 
L 81.065266 54.443424 
" clip-path="url(#p682e9b3dd1)" style="fill: none; stroke-dasharray: 7.4,3.2; stroke-dashoffset: 0; stroke: #000000; stroke-width: 2"/>
   </g>
   <g id="line2d_5">
    <path d="M 81.065266 54.443424 
L 81.830966 54.583331 
L 82.466815 54.855567 
L 83.05355 55.335769 
L 83.567563 55.999745 
L 83.753814 56.646815 
L 83.900571 57.747709 
L 84.301055 58.270175 
L 84.946522 58.71846 
L 86.387565 59.335655 
L 87.560016 59.723751 
L 88.204463 59.818771 
L 91.378896 60.237618 
L 92.341632 60.667832 
L 93.020327 60.927389 
L 94.244223 61.09863 
L 95.05102 61.29071 
L 96.242854 61.789858 
L 96.943118 62.313781 
L 97.257763 62.689198 
L 98.056837 63.762839 
L 100.121486 65.974537 
L 100.287626 66.565936 
L 100.394159 67.447788 
L 100.72775 68.08932 
L 101.361267 68.762478 
L 101.762771 69.061529 
L 105.312622 71.329335 
L 108.405298 72.521752 
L 108.920185 73.056459 
L 109.171726 73.672779 
L 109.507066 74.789267 
L 110.199606 75.740781 
L 111.690928 77.211554 
L 112.055707 78.116578 
L 112.278829 79.684849 
L 112.259592 80.567138 
L 112.034721 81.37277 
L 111.712643 82.394529 
L 111.675917 83.097708 
L 111.636714 84.041498 
L 111.160739 85.557886 
L 110.998242 86.169397 
L 111.127511 86.676706 
L 111.518813 87.1811 
L 112.101177 87.604611 
L 113.254973 88.064409 
L 115.03223 88.82836 
L 115.795744 89.413347 
L 116.303782 90.08563 
L 116.88527 91.262015 
L 118.415358 93.252922 
L 118.653783 93.888625 
L 118.68774 94.503196 
L 118.512565 95.154784 
L 118.313197 95.947008 
L 118.355315 96.732674 
L 118.679142 97.091186 
L 119.33175 97.708088 
L 119.457812 98.116151 
L 119.68793 99.632977 
L 120.136944 100.514537 
L 120.796111 101.235642 
L 121.591687 101.803868 
L 122.167346 102.132067 
L 128.149248 105.33696 
L 133.963117 108.753899 
L 135.886839 109.48229 
L 137.301941 109.994408 
L 137.301941 109.994408 
" clip-path="url(#p682e9b3dd1)" style="fill: none; stroke-dasharray: 7.4,3.2; stroke-dashoffset: 0; stroke: #000000; stroke-width: 2"/>
   </g>
   <g id="line2d_6">
    <path d="M 263.949481 77.720029 
L 263.71674 76.957098 
L 263.71674 76.202183 
L 263.862622 74.446057 
L 265.707501 67.073391 
L 266.212041 66.198972 
L 269.198912 61.511647 
L 269.783607 60.058362 
L 270.772575 58.559899 
L 271.75003 56.880577 
L 272.372762 56.11954 
L 274.239939 52.409088 
L 276.856493 47.967912 
L 277.173033 46.779139 
L 277.870091 44.001109 
L 277.792705 43.386101 
L 277.439439 42.70828 
L 272.59778 35.094128 
L 270.943524 32.826613 
L 270.701018 32.194117 
L 270.590259 31.131551 
L 269.768305 20.361912 
L 269.17982 15.981945 
L 269.428593 13.689509 
L 269.218878 13.250114 
L 268.422865 12.178804 
L 268.696412 12.709285 
L 268.895197 13.088783 
L 269.319436 13.253028 
L 271.164315 13.567528 
L 283.228241 15.063805 
L 284.855098 15.471139 
L 286.257084 15.852677 
L 287.429097 15.838541 
L 302.878629 15.107818 
L 317.827701 14.215035 
L 319.277926 14.583312 
L 319.836097 14.892565 
L 320.204519 15.380782 
L 320.577167 16.007012 
L 320.878404 16.253015 
L 342.603352 31.665093 
L 346.755386 34.465566 
L 347.585793 34.880916 
L 347.980594 35.346107 
L 348.087273 35.755918 
L 347.984383 36.2351 
L 347.644671 36.681928 
L 347.161846 37.004006 
L 344.007815 38.755759 
L 342.843672 40.097701 
L 342.744571 40.331317 
L 341.370712 44.22496 
L 335.408339 54.999992 
L 334.070477 57.210233 
L 330.574111 60.614639 
L 328.049371 63.190095 
L 328.049371 63.190095 
" clip-path="url(#p682e9b3dd1)" style="fill: none; stroke-dasharray: 7.4,3.2; stroke-dashoffset: 0; stroke: #000000; stroke-width: 2"/>
   </g>
  </g>
 </g>
 <defs>
  <clipPath id="p682e9b3dd1">
   <rect x="7.2" y="7.2" width="357.12" height="109.533696"/>
  </clipPath>
 </defs>
</svg>
