<?xml version="1.0" encoding="utf-8" standalone="no"?>
<!DOCTYPE svg PUBLIC "-//W3C//DTD SVG 1.1//EN"
  "http://www.w3.org/Graphics/SVG/1.1/DTD/svg11.dtd">
<svg xmlns:xlink="http://www.w3.org/1999/xlink" width="460.8pt" height="345.6pt" viewBox="0 0 460.8 345.6" xmlns="http://www.w3.org/2000/svg" version="1.1">
 <metadata>
  <rdf:RDF xmlns:dc="http://purl.org/dc/elements/1.1/" xmlns:cc="http://creativecommons.org/ns#" xmlns:rdf="http://www.w3.org/1999/02/22-rdf-syntax-ns#">
   <cc:Work>
    <dc:type rdf:resource="http://purl.org/dc/dcmitype/StillImage"/>
    <dc:date>2023-04-24T16:08:02.858921</dc:date>
    <dc:format>image/svg+xml</dc:format>
    <dc:creator>
     <cc:Agent>
      <dc:title>Matplotlib v3.7.1, https://matplotlib.org/</dc:title>
     </cc:Agent>
    </dc:creator>
   </cc:Work>
  </rdf:RDF>
 </metadata>
 <defs>
  <style type="text/css">*{stroke-linejoin: round; stroke-linecap: butt}</style>
 </defs>
 <g id="figure_1">
  <g id="patch_1">
   <path d="M 0 345.6 
L 460.8 345.6 
L 460.8 0 
L 0 0 
z
" style="fill: #ffffff"/>
  </g>
  <g id="axes_1">
   <g id="line2d_1">
    <path d="M 79.797666 138.981974 
L 79.855815 138.751156 
L 79.790044 139.261671 
L 79.879687 139.316687 
L 79.850379 139.389876 
L 79.495015 139.920648 
L 79.252466 140.262823 
L 79.568743 140.744599 
L 79.120181 141.339102 
L 79.094589 141.466476 
L 78.583477 141.862821 
L 78.463288 142.036451 
L 78.517239 142.052963 
L 78.629223 142.091088 
L 78.571016 142.162761 
L 78.351085 142.283387 
L 77.980958 142.395196 
L 77.901051 142.458854 
L 77.870125 142.397936 
L 77.552842 142.199647 
L 77.930431 142.526432 
L 77.920871 142.532276 
L 77.50488 142.708355 
L 77.169016 143.009782 
L 76.603296 143.749453 
L 76.687619 144.399963 
L 76.502694 144.605043 
L 76.294873 145.192041 
L 76.013937 145.476592 
L 75.921555 145.629994 
L 75.930095 145.634381 
L 75.94993 145.787462 
L 75.820414 146.082725 
L 75.675843 146.505594 
L 75.755809 146.892233 
L 75.799879 147.142506 
L 75.603776 147.297657 
L 75.673322 147.635052 
L 75.435348 147.808202 
L 75.470063 147.807167 
L 75.047587 148.365076 
L 75.063706 149.092782 
L 74.460852 149.693479 
L 73.935617 150.110023 
L 73.832727 150.174934 
L 74.307493 149.965467 
L 74.654171 150.296012 
L 74.858377 150.67105 
L 75.290953 150.974066 
L 75.341232 151.158335 
L 75.465312 151.886246 
L 75.326541 152.217403 
L 75.380901 153.289718 
L 75.334164 153.385948 
L 75.350034 153.687739 
L 75.647701 155.056759 
L 75.544374 155.184541 
L 75.579569 155.229704 
L 75.715979 155.854914 
L 75.867224 156.770417 
L 76.217283 158.928352 
L 77.062308 160.274521 
L 77.107326 160.483842 
L 77.023425 161.823351 
L 76.861963 161.934416 
L 76.96583 161.935276 
L 76.901371 162.176689 
L 76.516582 162.3327 
L 75.847914 162.575482 
L 75.560522 162.605752 
L 75.097823 162.549352 
L 74.683333 162.745382 
L 74.273435 162.886455 
L 74.018629 162.988616 
L 74.755021 162.776205 
L 74.776197 162.898551 
L 74.852563 162.807203 
L 75.073965 162.988179 
L 75.20166 163.149714 
L 75.504908 163.420521 
L 75.732345 163.843026 
L 76.291434 164.351632 
L 76.436325 164.708701 
L 76.460634 164.902983 
L 77.0764 165.81968 
L 77.285284 166.196176 
L 77.390375 166.286547 
L 77.417161 166.385182 
L 77.65531 166.677412 
L 77.965058 166.737092 
L 78.163872 166.906671 
L 78.150275 166.922352 
L 78.171479 167.012869 
L 78.303575 167.123658 
L 78.186476 167.092937 
L 76.880807 167.246645 
L 76.095841 167.457292 
L 75.728206 167.482126 
L 75.794123 167.529184 
L 76.276977 167.917762 
L 76.342894 168.073744 
L 76.515285 168.866346 
L 77.298998 169.175045 
L 78.517298 168.903757 
L 78.518842 168.947828 
L 78.379241 169.291314 
L 78.386193 169.584725 
L 78.549826 169.667037 
L 78.522019 169.774474 
L 78.19095 170.18159 
L 77.702324 170.601675 
L 76.842697 171.093492 
L 76.642834 171.340866 
L 76.693011 171.778746 
L 77.082929 172.06828 
L 77.992384 172.564295 
L 81.328366 173.308571 
L 82.057093 173.406156 
L 82.471611 173.594812 
L 82.656799 173.912474 
L 82.980013 173.94015 
L 84.915992 174.140261 
L 85.271181 174.219221 
L 85.451239 174.225312 
L 85.415591 174.309942 
L 85.431666 174.454017 
L 85.709892 174.715862 
L 85.921618 175.276598 
L 86.115885 175.359536 
L 86.55598 175.174888 
L 87.9879 174.706972 
L 88.450643 175.018819 
L 88.814794 175.165197 
L 89.036197 175.307275 
L 89.473757 175.456553 
L 89.762505 175.577165 
L 90.477109 175.660395 
L 90.91837 175.687779 
L 91.940086 175.875487 
L 93.5127 175.941841 
L 94.122286 176.003954 
L 94.98136 176.295981 
L 94.9834 176.268393 
L 95.06083 175.648925 
L 95.814215 175.519118 
L 96.693837 175.784635 
L 97.254005 175.978654 
L 98.724297 176.262083 
L 99.192053 176.023206 
L 99.167919 176.166203 
L 99.226695 176.269705 
L 99.766051 176.752574 
L 100.226345 177.529889 
L 100.430056 177.788411 
L 100.822116 177.950251 
L 101.552941 178.178839 
L 102.847884 178.571584 
L 103.63884 179.185514 
L 103.867471 179.439577 
L 104.178254 179.553718 
L 105.918028 179.759104 
L 105.918028 179.759104 
" clip-path="url(#pcc061e0a33)" style="fill: none; stroke: #0000ff; stroke-width: 1.5; stroke-linecap: square"/>
   </g>
   <g id="line2d_2">
    <path d="M 187.612998 222.552383 
L 187.617851 222.543989 
L 187.469243 222.486234 
L 187.266349 222.518237 
L 187.088711 222.885858 
L 187.332105 223.161868 
L 187.387937 223.1454 
L 187.998151 222.944356 
L 188.305028 223.226196 
L 188.513038 223.373653 
L 188.711516 223.76685 
L 188.852371 223.932028 
L 189.037602 223.956584 
L 189.590162 223.690469 
L 189.640689 223.666481 
L 189.692702 223.688793 
L 190.280691 223.996939 
L 190.667447 224.228645 
L 190.598819 224.290685 
L 190.555769 224.311088 
L 190.88047 223.972688 
L 190.927863 223.606919 
L 190.985021 222.585524 
L 191.137374 222.499467 
L 191.150855 222.622862 
L 191.192346 222.721831 
L 192.534434 223.342902 
L 192.730187 223.363655 
L 193.792359 222.599631 
L 196.558337 221.003073 
L 196.995911 220.881222 
L 197.76027 220.399345 
L 198.316123 220.134847 
L 198.479844 219.86506 
L 199.628263 220.040833 
L 200.102023 219.900168 
L 200.565961 219.618823 
L 201.5506 219.339461 
L 201.809181 219.132894 
L 202.570086 218.782456 
L 204.302121 218.475593 
L 204.437438 218.530463 
L 204.88482 218.702505 
L 206.018373 218.906973 
L 206.31588 218.860789 
L 206.317395 218.837384 
L 206.307267 218.59788 
L 206.511298 218.333718 
L 207.148152 218.182386 
L 208.917904 218.188128 
L 209.400088 218.046064 
L 209.493359 217.896101 
L 210.012021 217.763845 
L 210.667165 217.790952 
L 211.134994 217.645288 
L 211.350538 217.566343 
L 211.358146 217.586032 
L 211.672456 217.897281 
L 212.567526 217.816907 
L 212.99468 218.00498 
L 213.092484 218.178917 
L 213.698427 218.447145 
L 214.070798 218.711161 
L 216.599109 219.253345 
L 216.746332 219.103149 
L 216.771457 218.921692 
L 216.933356 218.854289 
L 217.422725 218.746605 
L 218.582802 217.974463 
L 218.609224 217.74879 
L 219.007085 217.384012 
L 219.607301 217.451619 
L 220.159424 217.297255 
L 220.687369 217.365518 
L 221.939159 216.895095 
L 222.841297 216.612555 
L 223.010497 216.520566 
L 225.773356 216.857742 
L 226.678773 216.820915 
L 227.021779 216.715314 
L 227.01901 216.699093 
L 227.178329 216.555062 
L 227.410167 216.515509 
L 227.518143 216.472502 
L 228.369099 216.815624 
L 229.188911 216.810043 
L 229.508103 216.649616 
L 229.765721 216.469748 
L 230.245297 216.270715 
L 230.948723 215.960311 
L 233.219619 215.02853 
L 233.514065 214.783503 
L 234.500862 214.187237 
L 235.202088 213.73745 
L 235.563806 213.628454 
L 237.124645 213.169748 
L 237.611041 212.994252 
L 237.735456 212.705023 
L 238.179923 212.177806 
L 238.713654 211.920042 
L 239.382978 211.523274 
L 239.969349 211.123286 
L 240.974582 210.474438 
L 241.933062 210.207769 
L 242.067679 210.143761 
L 241.850517 210.13031 
L 241.097802 210.017539 
L 241.148329 209.901066 
L 241.982365 209.451003 
L 242.705262 208.817311 
L 242.664995 208.769903 
L 242.167698 208.558177 
L 242.263184 208.445012 
L 242.847413 208.005573 
L 243.254995 207.763505 
L 243.695104 207.482058 
L 244.128539 207.156585 
L 244.362199 206.900613 
L 244.253902 206.862722 
L 243.852981 206.575271 
L 243.924916 206.541402 
L 244.187038 206.461611 
L 244.501071 206.157721 
L 244.497748 206.160097 
L 244.488203 206.155754 
L 244.575149 206.081195 
L 244.64296 205.964912 
L 245.927351 205.225415 
L 246.145694 204.794268 
L 246.151275 204.601109 
L 247.256104 204.32606 
L 247.891559 204.220445 
L 249.8791 204.300032 
L 249.873882 204.302043 
L 250.077899 204.637951 
L 250.251588 204.850173 
L 250.417596 204.994641 
L 250.751858 205.004172 
L 252.546151 205.093363 
L 252.489023 205.067786 
L 252.659841 205.134825 
L 253.336874 205.211643 
L 253.496077 205.285284 
L 253.449121 205.368674 
L 253.522513 205.493075 
L 253.536912 205.491909 
L 253.721575 205.47187 
L 256.116289 205.249913 
L 256.09539 205.075481 
L 256.032184 205.071736 
L 256.936771 204.900802 
L 257.130382 204.773063 
L 257.387797 204.720249 
L 257.901081 204.544694 
L 257.842101 204.435115 
L 257.654757 204.328057 
L 257.093423 204.176199 
L 256.32424 203.799995 
L 256.077304 204.040256 
L 255.914313 204.166493 
L 255.403229 204.441017 
L 255.380144 204.368732 
L 255.44198 204.341421 
L 255.521057 204.252901 
L 255.492216 204.209384 
L 255.513843 204.053941 
L 255.567052 203.613583 
L 255.313484 203.604548 
L 255.279732 203.589289 
L 255.295136 203.555697 
L 255.43465 203.035782 
L 255.340242 203.019037 
L 254.97249 202.952756 
L 254.996027 202.916569 
L 255.031645 202.357057 
L 254.98957 202.349581 
L 253.749003 201.711517 
L 253.774477 201.688316 
L 253.955774 201.594272 
L 254.592438 201.697512 
L 255.009376 201.74868 
L 255.759672 201.709521 
L 256.060253 201.738828 
L 257.10224 201.713412 
L 257.783806 201.897332 
L 257.97921 201.939522 
L 258.627854 201.644231 
L 259.510901 201.569264 
L 261.395916 201.783788 
L 261.75488 201.886343 
L 262.1637 202.015262 
L 262.820505 202.071866 
L 262.85025 201.822714 
L 262.782789 201.432884 
L 262.921166 201.013425 
L 262.753612 200.71245 
L 262.813874 200.336493 
L 263.395742 200.271582 
L 264.301903 199.961557 
L 264.654702 199.490682 
L 264.866122 199.273928 
L 265.769863 198.905448 
L 266.6242 198.471051 
L 267.173277 197.951325 
L 267.924812 197.854643 
L 268.301584 197.763762 
L 269.12791 197.403545 
L 269.776074 197.507936 
L 270.504567 197.513605 
L 271.071715 197.435286 
L 272.057186 197.205635 
L 273.197079 196.801551 
L 273.724995 196.695688 
L 274.130886 196.736611 
L 276.91766 196.337948 
L 277.59312 195.534824 
L 277.764477 195.264643 
L 278.25147 194.504889 
L 278.525659 194.062316 
L 278.520281 193.786087 
L 278.630662 193.645305 
L 278.582934 193.504553 
L 278.259253 193.318579 
L 278.331684 193.253143 
L 278.793654 192.975879 
L 278.835233 192.915238 
L 278.792896 192.885537 
L 278.53213 192.580277 
L 278.497313 192.381259 
L 278.511042 192.378359 
L 279.566335 192.246774 
L 280.180629 192.230291 
L 280.618261 192.496829 
L 281.129082 192.25323 
L 282.959927 191.43642 
L 282.860418 191.374701 
L 282.947233 191.330776 
L 286.673571 189.372951 
L 286.645065 189.340962 
L 286.380553 189.127924 
L 286.43073 189.124528 
L 287.034109 188.585187 
L 287.006477 188.075371 
L 287.028425 188.077717 
L 287.064451 187.990232 
L 287.036572 187.953462 
L 286.964403 187.83033 
L 287.067628 187.792176 
L 286.94929 187.521762 
L 286.908455 187.38388 
L 286.819774 187.287228 
L 286.820022 187.292766 
" clip-path="url(#pcc061e0a33)" style="fill: none; stroke: #0000ff; stroke-width: 1.5; stroke-linecap: square"/>
   </g>
   <g id="line2d_3">
    <path d="M 286.593751 188.482165 
L 286.60866 188.493591 
L 286.524118 188.497424 
L 286.519309 188.526047 
L 286.781241 188.920701 
L 287.044354 188.85853 
L 287.059146 188.96671 
L 289.753203 189.105947 
L 290.917303 189.241351 
L 295.568135 188.485823 
L 295.880288 188.317454 
L 296.120753 188.48065 
L 298.271329 188.218543 
L 298.581501 188.166179 
L 298.813193 188.200078 
L 299.034319 188.274418 
L 300.633034 188.176119 
L 301.291239 188.110392 
L 305.108676 187.635203 
L 307.702335 187.817126 
L 309.43437 187.990144 
L 312.398564 188.163279 
L 313.634454 187.892661 
L 313.524029 187.924009 
L 313.830397 188.933337 
L 313.959957 189.325907 
L 314.224046 189.88437 
L 314.300149 189.982917 
L 314.352265 190.180871 
L 314.232047 190.148809 
L 314.237483 190.211198 
L 314.318192 190.321346 
L 314.318192 190.321346 
" clip-path="url(#pcc061e0a33)" style="fill: none; stroke: #0000ff; stroke-width: 1.5; stroke-linecap: square"/>
   </g>
   <g id="line2d_4">
    <path d="M 105.149326 180.161818 
L 105.091614 179.743554 
L 104.801744 179.481228 
L 103.838426 178.949581 
L 102.825994 178.232995 
L 101.984657 177.93715 
L 100.759158 177.541621 
L 100.192243 177.103682 
L 99.450152 176.119378 
L 99.247579 175.596183 
L 99.238543 174.857299 
L 99.439951 173.935078 
L 99.828339 173.231316 
L 100.438246 172.668482 
L 101.126706 172.292336 
L 102.42449 171.831662 
L 103.622298 171.518329 
L 104.751174 170.975897 
L 105.240411 170.497007 
L 105.912986 169.602768 
L 106.619662 169.206219 
L 107.443657 168.698764 
L 108.994731 167.46044 
L 109.97 166.848784 
L 110.354307 166.316846 
L 110.760329 165.535406 
L 111.237908 165.454377 
L 112.053449 165.465453 
L 112.9302 165.294358 
L 114.085891 165.059868 
L 115.233421 165.071964 
L 116.594163 165.336039 
L 117.938437 165.808808 
L 120.209887 166.787283 
L 121.218238 166.841934 
L 124.004867 166.704505 
L 126.636869 166.842955 
L 128.242157 167.032412 
L 131.465266 167.004576 
L 131.465266 167.004576 
" clip-path="url(#pcc061e0a33)" style="fill: none; stroke: #ff0000; stroke-width: 1.5; stroke-linecap: square"/>
   </g>
   <g id="line2d_5">
    <path d="M 131.465266 167.004576 
L 132.230966 167.144484 
L 132.866815 167.416719 
L 133.45355 167.896921 
L 133.967563 168.560897 
L 134.153814 169.207967 
L 134.300571 170.308861 
L 134.701055 170.831327 
L 135.346522 171.279612 
L 136.787565 171.896807 
L 137.960016 172.284903 
L 138.604463 172.379923 
L 141.778896 172.79877 
L 142.741632 173.228985 
L 143.420327 173.488541 
L 144.644223 173.659782 
L 145.45102 173.851863 
L 146.642854 174.35101 
L 147.343118 174.874933 
L 147.657763 175.250351 
L 148.456837 176.323992 
L 150.521486 178.53569 
L 150.687626 179.127088 
L 150.794159 180.00894 
L 151.12775 180.650473 
L 151.761267 181.32363 
L 152.162771 181.622681 
L 155.712622 183.890488 
L 158.805298 185.082904 
L 159.320185 185.617612 
L 159.571726 186.233931 
L 159.907066 187.350419 
L 160.599606 188.301933 
L 162.090928 189.772706 
L 162.455707 190.67773 
L 162.678829 192.246001 
L 162.659592 193.12829 
L 162.434721 193.933922 
L 162.112643 194.955681 
L 162.075917 195.65886 
L 162.036714 196.60265 
L 161.560739 198.119039 
L 161.398242 198.730549 
L 161.527511 199.237858 
L 161.918813 199.742252 
L 162.501177 200.165763 
L 163.654973 200.625562 
L 165.43223 201.389513 
L 166.195744 201.974499 
L 166.703782 202.646782 
L 167.28527 203.823167 
L 168.815358 205.814074 
L 169.053783 206.449777 
L 169.08774 207.064348 
L 168.912565 207.715936 
L 168.713197 208.50816 
L 168.755315 209.293826 
L 169.079142 209.652338 
L 169.73175 210.269241 
L 169.857812 210.677303 
L 170.08793 212.194129 
L 170.536944 213.075689 
L 171.196111 213.796794 
L 171.991687 214.365021 
L 172.567346 214.693219 
L 178.549248 217.898112 
L 184.363117 221.315051 
L 186.286839 222.043442 
L 187.701941 222.555561 
L 187.701941 222.555561 
" clip-path="url(#pcc061e0a33)" style="fill: none; stroke: #ff0000; stroke-width: 1.5; stroke-linecap: square"/>
   </g>
   <g id="line2d_6">
    <path d="M 314.349481 190.281181 
L 314.11674 189.51825 
L 314.11674 188.763335 
L 314.262622 187.00721 
L 316.107501 179.634543 
L 316.612041 178.760124 
L 319.598912 174.072799 
L 320.183607 172.619514 
L 321.172575 171.121051 
L 322.15003 169.441729 
L 322.772762 168.680693 
L 324.639939 164.97024 
L 327.256493 160.529064 
L 327.573033 159.340291 
L 328.270091 156.562261 
L 328.192705 155.947253 
L 327.839439 155.269432 
L 322.99778 147.65528 
L 321.343524 145.387765 
L 321.101018 144.755269 
L 320.990259 143.692704 
L 320.168305 132.923064 
L 319.57982 128.543098 
L 319.828593 126.250662 
L 319.618878 125.811266 
L 318.822865 124.739957 
L 319.096412 125.270438 
L 319.295197 125.649936 
L 319.719436 125.814181 
L 321.564315 126.12868 
L 333.628241 127.624957 
L 335.255098 128.032291 
L 336.657084 128.413829 
L 337.829097 128.399693 
L 353.278629 127.66897 
L 368.227701 126.776188 
L 369.677926 127.144464 
L 370.236097 127.453717 
L 370.604519 127.941934 
L 370.977167 128.568164 
L 371.278404 128.814168 
L 393.003352 144.226245 
L 397.155386 147.026719 
L 397.985793 147.442068 
L 398.380594 147.907259 
L 398.487273 148.31707 
L 398.384383 148.796252 
L 398.044671 149.24308 
L 397.561846 149.565158 
L 394.407815 151.316911 
L 393.243672 152.658853 
L 393.144571 152.892469 
L 391.770712 156.786112 
L 385.808339 167.561144 
L 384.470477 169.771385 
L 380.974111 173.175791 
L 378.449371 175.751247 
L 378.449371 175.751247 
" clip-path="url(#pcc061e0a33)" style="fill: none; stroke: #ff0000; stroke-width: 1.5; stroke-linecap: square"/>
   </g>
  </g>
 </g>
 <defs>
  <clipPath id="pcc061e0a33">
   <rect x="57.6" y="119.761152" width="357.12" height="109.533696"/>
  </clipPath>
 </defs>
</svg>
