<?xml version="1.0" encoding="UTF-8" standalone="no"?>
<!-- Created with Inkscape (http://www.inkscape.org/) -->

<svg
   width="143.55138mm"
   height="128.9328mm"
   viewBox="0 0 143.55138 128.9328"
   version="1.1"
   id="svg5"
   xml:space="preserve"
   inkscape:version="1.2.2 (732a01da63, 2022-12-09)"
   sodipodi:docname="poster.svg"
   xmlns:inkscape="http://www.inkscape.org/namespaces/inkscape"
   xmlns:sodipodi="http://sodipodi.sourceforge.net/DTD/sodipodi-0.dtd"
   xmlns="http://www.w3.org/2000/svg"
   xmlns:svg="http://www.w3.org/2000/svg"><sodipodi:namedview
     id="namedview7"
     pagecolor="#505050"
     bordercolor="#eeeeee"
     borderopacity="1"
     inkscape:showpageshadow="0"
     inkscape:pageopacity="0"
     inkscape:pagecheckerboard="0"
     inkscape:deskcolor="#505050"
     inkscape:document-units="mm"
     showgrid="false"
     inkscape:zoom="2.1367164"
     inkscape:cx="223.00573"
     inkscape:cy="152.57055"
     inkscape:window-width="1823"
     inkscape:window-height="1046"
     inkscape:window-x="86"
     inkscape:window-y="668"
     inkscape:window-maximized="1"
     inkscape:current-layer="layer1" /><defs
     id="defs2" /><g
     inkscape:label="Layer 1"
     inkscape:groupmode="layer"
     id="layer1"
     transform="translate(-33.370326,-30.218767)"><path
       style="font-variation-settings:normal;opacity:1;fill:#800080;fill-opacity:1;fill-rule:evenodd;stroke:#000000;stroke-width:2;stroke-linecap:butt;stroke-linejoin:bevel;stroke-miterlimit:4;stroke-dasharray:none;stroke-dashoffset:0;stroke-opacity:1;stop-color:#000000;stop-opacity:1"
       d="m 38.175707,62.210642 c 8.962263,-0.474357 17.886638,-1.081319 26.617925,-2.364091 l -0.83181,9.675265 C 63.305131,64.355836 49.68971,68.514888 49.68971,68.514888 c -0.370043,3.44726 0.05354,7.348023 0.481576,11.251327 l 9.28125,-1.138267 c 1.576059,-0.656692 2.45165,-2.276533 2.45165,-2.276533 l 0.175117,12.608491 c -1.663621,-5.866452 -12.827386,-1.707401 -12.827386,-1.707401 -1.225827,8.055424 -0.700474,15.716835 2.232753,16.154625 -0.350237,-0.13133 -17.643131,0.74425 -17.643131,0.74425 3.195903,-1.70739 3.269257,-15.681889 4.11527,-23.640916 0.632014,-5.945795 3.669811,-16.214614 0.218898,-18.299822 z"
       id="path370"
       sodipodi:nodetypes="cccccccccccsc" /><path
       style="font-variation-settings:normal;opacity:1;fill:#800080;fill-opacity:1;fill-rule:evenodd;stroke:#000000;stroke-width:2;stroke-linecap:butt;stroke-linejoin:bevel;stroke-miterlimit:4;stroke-dasharray:none;stroke-dashoffset:0;stroke-opacity:1;stop-color:#000000;stop-opacity:1"
       d="m 103.45091,101.39328 -11.55778,-0.0876 c 3.896374,-1.707403 1.838738,-15.716834 2.188974,-22.546436 0.114438,-2.231536 2.889446,-15.76061 0.919369,-17.993365 -0.08756,0.08756 9.937947,-0.394014 9.937947,-0.394014 3.42585,10.095853 8.6415,21.180835 13.30896,31.389885 l 0.17512,-31.521225 7.70518,-0.175117 c 0,0 -1.97007,40.671142 2.80189,40.671132 0.17512,0 -13.52786,0.30646 -13.52786,0.30646 5.16598,-0.26245 -10.98865,-24.532113 -13.13384,-31.083429 -0.80763,9.646078 -0.61914,19.292157 -0.52536,28.938235 0.17512,1.838734 1.7074,2.495434 1.7074,2.495434 z"
       id="path493"
       sodipodi:nodetypes="ccsccccccccccc" /><path
       style="font-variation-settings:normal;opacity:1;fill:#800080;fill-opacity:1;fill-rule:evenodd;stroke:#000000;stroke-width:2;stroke-linecap:butt;stroke-linejoin:bevel;stroke-miterlimit:4;stroke-dasharray:none;stroke-dashoffset:0;stroke-opacity:1;stop-color:#000000;stop-opacity:1"
       d="m 136.30265,60.365697 26.28229,-0.402439 v 8.420243 c -0.68105,-3.281419 -9.90616,-2.105062 -9.90616,-2.105062 -1.69315,10.343192 -0.97664,21.168315 -1.07044,31.831378 0,1.970073 1.9263,2.101413 1.9263,2.101413 l -9.93794,-0.0876 c 0,0 2.10141,-0.306455 2.18897,-2.36409 0.008,0.469147 -0.0882,-30.600837 0.26268,-31.127211 0,0 -8.23054,-0.744251 -9.28125,2.801888 0.17511,-0.306457 -0.46445,-9.06856 -0.46445,-9.06856 z"
       id="path513"
       sodipodi:nodetypes="cccccccccccc" /><path
       style="font-variation-settings:normal;opacity:1;fill:#800080;fill-opacity:1;fill-rule:evenodd;stroke:#000000;stroke-width:2;stroke-linecap:butt;stroke-linejoin:bevel;stroke-miterlimit:4;stroke-dasharray:none;stroke-dashoffset:0;stroke-opacity:1;stop-color:#000000;stop-opacity:1"
       d="m 48.699451,139.94392 4.771964,0.0438 4.377947,10.68219 2.451654,-5.47243 3.1959,-0.17512 2.801887,3.67748 3.1959,-9.93795 h 3.108337 l -2.933217,18.08093 -4.947077,-0.17512 -2.80189,-4.9033 -0.96315,5.64755 -7.705188,0.74425 z"
       id="path646" /><path
       id="path650"
       style="font-variation-settings:normal;opacity:1;fill:#800080;fill-opacity:1;fill-rule:evenodd;stroke:#000000;stroke-width:2;stroke-linecap:butt;stroke-linejoin:bevel;stroke-miterlimit:4;stroke-dasharray:none;stroke-dashoffset:0;stroke-opacity:1;stop-color:#000000;stop-opacity:1"
       d="m 76.718307,148.04312 1.97008,-5.16598 2.05763,5.16598 -2.36409,3.28346 z m 1.13827,8.05543 -4.246607,-8.23055 5.559987,-10.15684 5.122197,9.41259 z" /><path
       id="path654"
       style="font-variation-settings:normal;opacity:1;fill:#800080;fill-opacity:1;fill-rule:evenodd;stroke:#000000;stroke-width:2;stroke-linecap:butt;stroke-linejoin:bevel;stroke-miterlimit:4;stroke-dasharray:none;stroke-dashoffset:0;stroke-opacity:1;stop-color:#000000;stop-opacity:1"
       d="m 89.370556,140.29415 0.831804,5.03464 2.758095,-3.28346 z m -1.970061,14.40345 -1.138264,-17.51179 h 4.421706 l 6.085329,4.11527 -3.940151,6.47937 3.983931,5.07841 -5.078405,1.48851 -1.619841,-4.42173 0.30646,4.59684 z" /><path
       style="font-variation-settings:normal;opacity:1;fill:#800080;fill-opacity:1;fill-rule:evenodd;stroke:#000000;stroke-width:2;stroke-linecap:butt;stroke-linejoin:bevel;stroke-miterlimit:4;stroke-dasharray:none;stroke-dashoffset:0;stroke-opacity:1;stop-color:#000000;stop-opacity:1"
       d="m 98.870676,136.44156 1.138264,16.11085 3.54613,-0.56913 -0.35023,-4.46551 6.08535,4.02771 3.37102,-0.65669 -6.26047,-6.04157 5.91023,-6.52314 -2.18897,-1.88252 -6.43559,6.17291 0.0876,-5.82267 z"
       id="path656" /><path
       style="font-variation-settings:normal;opacity:1;fill:#800080;fill-opacity:1;fill-rule:evenodd;stroke:#000000;stroke-width:2;stroke-linecap:butt;stroke-linejoin:bevel;stroke-miterlimit:4;stroke-dasharray:none;stroke-dashoffset:0;stroke-opacity:1;stop-color:#000000;stop-opacity:1"
       d="m 115.30352,149.6988 4.11527,-7.00471 -4.59685,-4.72819 5.07842,-6.08535 2.53922,2.3641 -3.28347,3.85259 4.68441,4.85952 -6.12913,8.27432 z"
       id="path680" /><path
       style="font-variation-settings:normal;opacity:1;fill:#800080;fill-opacity:1;fill-rule:evenodd;stroke:#000000;stroke-width:2;stroke-linecap:butt;stroke-linejoin:bevel;stroke-miterlimit:4;stroke-dasharray:none;stroke-dashoffset:0;stroke-opacity:1;stop-color:#000000;stop-opacity:1"
       d="m 125.89815,133.36905 3.4148,-0.0438 0.0876,4.72818 3.54614,0.0876 -0.48158,-4.77197 3.10835,-0.13133 2.45165,14.75368 -3.67748,0.65669 -1.22582,-6.87337 -3.6337,0.39401 2.32031,7.79275 -4.6844,0.0876 z"
       id="path682" /><path
       id="path686"
       style="font-variation-settings:normal;opacity:1;fill:#800080;fill-opacity:1;fill-rule:evenodd;stroke:#000000;stroke-width:2;stroke-linecap:butt;stroke-linejoin:bevel;stroke-miterlimit:4;stroke-dasharray:none;stroke-dashoffset:0;stroke-opacity:1;stop-color:#000000;stop-opacity:1"
       d="m 142.62192,139.62952 0.83181,-1.97007 1.97007,2.45165 -1.09449,1.88251 z m -3.45859,0.56913 3.28347,-8.23054 c 0,0 5.95401,8.14299 5.73511,8.14299 -0.2189,0 -4.24661,7.13605 -4.24661,7.13605 z" /><path
       id="path716"
       style="font-variation-settings:normal;opacity:1;fill:#800080;fill-opacity:1;fill-rule:evenodd;stroke:#000000;stroke-width:2;stroke-linecap:butt;stroke-linejoin:bevel;stroke-miterlimit:4;stroke-dasharray:none;stroke-dashoffset:0;stroke-opacity:1;stop-color:#000000;stop-opacity:1"
       d="m 153.65434,136.60874 -0.52535,-2.84567 2.71433,1.13827 z m -1.4885,9.01857 -2.40787,-14.44723 4.6844,-0.65669 4.59685,3.23968 -2.93323,4.99086 0.2189,5.99779 z" /><path
       style="font-variation-settings:normal;opacity:1;fill:#800080;fill-opacity:1;fill-rule:evenodd;stroke:#000000;stroke-width:2;stroke-linecap:butt;stroke-linejoin:bevel;stroke-miterlimit:4;stroke-dasharray:none;stroke-dashoffset:0;stroke-opacity:1;stop-color:#000000;stop-opacity:1"
       d="m 172.47189,106.31333 c 0,0 0.91937,-0.52535 2.14519,-0.26267 1.22583,0.26267 1.31339,0.91937 1.31339,0.91937 l -5.16598,30.2954 -5.16598,-0.43779 z"
       id="path746" /><path
       style="font-variation-settings:normal;opacity:1;fill:#800080;fill-opacity:1;fill-rule:evenodd;stroke:#000000;stroke-width:2;stroke-linecap:butt;stroke-linejoin:bevel;stroke-miterlimit:4;stroke-dasharray:none;stroke-dashoffset:0;stroke-opacity:1;stop-color:#000000;stop-opacity:1"
       d="m 162.49017,144.5766 c 0.0805,-1.4997 3.9748,-4.00507 5.42865,-3.94015 1.47294,0.0658 3.23968,1.22582 3.10834,2.45165 -0.13133,1.22583 -3.58512,3.10835 -6.78581,3.10834 -1.26961,0 -1.79928,-0.72343 -1.75118,-1.61984 z"
       id="path777"
       sodipodi:nodetypes="sssss" /><path
       id="path483"
       style="font-variation-settings:normal;opacity:1;fill:#800080;fill-opacity:1;fill-rule:evenodd;stroke:#000000;stroke-width:2;stroke-linecap:butt;stroke-linejoin:bevel;stroke-miterlimit:4;stroke-dasharray:none;stroke-dashoffset:0;stroke-opacity:1;stop-color:#000000;stop-opacity:1"
       d="m 78.815931,93.17987 c 3.713718,0.153142 2.144274,-8.235572 2.228888,-11.577831 0.123827,-4.891169 -1.671666,-11.701657 -4.891172,-11.701657 -3.219503,0 -2.684152,7.066418 -2.414627,10.525301 0.371483,4.767342 2.784713,12.659664 5.076911,12.754187 z M 66.866618,81.540127 c -0.247655,-13.744805 5.44839,-22.474613 8.358328,-22.536528 3.845748,-0.08183 12.183209,8.420488 12.444619,22.536528 0.185742,10.029992 -3.095676,21.360173 -9.906164,21.360173 -6.810489,0 -10.64913,-7.986851 -10.896783,-21.360173 z"
       sodipodi:nodetypes="ssssscsssc" /><path
       style="font-variation-settings:normal;opacity:1;fill:#800080;fill-opacity:1;fill-rule:evenodd;stroke:#000000;stroke-width:2;stroke-linecap:butt;stroke-linejoin:bevel;stroke-miterlimit:4;stroke-dasharray:none;stroke-dashoffset:0;stroke-opacity:1;stop-color:#000000;stop-opacity:1"
       d="m 119.67827,112.16706 c 0,0 2.36106,-5.16404 7.46892,-5.10213 5.10787,0.0619 6.96528,1.95028 6.96528,3.71482 0,1.76453 -0.58818,2.0741 -2.38367,1.91932 -1.7955,-0.15479 -2.0122,-1.54784 -4.45778,-1.60976 -2.44558,-0.0619 -3.28142,1.54784 -3.18855,3.93151 0.0929,2.38367 2.07411,5.32457 4.98404,5.57222 -3.52907,-2.38367 -3.0028,-1.82645 -3.12663,-3.40524 -0.12383,-1.5788 0.83583,-2.2908 3.34333,-2.25985 2.5075,0.031 4.42682,0.40244 4.48873,3.12664 0.0619,2.72419 0.0301,7.67797 -6.28422,7.5844 -5.17152,-0.0766 -6.32263,-1.47059 -6.32263,-1.47059"
       id="path612"
       sodipodi:nodetypes="cssssscscssc" /><path
       style="font-variation-settings:normal;opacity:1;fill:#800080;fill-opacity:1;fill-rule:evenodd;stroke:#000000;stroke-width:2;stroke-linecap:butt;stroke-linejoin:bevel;stroke-miterlimit:4;stroke-dasharray:none;stroke-dashoffset:0;stroke-opacity:1;stop-color:#000000;stop-opacity:1"
       d="m 104.37726,110.21252 c 0,0 0.23341,-1.90931 4.62927,-2.09505 4.39586,-0.18575 6.51972,4.33948 8.11067,12.5994 -2.72419,-10.83487 -2.94089,-12.50654 -0.27861,-12.66132 2.66228,-0.15478 9.04778,19.97152 0,19.28607 -6.12944,-0.46436 -4.36491,-5.35552 -7.02719,-11.26827 1.7955,11.02061 3.25046,11.29922 -0.40243,12.28984 -3.6529,0.99062 -3.96253,-2.08949 -3.96253,-2.08949"
       id="path595"
       sodipodi:nodetypes="cscsscsc" /><path
       style="font-variation-settings:normal;opacity:1;fill:#800080;fill-opacity:1;fill-rule:evenodd;stroke:#000000;stroke-width:2;stroke-linecap:butt;stroke-linejoin:bevel;stroke-miterlimit:4;stroke-dasharray:none;stroke-dashoffset:0;stroke-opacity:1;stop-color:#000000;stop-opacity:1"
       d="m 101.54595,107.77694 c 4.08629,-0.18574 3.71481,8.69885 3.83864,12.41366 0.12382,3.71482 0.80487,10.43244 -2.7242,10.55626 -3.529067,0.12383 -3.369847,-1.23772 -3.371247,-2.66207 -10e-4,-1.42434 -4.1822,-21.17464 2.256807,-20.30785 z"
       id="path579" /><path
       style="font-variation-settings:normal;opacity:1;fill:#800080;fill-opacity:1;fill-rule:evenodd;stroke:#000000;stroke-width:2;stroke-linecap:butt;stroke-linejoin:bevel;stroke-miterlimit:4;stroke-dasharray:none;stroke-dashoffset:0;stroke-opacity:1;stop-color:#000000;stop-opacity:1"
       d="m 82.948782,111.7937 c 0,0 1.230427,-3.21189 3.923667,-3.21189 2.693237,0 4.148207,0.68106 3.652897,8.51312 0.99062,-8.0178 1.8574,-8.26546 5.231687,-8.48216 3.37429,-0.2167 1.76454,9.25608 -3.838637,13.37333 4.891167,-3.09568 7.460577,2.0741 7.398667,5.44839 -0.0619,3.37429 -1.20732,3.77672 -3.71481,3.6529 -2.507497,-0.12383 -2.971847,-1.60975 -4.302987,-5.51031 0.61913,4.70543 0.30956,7.55345 -2.321757,7.42963 -2.63133,-0.12383 -3.58254,-3.09871 -3.58254,-3.09871"
       id="path564" /><path
       style="font-variation-settings:normal;opacity:1;fill:#800080;fill-opacity:1;fill-rule:evenodd;stroke:#000000;stroke-width:2;stroke-linecap:butt;stroke-linejoin:bevel;stroke-miterlimit:4;stroke-dasharray:none;stroke-dashoffset:0;stroke-opacity:1;stop-color:#000000;stop-opacity:1"
       d="m 70.612987,129.02004 c 0,0 0.720777,4.18493 2.97901,4.07954 4.643517,-0.21671 3.714813,-8.91555 3.714813,-8.91555 0,0 0.402437,8.42024 5.107862,8.2345 4.705427,-0.18574 3.250467,-7.61537 2.259847,-12.63036 -0.990617,-5.015 -0.866787,-11.42305 -6.965272,-11.51592 -4.024379,0.1238 -6.799567,4.19276 -6.799567,4.19276"
       id="path538" /><path
       style="font-variation-settings:normal;opacity:1;fill:#800080;fill-opacity:1;fill-rule:evenodd;stroke:#000000;stroke-width:2;stroke-linecap:butt;stroke-linejoin:bevel;stroke-miterlimit:4;stroke-dasharray:none;stroke-dashoffset:0;stroke-opacity:1;stop-color:#000000;stop-opacity:1"
       d="m 41.525548,126.28472 c 0.262678,-9.06235 5.692017,-20.06319 11.7329,-19.87588 5.647553,0.17512 5.691333,12.56471 5.691333,12.56471 0,0 -1.882516,-10.98866 6.304245,-11.07621 7.064526,-0.0755 6.172907,8.537 6.172907,13.70297 0,5.16598 -1.225825,12.6085 -4.596845,12.69605 -3.371019,0.0876 -2.232752,-16.32974 -2.232752,-16.32974 0,0 -0.218898,12.87117 -5.603775,13.13384 -5.384876,0.26268 -5.647552,-13.13384 -5.647552,-13.13384 0,0 -0.434945,20.13856 -8.843457,20.13856 -2.978291,0 -3.199912,-4.13017 -2.977004,-11.82046 z"
       id="path525"
       sodipodi:nodetypes="sscssccscss" /><path
       style="font-variation-settings:normal;opacity:1;fill:#800080;fill-opacity:1;fill-rule:evenodd;stroke:#000000;stroke-width:2;stroke-linecap:butt;stroke-linejoin:bevel;stroke-miterlimit:4;stroke-dasharray:none;stroke-dashoffset:0;stroke-opacity:1;stop-color:#000000;stop-opacity:1"
       d="m 75.913757,114.21595 c 2.414627,1.42401 2.693238,3.90055 1.547838,5.91274"
       id="path872" /><text
       xml:space="preserve"
       style="font-size:16.2801px;line-height:1.25;font-family:sans-serif;-inkscape-font-specification:'sans-serif, Normal';stroke-width:0.339168"
       x="37.011589"
       y="57.44833"
       id="text6111"
       transform="rotate(-6.7457896)"><tspan
         sodipodi:role="line"
         id="tspan6109"
         style="stroke-width:0.339168"
         x="37.011589"
         y="57.44833">COMPUTER</tspan></text></g></svg>
