<?xml version="1.0" encoding="utf-8" standalone="no"?>
<!DOCTYPE svg PUBLIC "-//W3C//DTD SVG 1.1//EN"
  "http://www.w3.org/Graphics/SVG/1.1/DTD/svg11.dtd">
<svg xmlns:xlink="http://www.w3.org/1999/xlink" width="338.4pt" height="338.4pt" viewBox="0 0 338.4 338.4" xmlns="http://www.w3.org/2000/svg" version="1.1">
 <metadata>
  <rdf:RDF xmlns:dc="http://purl.org/dc/elements/1.1/" xmlns:cc="http://creativecommons.org/ns#" xmlns:rdf="http://www.w3.org/1999/02/22-rdf-syntax-ns#">
   <cc:Work>
    <dc:type rdf:resource="http://purl.org/dc/dcmitype/StillImage"/>
    <dc:date>2023-05-03T16:13:33.142625</dc:date>
    <dc:format>image/svg+xml</dc:format>
    <dc:creator>
     <cc:Agent>
      <dc:title>Matplotlib v3.6.2, https://matplotlib.org/</dc:title>
     </cc:Agent>
    </dc:creator>
   </cc:Work>
  </rdf:RDF>
 </metadata>
 <defs>
  <style type="text/css">*{stroke-linejoin: round; stroke-linecap: butt}</style>
 </defs>
 <g id="figure_1">
  
  <g id="axes_1">
   <g id="patch_2">
    <path d="M 169.2 169.2 
C 169.2 169.2 169.2 169.2 169.2 169.2 
C 169.2 169.2 169.2 169.2 169.2 169.2 
L 327.753225 140.426832 
C 328.614261 145.171529 329.261885 149.952486 329.694143 154.755266 
C 330.126401 159.558045 330.342857 164.377808 330.342857 169.2 
z
" clip-path="url(#p3ceac04c13)" style="fill: #1f77b4"/>
   </g>
   <g id="patch_3">
    <path d="M 169.2 169.2 
C 169.2 169.2 169.2 169.2 169.2 169.2 
C 169.2 169.2 169.2 169.2 169.2 169.2 
L 300.524345 119.913149 
C 301.999252 123.843024 303.297013 127.837123 304.413711 131.883387 
C 305.530409 135.929651 306.464918 140.024002 307.214416 144.154076 
z
" clip-path="url(#p3ceac04c13)" style="fill: #1f77b4"/>
   </g>
   <g id="patch_4">
    <path d="M 169.2 169.2 
C 169.2 169.2 169.2 169.2 169.2 169.2 
C 169.2 169.2 169.2 169.2 169.2 169.2 
L 259.014905 115.538092 
C 260.620735 118.225799 262.105112 120.984233 263.463553 123.805065 
C 264.821994 126.625898 266.053131 129.506286 267.153246 132.437532 
z
" clip-path="url(#p3ceac04c13)" style="fill: #1f77b4"/>
   </g>
   <g id="patch_5">
    <path d="M 169.2 169.2 
C 169.2 169.2 169.2 169.2 169.2 169.2 
C 169.2 169.2 169.2 169.2 169.2 169.2 
L 218.826447 125.842679 
C 220.123913 127.327748 221.354064 128.870309 222.513186 130.465703 
C 223.672308 132.061098 224.759233 133.707718 225.770678 135.400593 
z
" clip-path="url(#p3ceac04c13)" style="fill: #1f77b4"/>
   </g>
   <g id="patch_6">
    <path d="M 169.2 169.2 
C 169.2 169.2 169.2 169.2 169.2 169.2 
C 169.2 169.2 169.2 169.2 169.2 169.2 
L 190.995148 141.869748 
C 191.813005 142.521967 192.601173 143.210569 193.357272 143.933474 
C 194.113372 144.656379 194.836641 145.41286 195.524896 146.200631 
z
" clip-path="url(#p3ceac04c13)" style="fill: #1f77b4"/>
   </g>
   <g id="patch_7">
    <path d="M 169.2 169.2 
C 169.2 169.2 169.2 169.2 169.2 169.2 
C 169.2 169.2 169.2 169.2 169.2 169.2 
L 180.501639 148.198036 
C 181.130122 148.536237 181.743107 148.902478 182.338743 149.295655 
C 182.93438 149.688831 183.512068 150.108546 184.070062 150.553532 
z
" clip-path="url(#p3ceac04c13)" style="fill: #1f77b4"/>
   </g>
   <g id="patch_8">
    <path d="M 169.2 169.2 
C 169.2 169.2 169.2 169.2 169.2 169.2 
C 169.2 169.2 169.2 169.2 169.2 169.2 
L 174.16907 153.906774 
C 174.626719 154.055474 175.077463 154.224641 175.51994 154.413764 
C 175.962418 154.602888 176.396183 154.811779 176.819926 155.039805 
z
" clip-path="url(#p3ceac04c13)" style="fill: #1f77b4"/>
   </g>
   <g id="patch_9">
    <path d="M 169.2 169.2 
C 169.2 169.2 169.2 169.2 169.2 169.2 
C 169.2 169.2 169.2 169.2 169.2 169.2 
L 170.912829 156.555391 
C 171.291218 156.606648 171.667116 156.674863 172.039387 156.759831 
C 172.411659 156.8448 172.779929 156.946436 173.143085 157.064433 
z
" clip-path="url(#p3ceac04c13)" style="fill: #1f77b4"/>
   </g>
   <g id="patch_10">
    <path d="M 169.2 169.2 
C 169.2 169.2 169.2 169.2 169.2 169.2 
C 169.2 169.2 169.2 169.2 169.2 169.2 
L 168.690781 157.861354 
C 169.030089 157.846116 169.369911 157.846116 169.709219 157.861354 
C 170.048528 157.876593 170.386981 157.907054 170.723558 157.952646 
z
" clip-path="url(#p3ceac04c13)" style="fill: #1f77b4"/>
   </g>
   <g id="patch_11">
    <path d="M 169.2 169.2 
C 169.2 169.2 169.2 169.2 169.2 169.2 
C 169.2 169.2 169.2 169.2 169.2 169.2 
L 167.370069 161.182548 
C 167.609991 161.127787 167.85225 161.083824 168.096115 161.05079 
C 168.339979 161.017756 168.585204 160.995686 168.831048 160.984645 
z
" clip-path="url(#p3ceac04c13)" style="fill: #1f77b4"/>
   </g>
   <g id="patch_12">
    <path d="M 169.2 169.2 
C 169.2 169.2 169.2 169.2 169.2 169.2 
C 169.2 169.2 169.2 169.2 169.2 169.2 
L 165.932594 161.555523 
C 166.161354 161.457746 166.394389 161.370287 166.630993 161.293409 
C 166.867597 161.216532 167.107533 161.150314 167.350076 161.094955 
z
" clip-path="url(#p3ceac04c13)" style="fill: #1f77b4"/>
   </g>
   <g id="patch_13">
    <path d="M 169.2 169.2 
C 169.2 169.2 169.2 169.2 169.2 169.2 
C 169.2 169.2 169.2 169.2 169.2 169.2 
L 166.16642 164.604323 
C 166.303945 164.513543 166.445476 164.428982 166.590586 164.350896 
C 166.735695 164.272809 166.884236 164.201275 167.035761 164.136511 
z
" clip-path="url(#p3ceac04c13)" style="fill: #1f77b4"/>
   </g>
   <g id="patch_14">
    <path d="M 169.2 169.2 
C 169.2 169.2 169.2 169.2 169.2 169.2 
C 169.2 169.2 169.2 169.2 169.2 169.2 
L 164.774399 164.571184 
C 164.912916 164.438748 165.057308 164.312597 165.207139 164.193111 
C 165.35697 164.073625 165.512089 163.960924 165.672027 163.85535 
z
" clip-path="url(#p3ceac04c13)" style="fill: #1f77b4"/>
   </g>
   <g id="patch_15">
    <path d="M 169.2 169.2 
C 169.2 169.2 169.2 169.2 169.2 169.2 
C 169.2 169.2 169.2 169.2 169.2 169.2 
L 163.703183 165.206329 
C 163.822694 165.041837 163.949528 164.882792 164.083302 164.729675 
C 164.217076 164.576558 164.357656 164.429523 164.504617 164.289014 
z
" clip-path="url(#p3ceac04c13)" style="fill: #1f77b4"/>
   </g>
   <g id="patch_16">
    <path d="M 169.2 169.2 
C 169.2 169.2 169.2 169.2 169.2 169.2 
C 169.2 169.2 169.2 169.2 169.2 169.2 
L 159.355498 164.459137 
C 159.497368 164.164541 159.65239 163.876462 159.820096 163.595768 
C 159.987803 163.315075 160.168024 163.042051 160.360216 162.777521 
z
" clip-path="url(#p3ceac04c13)" style="fill: #1f77b4"/>
   </g>
   <g id="patch_17">
    <path d="M 169.2 169.2 
C 169.2 169.2 169.2 169.2 169.2 169.2 
C 169.2 169.2 169.2 169.2 169.2 169.2 
L 160.031861 166.669754 
C 160.107578 166.395398 160.195573 166.124579 160.295578 165.858115 
C 160.395584 165.59165 160.5075 165.329809 160.630989 165.073382 
z
" clip-path="url(#p3ceac04c13)" style="fill: #1f77b4"/>
   </g>
   <g id="patch_18">
    <path d="M 169.2 169.2 
C 169.2 169.2 169.2 169.2 169.2 169.2 
C 169.2 169.2 169.2 169.2 169.2 169.2 
L 157.54093 168.150665 
C 157.572331 167.801768 157.619378 167.454456 157.681928 167.109778 
C 157.744477 166.7651 157.822467 166.423404 157.915662 166.085721 
z
" clip-path="url(#p3ceac04c13)" style="fill: #1f77b4"/>
   </g>
   <g id="patch_19">
    <path d="M 169.2 169.2 
C 169.2 169.2 169.2 169.2 169.2 169.2 
C 169.2 169.2 169.2 169.2 169.2 169.2 
L 152.90364 170.666699 
C 152.859749 170.179031 152.83777 169.689639 152.83777 169.2 
C 152.83777 168.710361 152.859749 168.220969 152.90364 167.733301 
z
" clip-path="url(#p3ceac04c13)" style="fill: #1f77b4"/>
   </g>
   <g id="patch_20">
    <path d="M 169.2 169.2 
C 169.2 169.2 169.2 169.2 169.2 169.2 
C 169.2 169.2 169.2 169.2 169.2 169.2 
L 157.017745 172.562089 
C 156.917135 172.197535 156.832939 171.828649 156.765412 171.456545 
C 156.697885 171.084441 156.647095 170.709493 156.613195 170.332833 
z
" clip-path="url(#p3ceac04c13)" style="fill: #1f77b4"/>
   </g>
   <g id="patch_21">
    <path d="M 169.2 169.2 
C 169.2 169.2 169.2 169.2 169.2 169.2 
C 169.2 169.2 169.2 169.2 169.2 169.2 
L 158.124192 174.533828 
C 157.964578 174.202385 157.819921 173.863944 157.69066 173.519528 
C 157.561398 173.175111 157.447662 172.825066 157.349794 172.470449 
z
" clip-path="url(#p3ceac04c13)" style="fill: #1f77b4"/>
   </g>
   <g id="patch_22">
    <path d="M 169.2 169.2 
C 169.2 169.2 169.2 169.2 169.2 169.2 
C 169.2 169.2 169.2 169.2 169.2 169.2 
L 154.142834 180.139671 
C 153.815465 179.689086 153.508486 179.224034 153.222825 178.745918 
C 152.937164 178.267801 152.673108 177.777103 152.431455 177.275306 
z
" clip-path="url(#p3ceac04c13)" style="fill: #1f77b4"/>
   </g>
   <g id="patch_23">
    <path d="M 169.2 169.2 
C 169.2 169.2 169.2 169.2 169.2 169.2 
C 169.2 169.2 169.2 169.2 169.2 169.2 
L 156.113231 182.887687 
C 155.703628 182.496066 155.31181 182.086256 154.93896 181.659496 
C 154.56611 181.232735 154.212604 180.789452 153.87951 180.330988 
z
" clip-path="url(#p3ceac04c13)" style="fill: #1f77b4"/>
   </g>
   <g id="patch_24">
    <path d="M 169.2 169.2 
C 169.2 169.2 169.2 169.2 169.2 169.2 
C 169.2 169.2 169.2 169.2 169.2 169.2 
L 158.374857 185.59939 
C 157.884107 185.275448 157.408144 184.929641 156.948406 184.563013 
C 156.488669 184.196384 156.04562 183.809304 155.620598 183.402941 
z
" clip-path="url(#p3ceac04c13)" style="fill: #1f77b4"/>
   </g>
   <g id="patch_25">
    <path d="M 169.2 169.2 
C 169.2 169.2 169.2 169.2 169.2 169.2 
C 169.2 169.2 169.2 169.2 169.2 169.2 
L 164.031567 181.292151 
C 163.66971 181.137486 163.314977 180.966656 162.968441 180.780177 
C 162.621905 180.593698 162.283914 180.391757 161.955489 180.174966 
z
" clip-path="url(#p3ceac04c13)" style="fill: #1f77b4"/>
   </g>
   <g id="patch_26">
    <path d="M 169.2 169.2 
C 169.2 169.2 169.2 169.2 169.2 169.2 
C 169.2 169.2 169.2 169.2 169.2 169.2 
L 166.48818 181.081262 
C 166.132633 181.000111 165.780909 180.903041 165.434068 180.790345 
C 165.087228 180.67765 164.745621 180.549443 164.410278 180.406111 
z
" clip-path="url(#p3ceac04c13)" style="fill: #1f77b4"/>
   </g>
   <g id="patch_27">
    <path d="M 169.2 169.2 
C 169.2 169.2 169.2 169.2 169.2 169.2 
C 169.2 169.2 169.2 169.2 169.2 169.2 
L 168.452554 185.84317 
C 167.954508 185.820802 167.457717 185.77609 166.963681 185.709169 
C 166.469645 185.642247 165.978862 185.553183 165.492813 185.442245 
z
" clip-path="url(#p3ceac04c13)" style="fill: #1f77b4"/>
   </g>
   <g id="patch_28">
    <path d="M 169.2 169.2 
C 169.2 169.2 169.2 169.2 169.2 169.2 
C 169.2 169.2 169.2 169.2 169.2 169.2 
L 172.926212 196.708003 
C 172.103037 196.81951 171.27527 196.89401 170.445413 196.931279 
C 169.615556 196.968548 168.784444 196.968548 167.954587 196.931279 
z
" clip-path="url(#p3ceac04c13)" style="fill: #1f77b4"/>
   </g>
   <g id="patch_29">
    <path d="M 169.2 169.2 
C 169.2 169.2 169.2 169.2 169.2 169.2 
C 169.2 169.2 169.2 169.2 169.2 169.2 
L 179.827734 201.908802 
C 178.848925 202.226836 177.856333 202.500774 176.852955 202.729789 
C 175.849578 202.958803 174.836426 203.142663 173.81656 203.280813 
z
" clip-path="url(#p3ceac04c13)" style="fill: #1f77b4"/>
   </g>
   <g id="patch_30">
    <path d="M 169.2 169.2 
C 169.2 169.2 169.2 169.2 169.2 169.2 
C 169.2 169.2 169.2 169.2 169.2 169.2 
L 179.939132 189.156651 
C 179.34193 189.478019 178.730604 189.772418 178.106999 190.03896 
C 177.483394 190.305501 176.848139 190.543916 176.203152 190.753485 
z
" clip-path="url(#p3ceac04c13)" style="fill: #1f77b4"/>
   </g>
   <g id="patch_31">
    <path d="M 169.2 169.2 
C 169.2 169.2 169.2 169.2 169.2 169.2 
C 169.2 169.2 169.2 169.2 169.2 169.2 
L 185.699163 189.889297 
C 185.080037 190.383033 184.43906 190.84873 183.778168 191.284981 
C 183.117276 191.721232 182.437135 192.127598 181.739799 192.50285 
z
" clip-path="url(#p3ceac04c13)" style="fill: #1f77b4"/>
   </g>
   <g id="patch_32">
    <path d="M 169.2 169.2 
C 169.2 169.2 169.2 169.2 169.2 169.2 
C 169.2 169.2 169.2 169.2 169.2 169.2 
L 194.368861 191.189372 
C 193.71083 191.942549 193.019323 192.665809 192.296426 193.356968 
C 191.57353 194.048128 190.819974 194.70649 190.038033 195.330067 
z
" clip-path="url(#p3ceac04c13)" style="fill: #1f77b4"/>
   </g>
   <g id="patch_33">
    <path d="M 169.2 169.2 
C 169.2 169.2 169.2 169.2 169.2 169.2 
C 169.2 169.2 169.2 169.2 169.2 169.2 
L 202.86295 189.312676 
C 202.261079 190.320038 201.614293 191.299876 200.924546 192.249232 
C 200.234799 193.198587 199.502785 194.116504 198.730715 195.000209 
z
" clip-path="url(#p3ceac04c13)" style="fill: #1f77b4"/>
   </g>
   <g id="patch_34">
    <path d="M 169.2 169.2 
C 169.2 169.2 169.2 169.2 169.2 169.2 
C 169.2 169.2 169.2 169.2 169.2 169.2 
L 218.506601 187.705077 
C 217.952837 189.180574 217.333122 190.630472 216.649325 192.05039 
C 215.965528 193.470309 215.218339 194.858819 214.410014 196.211726 
z
" clip-path="url(#p3ceac04c13)" style="fill: #1f77b4"/>
   </g>
   <g id="patch_35">
    <path d="M 169.2 169.2 
C 169.2 169.2 169.2 169.2 169.2 169.2 
C 169.2 169.2 169.2 169.2 169.2 169.2 
L 260.859797 185.833801 
C 260.362032 188.576716 259.741394 191.295905 258.99976 193.983159 
C 258.258125 196.670412 257.39624 199.323022 256.416707 201.932978 
z
" clip-path="url(#p3ceac04c13)" style="fill: #1f77b4"/>
   </g>
   <g id="patch_36">
    <path d="M 169.2 169.2 
C 169.2 169.2 169.2 169.2 169.2 169.2 
C 169.2 169.2 169.2 169.2 169.2 169.2 
L 315.550235 169.2 
C 315.550235 173.579524 315.35365 177.956841 314.961072 182.318734 
C 314.568495 186.680627 313.980321 191.022701 313.198327 195.331844 
z
" clip-path="url(#p3ceac04c13)" style="fill: #1f77b4"/>
   </g>
   <g id="LineCollection_1">
    <path d="M 169.2 169.2 
L 329.02288 189.783186 
" clip-path="url(#p3ceac04c13)" style="fill: none; stroke-dasharray: 5.55,2.4; stroke-dashoffset: 0; stroke: #ff0000; stroke-opacity: 0.5; stroke-width: 1.5"/>
   </g>
   <g id="line2d_1">
    <defs>
     <path id="md750639dec" d="M -3 0 
L 3 0 
M 0 3 
L 0 -3 
" style="stroke: #000000"/>
    </defs>
    <g clip-path="url(#p3ceac04c13)">
     <use xlink:href="#md750639dec" x="169.2" y="169.2" style="stroke: #000000"/>
    </g>
   </g>
  </g>
 </g>
 <defs>
  <clipPath id="p3ceac04c13">
   <path d="M 338.4 169.2 
C 338.4 146.98086 334.023314 124.977772 325.520417 104.449963 
C 317.01752 83.922154 304.553772 65.268837 288.842467 49.557533 
C 273.131163 33.846228 254.477846 21.38248 233.950037 12.879583 
C 213.422228 4.376686 191.41914 0 169.2 0 
C 146.98086 0 124.977772 4.376686 104.449963 12.879583 
C 83.922154 21.38248 65.268837 33.846228 49.557533 49.557533 
C 33.846228 65.268837 21.38248 83.922154 12.879583 104.449963 
C 4.376686 124.977772 -0 146.98086 -0 169.2 
C -0 191.41914 4.376686 213.422228 12.879583 233.950037 
C 21.38248 254.477846 33.846228 273.131163 49.557533 288.842467 
C 65.268837 304.553772 83.922154 317.01752 104.449963 325.520417 
C 124.977772 334.023314 146.98086 338.4 169.2 338.4 
C 191.41914 338.4 213.422228 334.023314 233.950037 325.520417 
C 254.477846 317.01752 273.131163 304.553772 288.842467 288.842467 
C 304.553772 273.131163 317.01752 254.477846 325.520417 233.950037 
C 334.023314 213.422228 338.4 191.41914 338.4 169.2 
M 169.2 169.2 
C 169.2 169.2 169.2 169.2 169.2 169.2 
C 169.2 169.2 169.2 169.2 169.2 169.2 
C 169.2 169.2 169.2 169.2 169.2 169.2 
C 169.2 169.2 169.2 169.2 169.2 169.2 
C 169.2 169.2 169.2 169.2 169.2 169.2 
C 169.2 169.2 169.2 169.2 169.2 169.2 
C 169.2 169.2 169.2 169.2 169.2 169.2 
C 169.2 169.2 169.2 169.2 169.2 169.2 
C 169.2 169.2 169.2 169.2 169.2 169.2 
C 169.2 169.2 169.2 169.2 169.2 169.2 
C 169.2 169.2 169.2 169.2 169.2 169.2 
C 169.2 169.2 169.2 169.2 169.2 169.2 
C 169.2 169.2 169.2 169.2 169.2 169.2 
C 169.2 169.2 169.2 169.2 169.2 169.2 
C 169.2 169.2 169.2 169.2 169.2 169.2 
C 169.2 169.2 169.2 169.2 169.2 169.2 
M 338.4 169.2 
z
"/>
  </clipPath>
 </defs>
</svg>
